<?xml version="1.0" encoding="UTF-8"?>
<svg viewBox="0 0 260 200" xmlns="http://www.w3.org/2000/svg">
    <defs>
        <style>
            .cls-1 {
                fill: #24346c;
            }

            .cls-2 {
                fill: #f08a01;
            }
        </style>
    </defs>
    <g data-name="Capa 2">
        <g data-name="Capa 1">
            <g data-name="#24346cff">
                <path class="cls-1"
                    d="M0,20.45C11.88,13.5,24,6.88,35.86,0c9,7.19,18.1,14.38,27,21.73,9.61-.2,19.2-1.13,28.81-1.26C112.62,32.52,133.36,45,154,57.58c5-4.31,10.11-8.59,15.13-12.93,5,4.62,9.95,9.38,15,14h34.12c-6.95,18.34-14,36.65-20.9,55-7,3.52-14.22,6.77-21.31,10.19,3.85,7.07,7.64,14.17,11.51,21.23-6.68,4.42-13.43,8.74-20.09,13.21q4.71,4.27,9.31,8.69c-3.72,9.79-7.48,19.56-11.15,29.38-7.07-1.64-14.18-3.21-21.15-5.22-6.08-6.78-11.77-13.93-17.71-20.85-3.29,1.87-6.57,3.76-9.87,5.62-5.36,3-9.92,7.12-15.06,10.42l-1.66-.63c-5.5-9.56-8-20.49-13.21-30.18a101.84,101.84,0,0,0,6.39,28.68c-4.48-1-8.28-4.92-13.1-4-8.2.92-16.37,2.09-24.59,2.73a126.3,126.3,0,0,0,5.76-28c-4.15,8.44-6.9,17.47-10.84,26-6.76-3.05-13.13-6.86-19.74-10.22-1.94-6.91-3.69-13.88-5.56-20.81,7.33-3.17,15-5.56,22.15-9.17L47,139.61l-.81,1.08a117.25,117.25,0,0,0-23.38,4.73c-3.68-6-9.77-9.91-14.27-15.21,3.24-5,6.21-10.16,9.36-15.2,1.67-2.11,0-4.7-.43-7a87.39,87.39,0,0,0,29.85,6.79c-10.39-5-21.67-8-31.68-13.76-1.09-3.91-1.78-8-3.22-11.75-3.74-5-7.87-9.69-11.77-14.55C4,72.33,7.36,70,10.73,67.6,7.9,63.15,5,58.74,2.25,54.24q4.32-3.14,8.55-6.39C7.16,38.73,3.72,29.53,0,20.45M70.42,38.64c-1.26,2.15.43,4.2,1.62,5.91-10.17,6.93-22.93,6.91-34.72,6.13-.15-2.51-1.72-5.43-4.63-5.16-3.92-.12-5.44,5.68-2.22,7.67,1.83,1.5,4.14.41,5.94-.52A102,102,0,0,1,49,71.5c4.85,9.22,7.4,19.45,12.3,28.64-1.06-9.62-2.54-19.34-6.36-28.3A61.57,61.57,0,0,0,43.87,54.71C54.26,56,65.23,54,73.89,47.9a44.84,44.84,0,0,0,30.29,6.82C92.6,67,88,83.88,86.86,100.3c4.54-9.19,7.31-19.13,12-28.27A97.24,97.24,0,0,1,111.76,52.6c1.75,1.16,4.22,2.07,6,.44a4.18,4.18,0,0,0-1.18-7.26c-3.14-1.31-5.93,1.86-5.82,4.87-11.76.87-24.43.81-34.63-6,1.48-1.61,3.3-3.84,1.93-6.1-1.38-3.14-6.35-3.12-7.65.07m76.71,44.8c-2.18,1.7-1.64,4.68-.2,6.67A95.62,95.62,0,0,1,123,105.19c-7.78,3.32-15.75,6.15-23.53,9.47,16.34-.43,33-5.66,45.28-16.85-1.13,10.43.91,21.31,6.92,30-6.06,8.71-8,19.6-7,30-12.09-11.46-28.84-15.93-45.05-17.23,7.47,4.1,15.78,6.36,23.51,9.91a99.78,99.78,0,0,1,23.6,14.75c-.85,2.07-2,4.74,0,6.58,2.37,2.78,7.52.79,7.27-2.9.19-2.88-2.7-4.24-5.12-4.48-.77-11.71-1-24.61,6.2-34.57,1.37,1.48,3.36,3.11,5.51,2.09,3.21-1.1,3.73-6,.66-7.59-2.15-1.61-4.48,0-6.16,1.44-7.08-10.11-7.11-23-6.15-34.81,2.36-.06,5-1.48,5.06-4.1C154.5,83.45,149.72,80.9,147.13,83.44Z" />
            </g>
            <g data-name="#f08a01ff">
                <path class="cls-2"
                    d="m239.12 58.36h19.54q-26.25 69.54-52.63 139c-6.64-0.07-13.28 0-19.92 0q26.51-69.52 53.01-139z" />
            </g>
        </g>
    </g>
</svg>