<?xml version="1.0" encoding="UTF-8" standalone="no"?>
<!-- Created with Inkscape (http://www.inkscape.org/) -->

<svg
   xmlns:dc="http://purl.org/dc/elements/1.1/"
   xmlns:cc="http://creativecommons.org/ns#"
   xmlns:rdf="http://www.w3.org/1999/02/22-rdf-syntax-ns#"
   xmlns:svg="http://www.w3.org/2000/svg"
   xmlns="http://www.w3.org/2000/svg"
   xmlns:sodipodi="http://sodipodi.sourceforge.net/DTD/sodipodi-0.dtd"
   xmlns:inkscape="http://www.inkscape.org/namespaces/inkscape"
   version="1.1"
   id="svg2"
   xml:space="preserve"
   width="125.0737"
   height="110.92464"
   viewBox="0 0 125.0737 110.92464"
   sodipodi:docname="document.svg"
   inkscape:version="0.92.4 (5da689c313, 2019-01-14)"><metadata
     id="metadata8"><rdf:RDF><cc:Work
         rdf:about=""><dc:format>image/svg+xml</dc:format><dc:type
           rdf:resource="http://purl.org/dc/dcmitype/StillImage" /><dc:title></dc:title></cc:Work></rdf:RDF></metadata><defs
     id="defs6"><clipPath
       clipPathUnits="userSpaceOnUse"
       id="clipPath18"><path
         d="M 0,0 H 595.276 V 841.89 H 0 Z"
         id="path16"
         inkscape:connector-curvature="0"
         style="clip-rule:evenodd" /></clipPath><clipPath
       clipPathUnits="userSpaceOnUse"
       id="clipPath58"><path
         d="M 0,0 V 841.89 H 97.102 V 0"
         id="path56"
         inkscape:connector-curvature="0"
         style="clip-rule:evenodd" /></clipPath><clipPath
       clipPathUnits="userSpaceOnUse"
       id="clipPath68"><path
         d="M 0,0 H 3507.87 V 404.592 H 0 Z"
         id="path66"
         inkscape:connector-curvature="0" /></clipPath></defs><sodipodi:namedview
     pagecolor="#ffffff"
     bordercolor="#666666"
     borderopacity="1"
     objecttolerance="10"
     gridtolerance="10"
     guidetolerance="10"
     inkscape:pageopacity="0"
     inkscape:pageshadow="2"
     inkscape:window-width="1920"
     inkscape:window-height="1018"
     id="namedview4"
     showgrid="false"
     fit-margin-top="0"
     fit-margin-left="0"
     fit-margin-right="0"
     fit-margin-bottom="0"
     inkscape:zoom="1.189304"
     inkscape:cx="369.68737"
     inkscape:cy="290.47961"
     inkscape:window-x="-8"
     inkscape:window-y="-8"
     inkscape:window-maximized="1"
     inkscape:current-layer="g10" /><g
     id="g10"
     inkscape:groupmode="layer"
     inkscape:label="document"
     transform="matrix(1.3333333,0,0,-1.3333333,-5.0556204,187.87168)"><path
       d="m 97.588233,119.83186 c -0.03458,0.4764 -0.15048,1.09824 -0.283853,1.698 -0.404662,-0.67248 -1.23141,-1.37376 -1.81029,-1.80456 7.5e-4,-0.012 0.0038,-0.0283 0.0045,-0.0403 0.051,-0.70104 -0.471337,-1.40952 -1.007257,-1.7316 -1.179045,-0.70848 -2.961765,-1.77888 -5.24097,-1.9284 -2.48379,-0.16272 -38.191083,7.2e-4 -38.560923,0.002 -0.36024,-0.002 -36.06696,-0.16488 -38.5512,-0.002 -2.27904,0.14952 -4.06152,1.21992 -5.25936,1.93944 -0.51744,0.31056 -1.03968,1.01952 -0.9888,1.72056 7.2e-4,0.0101 0.00288,0.0235 0.00384,0.0336 -0.61752,0.45672 -1.40952,1.16208 -1.80432,1.83336 -0.13536,-0.60672 -0.25392,-1.23792 -0.2892,-1.72008 -0.11592,-1.6008 0.94848,-3.0012 2.00496,-3.63576 0.4968,-0.29856 1.12872,-0.67464 1.87584,-1.03416 l 8.49456,-52.657444 0.01968,-0.0936 c 0.01224,-0.0472 0.31176,-1.17672 1.1136,-2.29992 1.12176,-1.57056 2.67456,-2.40072 4.4904,-2.40072 h 57.79057 c 1.815885,0 3.36849,0.83016 4.489943,2.40072 0.802342,1.1232 1.101547,2.25264 1.114102,2.29992 l 0.01185,0.0464 8.502285,52.705444 c 0.75171,0.36192 1.389578,0.74136 1.8948,1.04472 1.037978,0.624 2.10183,2.0244 1.985213,3.62448 M 91.45066,114.31652 83.153665,62.883556 c -0.1044,-0.3552 -1.002045,-3.11424 -3.563685,-3.11424 H 21.799808 c -2.56728,0 -3.45504,2.7408 -3.56376,3.11352 L 9.9390075,114.31642 c 0.6393595,-0.17064 1.3255195,-0.2976 2.0603995,-0.3456 0.8784,-0.0576 5.540161,-0.0768 11.346001,-0.0768 11.102639,0 26.38248,0.0696 27.3444,0.0744 1.474559,-0.007 36.142082,-0.16512 38.700242,0.002 0.734948,0.048 1.42065,0.17496 2.06064,0.3456 M 81.48445,84.877856 v 3.05808 c 0,0.71112 0,1.65 -0.838995,2.34696 -0.40536,0.34128 -1.05684,0.66888 -2.38848,0.66888 -2.387424,0 -3.154487,-0.96744 -3.154487,-1.65048 0,-0.54048 0.477288,-0.88224 0.940247,-0.88224 0.42,0 0.680112,0.29928 0.781368,0.4128 0.217176,0.28464 0.40536,0.5124 1.259712,0.5124 0.274776,0 1.200697,0 1.200697,-0.64032 0,-0.384 -0.303412,-0.46944 -1.041841,-0.59736 -1.635384,-0.27 -2.228568,-0.384 -2.807447,-0.73944 -0.23148,-0.14256 -0.57888,-0.3984 -0.781392,-0.91056 -0.07226,-0.1848 -0.159552,-0.46944 -0.159552,-0.88176 0,-1.40832 1.013208,-2.3472 2.619623,-2.3472 0.65148,0 1.302624,0.17088 1.895832,0.55488 0.188182,0.12792 0.274777,0.22752 0.434325,0.36984 0.11556,-0.34152 0.30375,-0.83928 0.98388,-0.83928 1.027875,0 1.042177,1.00992 1.05651,1.5648 m -2.112653,0.9384 c -0.11592,-0.18456 -0.2898,-0.49752 -0.85435,-0.7536 -0.361368,-0.17088 -0.665112,-0.1992 -0.882648,-0.1992 -0.59352,0 -0.998184,0.2844 -0.998184,0.7824 0,0.69696 0.75204,0.85344 1.345944,0.98136 0.969216,0.18504 1.085136,0.22752 1.389238,0.35592 z m -2.18563,15.364564 c 0,0.37008 0.376368,0.62592 1.027872,0.62592 0.825021,0 1.070473,-0.32688 1.244331,-0.5688 0.130245,-0.18504 0.303765,-0.41232 0.7524,-0.41232 0.52161,0 0.98457,0.39816 0.98457,0.92424 0,0.71136 -1.04217,1.5792 -2.865381,1.5792 -0.970272,0 -1.98312,-0.21312 -2.619959,-0.92472 -0.477288,-0.52656 -0.549552,-1.12392 -0.549552,-1.49328 0,-1.437124 1.301951,-1.835524 2.069015,-2.063044 0.202848,-0.071 1.157736,-0.32688 1.345944,-0.384 0.347733,-0.0994 0.73807,-0.22752 0.73807,-0.654 0,-0.44088 -0.390337,-0.68328 -1.070806,-0.68328 -0.98424,0 -1.27368,0.4272 -1.403904,0.61224 -0.217176,0.32712 -0.448296,0.6396 -0.954912,0.6396 -0.550223,0 -0.954887,-0.41208 -0.954887,-0.95256 0,-0.85368 1.171727,-1.83528 3.343031,-1.83528 2.677198,0 3.212451,1.49352 3.212451,2.3616 0,1.56432 -1.244355,1.92 -2.344493,2.247364 -0.260467,0.071 -0.520918,0.14256 -0.767062,0.22752 -0.723432,0.19944 -1.186728,0.34152 -1.186728,0.7536 M 74.37872,99.815456 c 0,1.393924 -0.781369,3.499444 -3.444673,3.499444 -2.37336,0 -3.83448,-1.70712 -3.83448,-3.897844 0,-1.77768 0.98352,-3.84072 3.80544,-3.84072 0.82512,0 1.66488,0.17088 2.33028,0.64032 0.434328,0.29856 0.578881,0.61152 0.578881,0.91008 0,0.51264 -0.433633,0.93936 -0.940201,0.93936 -0.18816,0 -0.40584,-0.0571 -0.62256,-0.24168 -0.10128,-0.0713 -0.17352,-0.15648 -0.26088,-0.24192 -0.15912,-0.14232 -0.44856,-0.35544 -1.02744,-0.35544 -0.17328,0 -0.7092,0 -1.17216,0.48336 -0.34704,0.35568 -0.41952,0.78216 -0.46296,1.12368 h 4.139136 c 0.390337,0.0139 0.911617,0.0283 0.911617,0.98136 m -2.011393,0.569284 h -3.03936 c 0.15936,0.46944 0.41928,1.308 1.56288,1.308 0.492,0 0.94056,-0.1704 1.21608,-0.5688 0.15912,-0.2412 0.20232,-0.49728 0.2604,-0.7392 m -5.54304,-16.701844 c 0.2172,0.27 0.2316,0.62592 0.2316,0.93888 v 3.61272 c 0,0.65448 -0.05808,1.59336 -1.04232,2.29032 -0.34728,0.22752 -0.81072,0.42696 -1.51968,0.42696 -1.21584,0 -1.78008,-0.73992 -2.01192,-1.05288 -0.05712,0.27024 -0.13008,0.6828 -0.6216,0.88176 -0.20256,0.071 -0.36216,0.071 -0.4344,0.071 -0.33288,0 -0.54984,-0.11352 -0.6804,-0.21288 -0.34752,-0.28464 -0.36192,-0.65448 -0.36192,-1.00992 v -5.064 c 0.0144,-0.384 0.02904,-0.996 0.68064,-1.19496 0.07224,-0.0286 0.20232,-0.0569 0.37584,-0.0569 0.28992,0 0.57888,0.0994 0.78144,0.31296 0.24624,0.27024 0.24624,0.61152 0.2604,0.92448 v 2.95848 c 0,0.42696 0.01512,1.02408 0.53568,1.42248 0.2172,0.15648 0.492,0.24192 0.78168,0.24192 0.42,0 0.78168,-0.18504 0.97008,-0.56928 0.14448,-0.28416 0.15864,-0.59712 0.15864,-0.88152 v -3.15768 c 0,-0.28464 0.0144,-0.66864 0.2748,-0.95304 0.1596,-0.15648 0.41976,-0.2988 0.78192,-0.2988 0.4488,0 0.70944,0.19896 0.83952,0.36984 m -1.02792,12.40584 c 0.20256,0.29856 0.2172,0.59736 0.2172,0.92448 v 4.978564 c 0,0.34152 -0.01464,0.8964 -0.59352,1.13832 -0.13008,0.0569 -0.28944,0.0854 -0.46248,0.0854 -0.39072,0 -0.62256,-0.15648 -0.75288,-0.28464 -0.1596,-0.17112 -0.28968,-0.4128 -0.28968,-0.95352 v -4.978564 c 0,-0.39816 0.01488,-1.00992 0.63672,-1.23744 0.10176,-0.0425 0.23184,-0.071 0.42,-0.071 0.2892,0 0.59328,0.0854 0.82464,0.3984 m 0.2172,8.904244 c 0,0.59736 -0.4776,1.03872 -1.04184,1.03872 -0.57888,0 -1.05672,-0.46944 -1.05672,-1.03872 0,-0.5544 0.44856,-1.03848 1.05672,-1.03848 0.57864,0 1.04184,0.45552 1.04184,1.03848 m -2.88,-3.32856 c 0.15912,0.15648 0.24624,0.3984 0.24624,0.66888 0,0.48384 -0.28944,0.95328 -1.07088,0.95328 -0.60816,0 -1.18704,-0.28464 -1.50528,-0.83976 -0.13008,-0.19896 -0.21744,-0.41256 -0.28968,-0.64008 v 0.17064 c 0,0.24192 0,0.88224 -0.56424,1.15272 -0.10152,0.0569 -0.26088,0.0994 -0.44832,0.0994 -0.34776,0 -0.57888,-0.14208 -0.70968,-0.27 -0.31776,-0.31296 -0.31776,-0.7116 -0.31776,-1.05312 v -4.893124 c 0,-0.44088 0.0144,-1.08096 0.73776,-1.2804 0.1596,-0.0425 0.28968,-0.0569 0.37632,-0.0569 0.30384,0 0.59328,0.114 0.7668,0.2988 0.28968,0.28464 0.28968,0.71136 0.28968,1.03848 v 2.2332 c 0.0144,0.796804 0.02904,1.920484 1.14336,2.105284 0.1884,0.0281 0.37656,0.0281 0.57888,0.0427 0.26016,0.0139 0.5496,0.0569 0.7668,0.27 m -4.52928,-11.097124 c -0.14496,0.14232 -0.3912,0.2844 -0.73848,0.2844 -0.31848,0 -0.56472,-0.11352 -0.72384,-0.25584 -0.30408,-0.29856 -0.31848,-0.66864 -0.31848,-0.9816 v -2.68824 c 0,-0.6828 -0.01416,-1.22376 -0.3612,-1.59312 -0.30432,-0.34152 -0.6948,-0.37008 -0.88296,-0.37008 -1.17264,0 -1.18728,1.03848 -1.20144,1.62192 v 2.88768 c -0.01464,0.35544 -0.01464,0.75336 -0.28944,1.0524 -0.15888,0.1848 -0.41928,0.32688 -0.78144,0.32688 -0.31848,0 -0.56424,-0.12792 -0.72336,-0.2844 -0.31848,-0.31296 -0.31848,-0.71112 -0.31848,-1.0668 v -3.17184 c 0.01392,-0.8964 0.02904,-2.2332 1.2444,-2.8308 0.30408,-0.15648 0.76704,-0.27024 1.2732,-0.27024 1.3896,0 1.89624,0.75384 2.07,1.02432 0.04296,-0.25608 0.15888,-0.92448 1.01304,-0.92448 1.02744,0 1.02744,0.9528 1.04184,1.37952 v 4.92192 c 0,0.31248 -0.0288,0.654 -0.30336,0.9384 m -1.65048,6.67344 v 3.058564 c 0,0.71112 0,1.65 -0.83928,2.3472 -0.40512,0.34104 -1.05624,0.6684 -2.38752,0.6684 -2.388479,0 -3.155519,-0.96768 -3.155519,-1.65048 0,-0.54048 0.4776,-0.88128 0.94104,-0.88128 0.419519,0 0.680399,0.29832 0.781679,0.41208 0.2172,0.28464 0.40536,0.51216 1.25904,0.51216 0.27456,0 1.20096,0 1.20096,-0.64008 0,-0.384 -0.30408,-0.4692 -1.04232,-0.59712 -1.63536,-0.27048 -2.228399,-0.38472 -2.807279,-0.740164 -0.23184,-0.14208 -0.57888,-0.3984 -0.78168,-0.91032 -0.07248,-0.18504 -0.15936,-0.46944 -0.15936,-0.88176 0,-1.40832 1.01328,-2.3472 2.620079,-2.3472 0.65112,0 1.30224,0.17064 1.89552,0.55464 0.18816,0.12792 0.27504,0.22776 0.43416,0.36984 0.11568,-0.34128 0.30408,-0.83928 0.98424,-0.83928 1.0272,0 1.04184,1.01016 1.05624,1.5648 m -2.11296,0.93888 c -0.11568,-0.18456 -0.28944,-0.49752 -0.85344,-0.7536 -0.36192,-0.17064 -0.666,-0.19896 -0.88296,-0.19896 -0.59304,0 -0.99888,0.2844 -0.99888,0.78192 0,0.69696 0.75288,0.85344 1.34592,0.9816 0.9696,0.1848 1.08552,0.22752 1.38936,0.35544 z m -0.31848,6.330004 c 0,0.0854 -0.02856,0.1704 -0.0576,0.25584 l -0.46296,1.1952 c -0.10152,0.25608 -0.13032,0.25608 -0.91152,0.25608 -0.20328,0 -0.75312,0 -0.88344,-0.0569 -0.11544,-0.0571 -0.23136,-0.18504 -0.23136,-0.35568 0,-0.15648 0.08688,-0.27024 0.18816,-0.39864 0.02928,-0.0427 0.6804,-0.85344 0.9552,-1.13808 0.13008,-0.14184 0.18816,-0.1704 0.44856,-0.1704 0.69456,0 0.95496,0.085 0.95496,0.41256 M 50.152208,93.497376 c -0.20256,0.0854 -0.37632,0.0854 -0.4488,0.0854 -0.28968,0 -0.52128,-0.0854 -0.69504,-0.22752 -0.318,-0.27024 -0.3324,-0.65424 -0.34704,-0.98136 v -7.80912 c 0,-0.41256 0,-1.25184 1.05648,-1.25184 1.05624,0 1.05624,0.9672 1.05624,1.26576 v 7.73832 c -0.0144,0.384 -0.0144,0.9528 -0.62184,1.18032 m -1.56312,2.54832 c 0.23136,0.29904 0.23136,0.62592 0.23136,0.93888 v 3.229204 c 0,0.93864 -0.01416,1.74936 -0.60768,2.37528 -0.46296,0.49824 -1.15752,0.71136 -1.83792,0.71136 -1.30272,0 -1.85256,-0.6828 -2.24304,-1.23768 -0.21696,0.45528 -0.593761,1.23768 -2.040961,1.23768 -1.38936,0 -1.82352,-0.81072 -1.9968,-1.13832 -0.07224,0.37008 -0.2172,1.05336 -1.07136,1.05336 -0.3468,0 -0.60768,-0.14256 -0.7524,-0.28464 -0.26064,-0.2844 -0.27528,-0.65472 -0.28944,-0.96768 v -5.006884 c 0,-0.37008 0,-0.9816 0.6804,-1.20912 0.17352,-0.0569 0.318,-0.0569 0.39024,-0.0569 0.41976,0 0.666,0.18504 0.79656,0.32712 0.23136,0.2844 0.246,0.65424 0.246,0.9672 v 2.75976 c 0.0144,0.469444 0.02904,1.081204 0.46272,1.436404 0.2604,0.19896 0.53592,0.22752 0.70944,0.22752 1.04184,0 1.07088,-1.06608 1.07088,-1.578724 v -2.78784 c 0,-0.37008 0,-1.06704 0.67992,-1.29456 0.10128,-0.0283 0.2316,-0.0569 0.40536,-0.0569 1.013041,0 1.041841,0.85344 1.041841,1.2804 v 3.01536 c 0,0.356164 0.01464,0.768484 0.31848,1.095364 0.24624,0.27024 0.57936,0.32688 0.82536,0.32688 1.07088,0 1.09992,-0.96672 1.09992,-1.436164 v -3.01584 c 0,-0.32712 0.01464,-0.71112 0.28944,-0.9816 0.13008,-0.14232 0.39024,-0.2844 0.76656,-0.2844 0.30408,0 0.60816,0.0854 0.82512,0.35544 m -10.478161,-4.2408 c -0.01416,0.42672 -0.01416,1.03848 -0.63648,1.266 -0.11544,0.0425 -0.2604,0.071 -0.40536,0.071 -0.49224,0 -0.7236,-0.27048 -0.78168,-0.32712 -0.26016,-0.2844 -0.26016,-0.66864 -0.27432,-0.99576 v -1.00992 c -0.3624,0 -0.79656,0 -0.99888,-0.42696 -0.05808,-0.0994 -0.07272,-0.22752 -0.07272,-0.35544 0,-0.4836 0.31848,-0.65448 0.39072,-0.69696 0.20304,-0.0996 0.43464,-0.0996 0.68088,-0.0996 v -3.92592 c 0,-0.85344 0.0432,-1.97688 1.99656,-1.97688 0.56496,0 1.56312,0.0566 1.56312,0.92448 0,0.29856 -0.11592,0.73944 -0.70872,0.73944 -0.52128,0 -0.75312,0.0713 -0.75312,0.69696 v 3.54192 c 0.73848,0 1.02768,0 1.24464,0.41256 0.05808,0.114 0.10128,0.24192 0.10128,0.384 0,0.42696 -0.2748,0.62592 -0.40536,0.69696 -0.18744,0.0854 -0.31776,0.0854 -0.94056,0.0854 z m -1.85256,4.28376 c 0.2028,0.29856 0.2172,0.59736 0.2172,0.92448 v 4.978564 c 0,0.34152 -0.0144,0.8964 -0.59304,1.13832 -0.13032,0.0569 -0.28992,0.0854 -0.46296,0.0854 -0.3912,0 -0.62256,-0.15648 -0.75288,-0.28464 -0.15888,-0.17112 -0.28896,-0.4128 -0.28896,-0.95352 v -4.978564 c 0,-0.39816 0.01416,-1.00992 0.636,-1.23744 0.10152,-0.0425 0.23184,-0.071 0.41976,-0.071 0.29016,0 0.59352,0.0854 0.82488,0.3984 m 0.2172,8.904244 c 0,0.59736 -0.4776,1.03872 -1.04208,1.03872 -0.57888,0 -1.05576,-0.46944 -1.05576,-1.03872 0,-0.5544 0.44808,-1.03848 1.05576,-1.03848 0.57912,0 1.04208,0.45552 1.04208,1.03848 m -2.30112,-20.115124 v 3.05808 c 0,0.71112 0,1.65 -0.83904,2.34696 -0.40488,0.34128 -1.05672,0.66888 -2.388,0.66888 -2.388,0 -3.15504,-0.96744 -3.15504,-1.65048 0,-0.54048 0.47736,-0.88224 0.94104,-0.88224 0.41976,0 0.67968,0.29928 0.78096,0.4128 0.2172,0.28464 0.40584,0.5124 1.25904,0.5124 0.27504,0 1.20168,0 1.20168,-0.64032 0,-0.384 -0.30408,-0.46944 -1.04256,-0.59736 -1.63536,-0.27 -2.22816,-0.384 -2.80728,-0.73944 -0.2316,-0.14256 -0.578639,-0.3984 -0.781439,-0.91056 -0.07272,-0.1848 -0.1596,-0.46944 -0.1596,-0.88176 0,-1.40832 1.013279,-2.3472 2.620079,-2.3472 0.65112,0 1.30224,0.17088 1.89576,0.55488 0.18816,0.12792 0.27504,0.22752 0.43392,0.36984 0.11568,-0.34152 0.30384,-0.83928 0.98472,-0.83928 1.0272,0 1.04136,1.00992 1.05576,1.5648 m -2.11272,0.9384 c -0.11544,-0.18456 -0.28896,-0.49752 -0.85392,-0.7536 -0.36168,-0.17088 -0.66552,-0.1992 -0.88272,-0.1992 -0.59352,0 -0.99888,0.2844 -0.99888,0.7824 0,0.69696 0.75312,0.85344 1.34592,0.98136 0.97008,0.18504 1.08576,0.22752 1.3896,0.35592 z m 1.53384,15.848164 c 0.15912,0.15648 0.246,0.3984 0.246,0.66888 0,0.48384 -0.28944,0.95328 -1.07112,0.95328 -0.60768,0 -1.18632,-0.28464 -1.50504,-0.83976 -0.13032,-0.19896 -0.21696,-0.41256 -0.28944,-0.64008 v 0.17064 c 0,0.24192 0,0.88224 -0.56424,1.15272 -0.1008,0.0569 -0.26016,0.0994 -0.44832,0.0994 -0.34776,0 -0.57912,-0.14208 -0.70944,-0.27 -0.318,-0.31296 -0.318,-0.7116 -0.318,-1.05312 v -4.893124 c 0,-0.44088 0.01392,-1.08096 0.73776,-1.2804 0.15936,-0.0425 0.28968,-0.0569 0.37632,-0.0569 0.3036,0 0.59304,0.114 0.76656,0.2988 0.28992,0.28464 0.28992,0.71136 0.28992,1.03848 v 2.2332 c 0.0144,0.796804 0.02856,1.920484 1.14312,2.105284 0.18816,0.0281 0.37656,0.0281 0.57912,0.0427 0.2604,0.0139 0.5496,0.0569 0.7668,0.27 m -5.75976,-2.090884 c 0,0.711604 -0.115919,1.962724 -0.998639,2.887684 -0.81024,0.85368 -1.76568,0.86784 -2.14152,0.86784 -1.30296,0 -1.8384,-0.69696 -2.12808,-1.05288 -0.0576,0.27 -0.20256,0.92496 -1.0416,0.92496 -0.17376,0 -0.49224,-0.0286 -0.75288,-0.29856 -0.2892,-0.31344 -0.2892,-0.69744 -0.3036,-1.03872 v -7.083604 c 0,-0.37032 0,-1.01016 0.65088,-1.23768 0.18816,-0.0571 0.33336,-0.0571 0.4056,-0.0571 0.5496,0 0.7812,0.29856 0.85368,0.41256 0.17352,0.2844 0.18792,0.6684 0.18792,0.99624 v 1.5216 c 0.2172,-0.24192 0.44856,-0.498 0.99888,-0.68304 0.31848,-0.11352 0.60792,-0.15648 0.9552,-0.15648 2.05512,0 3.314159,1.53672 3.314159,3.9972 m -2.127839,-0.0142 c 0,-0.93888 -0.3036,-2.2476 -1.60632,-2.2476 -0.50616,0 -0.92592,0.19968 -1.20072,0.61224 -0.1452,0.21336 -0.33336,0.58272 -0.33336,1.50744 0,0.796804 0.14496,1.308724 0.4344,1.663924 0.27528,0.34152 0.70896,0.52656 1.1724,0.52656 1.14312,0 1.5336,-1.00968 1.5336,-2.062564 m -5.8032,-12.54816 c 0,-2.09088 1.1724,-3.82632 3.71928,-3.82632 2.08392,0 3.08304,1.33704 3.08304,2.0484 0,0.654 -0.56424,0.96744 -1.04232,0.96744 -0.50664,0 -0.66552,-0.342 -0.7956,-0.58344 -0.17352,-0.2844 -0.3912,-0.6684 -1.1292,-0.6684 -1.41816,0 -1.66392,1.15224 -1.66392,2.10528 0,1.42224 0.50616,1.82064 0.7956,1.99128 0.26088,0.1704 0.49224,0.22752 0.79608,0.22752 0.63672,0 0.95568,-0.31296 1.11432,-0.51216 0.08712,-0.0994 0.15936,-0.21336 0.26088,-0.3132 0.14424,-0.15624 0.36144,-0.28416 0.66504,-0.28416 0.47808,0 0.95544,0.3552 0.95544,0.92448 0,0.38448 -0.17352,0.71136 -0.60768,1.0812 -0.7236,0.61152 -1.51944,0.79656 -2.33016,0.79656 -2.04072,0 -3.8208,-1.23744 -3.8208,-3.95448 m 0.41472,-13.03728 c 0,-1.32048 1.08888,-2.39088 2.4324,-2.39088 1.34328,0 2.4324,1.0704 2.4324,2.39088 0,1.32048 -1.08912,2.39064 -2.4324,2.39064 -1.34352,0 -2.4324,-1.07016 -2.4324,-2.39064 m 16.543199,0 c 0,-1.32048 1.08936,-2.39088 2.43216,-2.39088 1.344,0 2.43288,1.0704 2.43288,2.39088 0,1.32048 -1.08888,2.39064 -2.43288,2.39064 -1.3428,0 -2.43216,-1.07016 -2.43216,-2.39064 m 5.90856,9.25368 c 0.65088,0 1.302481,0.17088 1.895521,0.55488 0.18816,0.12792 0.27504,0.22752 0.4344,0.36984 0.11544,-0.34152 0.3036,-0.83928 0.98376,-0.83928 1.02792,0 1.04256,1.00992 1.05696,1.5648 v 3.05808 c 0,0.71112 0,1.65 -0.83976,2.34696 -0.40488,0.34128 -1.056,0.66888 -2.38728,0.66888 -2.388241,0 -3.155521,-0.96744 -3.155521,-1.65048 0,-0.54048 0.4776,-0.88224 0.9408,-0.88224 0.41976,0 0.68016,0.29928 0.78144,0.4128 0.21744,0.28464 0.40536,0.5124 1.25904,0.5124 0.275041,0 1.201201,0 1.201201,-0.64032 0,-0.384 -0.30408,-0.46944 -1.04208,-0.59736 -1.635361,-0.27 -2.228161,-0.384 -2.807521,-0.73944 -0.23184,-0.14256 -0.57912,-0.3984 -0.7812,-0.91056 -0.07248,-0.1848 -0.15936,-0.46944 -0.15936,-0.88176 0,-1.40832 1.0128,-2.3472 2.6196,-2.3472 m -0.47784,2.41824 c 0,0.69696 0.75264,0.85344 1.34592,0.98136 0.969601,0.18504 1.085521,0.22752 1.389121,0.35592 v -1.16688 c -0.11544,-0.18456 -0.28944,-0.49752 -0.8532,-0.7536 -0.3624,-0.17088 -0.666241,-0.1992 -0.883441,-0.1992 -0.5928,0 -0.9984,0.2844 -0.9984,0.7824 m 11.11272,-11.63112 c 0,-3.08328 2.55192,-5.59176 5.68896,-5.59176 3.13656,0 5.6892,2.50848 5.6892,5.59176 0,3.08304 -2.55264,5.59152 -5.6892,5.59152 -3.13704,0 -5.68896,-2.50848 -5.68896,-5.59152 m 1.01256,0 c 0,2.53416 2.09808,4.596 4.6764,4.596 2.5788,0 4.6764,-2.06184 4.6764,-4.596 0,-2.53488 -2.0976,-4.59672 -4.6764,-4.59672 -2.57832,0 -4.6764,2.06184 -4.6764,4.59672 m 2.22168,-0.0408 c 0,-1.32048 1.08888,-2.39088 2.43264,-2.39088 1.3428,0 2.43192,1.0704 2.43192,2.39088 0,1.32048 -1.08912,2.39064 -2.43192,2.39064 -1.34376,0 -2.43264,-1.07016 -2.43264,-2.39064 m 11.02296,7.9308 c 0,-0.9816 1.1868,-0.9816 1.50504,-0.9816 1.85256,0 2.1996,0.9816 2.7792,2.56032 l 2.011129,5.7324 c 0.07262,0.2136 0.130248,0.41304 0.130248,0.64032 0,0.68256 -0.563881,0.9672 -1.027537,0.9672 -0.69408,0 -0.88224,-0.55464 -0.98352,-0.89616 l -0.91224,-3.21456 c -0.08664,-0.35544 -0.1152,-0.44088 -0.20256,-0.85392 -0.1008,0.612 -0.13032,0.73992 -0.2604,1.28088 l -0.7236,2.53176 c -0.14448,0.48336 -0.33264,1.152 -1.12896,1.152 -0.4488,0 -1.07088,-0.28464 -1.07088,-0.9672 0,-0.21336 0.07224,-0.44088 0.14448,-0.6684 l 2.12784,-5.87472 c -0.14472,-0.28488 -0.31848,-0.62592 -0.82488,-0.62592 -0.10176,0 -0.56472,0.071 -0.666,0.071 -0.50664,0 -0.89736,-0.32712 -0.89736,-0.85344 m 8.799072,-7.9308 c 0,-1.32048 1.088976,-2.39088 2.432473,-2.39088 1.343138,0 2.432805,1.0704 2.432805,2.39088 0,1.32048 -1.089667,2.39064 -2.432805,2.39064 -1.343497,0 -2.432473,-1.07016 -2.432473,-2.39064 m 19.888131,48.290164 0.0023,1.18632 h -0.01605 l -0.181897,0.3504 -0.04297,0.25008 -0.0015,0.0718 v 1.5576 l 0.13932,0.16344 c 0.02865,0.0336 0.0817,0.0958 0.0817,0.384 v 1.47336 c -0.01785,0.1476 -0.135817,0.84264 -0.849817,1.7004 -0.598418,0.71904 -4.575143,5.72832 -6.892395,8.65032 l -0.160245,0.20208 c -0.04545,0.0578 -1.125293,1.39032 -3.697778,2.04768 -2.031,0.51888 -3.380063,0.6024 -6.670725,0.6024 H 23.329328 c -3.29064,0 -4.63992,-0.0835 -6.67104,-0.6024 -2.57688,-0.6588 -3.685921,-2.0328 -3.696721,-2.04648 l -0.11856,-0.14976 c -1.87488,-2.36472 -6.3045595,-7.9464 -6.9350395,-8.70384 -0.68424,-0.82224 -0.82368,-1.50336 -0.846,-1.64544 l -0.0036,-1.52952 c 0,-0.28848 0.05352,-0.35136 0.07944,-0.38112 l 0.13992,-0.16368 0.00168,-1.55832 c 0,-0.0977 -0.00792,-0.17832 -0.02448,-0.24744 l -0.0732,-0.306 -0.14064,-0.0516 c -0.0024,-0.013 -0.00384,-0.0288 -0.00384,-0.0473 v -1.16712 c 0.066,-0.3384 1.05888,-1.35816 1.97568,-1.92312 2.02704,-1.24968 2.70984,-1.67064 9.1778405,-1.67064 h 69.007487 c 6.468885,0 7.14204,0.41472 9.14016,1.64664 0.909525,0.56112 1.922378,1.5696 2.012115,1.90728 m -16.27452,9.30696 H 21.313328 l 1.27752,2.34288 H 78.79849 Z"
       style="fill:#f8485e;fill-opacity:1;fill-rule:nonzero;stroke:none;stroke-width:0.23999999"
       id="path78"
       inkscape:connector-curvature="0" /></g></svg>