<?xml version="1.0" encoding="UTF-8" standalone="no"?>
<!-- Generator: Adobe Illustrator 22.1.0, SVG Export Plug-In . SVG Version: 6.00 Build 0)  -->

<svg
   xmlns:dc="http://purl.org/dc/elements/1.1/"
   xmlns:cc="http://creativecommons.org/ns#"
   xmlns:rdf="http://www.w3.org/1999/02/22-rdf-syntax-ns#"
   xmlns:svg="http://www.w3.org/2000/svg"
   xmlns="http://www.w3.org/2000/svg"
   xmlns:sodipodi="http://sodipodi.sourceforge.net/DTD/sodipodi-0.dtd"
   xmlns:inkscape="http://www.inkscape.org/namespaces/inkscape"
   version="1.1"
   id="Capa_1"
   x="0px"
   y="0px"
   viewBox="0 0 69.4 69.4"
   style="enable-background:new 0 0 69.4 69.4;"
   xml:space="preserve"
   sodipodi:docname="Logo_PSC_pictural.svg"
   inkscape:version="0.92.4 (5da689c313, 2019-01-14)"><metadata
   id="metadata4592"><rdf:RDF><cc:Work
       rdf:about=""><dc:format>image/svg+xml</dc:format><dc:type
         rdf:resource="http://purl.org/dc/dcmitype/StillImage" /></cc:Work></rdf:RDF></metadata><defs
   id="defs4590">
	
	

		
	
			
			
			
			
			
		
				
				
				
				
				
			</defs><sodipodi:namedview
   pagecolor="#ffffff"
   bordercolor="#666666"
   borderopacity="1"
   objecttolerance="10"
   gridtolerance="10"
   guidetolerance="10"
   inkscape:pageopacity="0"
   inkscape:pageshadow="2"
   inkscape:window-width="1440"
   inkscape:window-height="837"
   id="namedview4588"
   showgrid="false"
   inkscape:zoom="4.5965417"
   inkscape:cx="29.079776"
   inkscape:cy="10.067685"
   inkscape:window-x="-8"
   inkscape:window-y="-8"
   inkscape:window-maximized="1"
   inkscape:current-layer="Capa_1" />
<style
   type="text/css"
   id="style4556">
	.st0{fill:#FFFFFF;}
	.st1{fill:#E10819;}
</style>
<g
   id="g4663"><path
     class="st0"
     d="M 65.7,0 H 3.7 C 1.7,0 0,1.7 0,3.7 v 62 c 0,2.1 1.7,3.7 3.7,3.7 h 62 c 2.1,0 3.7,-1.7 3.7,-3.7 V 3.7 C 69.4,1.7 67.8,0 65.7,0"
     id="path4558"
     inkscape:connector-curvature="0"
     style="fill:#ffffff" /><path
     class="st1"
     d="m 65.7,1.6 c 1.2,0 2.1,1 2.1,2.1 v 62 c 0,1.2 -1,2.1 -2.1,2.1 h -62 c -1.2,0 -2.1,-1 -2.1,-2.1 v -62 c 0,-1.2 1,-2.1 2.1,-2.1 z"
     id="path4560"
     inkscape:connector-curvature="0"
     style="fill:#e10819" /><g
     transform="translate(-2)"
     id="Layer_x0020_1_1_">
					<path
   style="fill:#ffffff"
   inkscape:connector-curvature="0"
   id="path4562"
   d="m 43.5,9.3 c -1.8,1.4 -1.7,3.7 -0.8,5 1.1,1.6 3.8,2.5 5.6,0.7 -2.9,-0.4 -4.4,-2.4 -4.8,-5.7 z m 5,0.1 c -0.2,1.4 -1,2.1 -2.4,2.2 0.8,1.1 1.9,1.9 3.6,1.9 0.6,-2 0.1,-3.3 -1.2,-4.1 z M 41.3,9 C 42.9,7.1 45.2,6.4 47.5,6.9 47.7,6.4 48.1,5.8 48.7,5.4 45.7,3.2 41.4,5.2 41.3,9 Z M 48.9,7.3 C 51,7.3 53.2,7.9 55,9.7 55.8,5.8 50.7,4.3 48.9,7.3 Z m 7,20.7 c 0.6,-0.6 1,-1.4 1,-2.3 0,-1 -0.5,-1.9 -1.2,-2.4 0.5,-0.6 0.8,-1.3 0.8,-2.1 V 18.1 H 54.7 C 56.6,16.3 57.1,13.8 56,11.2 57.3,6.5 54.6,3.7 50.2,4.6 47.7,2.6 43.9,2.7 41.7,4.7 37.3,4 34.8,7.1 36.1,11.6 c -1,2.3 -0.5,4.7 1.7,6.6 h -2.1 v 3.1 c 0,0.9 0.4,1.7 1,2.3 -0.5,0.5 -0.9,1.2 -1,2 h -6.4 v 13.7 h 6.4 c -0.1,1.7 1.3,3.2 3.1,3.2 h 13.5 c 1.7,0 3.1,-1.4 3.1,-3.1 0,-0.6 -0.2,-1.1 -0.4,-1.6 1.2,-0.4 2.1,-1.6 2.1,-2.9 0,-0.9 -0.4,-1.7 -1,-2.3 0.6,-0.6 1,-1.4 1,-2.3 -0.2,-0.9 -0.6,-1.7 -1.2,-2.3 z m -1.1,-8.2 v 1.4 c 0,0.8 -0.6,1.4 -1.4,1.4 h -4.9 v -1.4 c 0,-0.8 0.6,-1.4 1.4,-1.4 z m -1.5,-2.6 c -0.9,0.7 -2.3,1.1 -4.2,0.8 -0.2,0 -0.5,-0.1 -0.7,-0.1 0,-0.3 0,-0.6 0,-0.9 2.7,-1 4,-4.5 2.5,-7.5 4,0.7 5.1,5.5 2.4,7.7 z m -8.1,-8 c 0,-0.4 0.4,-0.8 0.8,-0.8 0.4,0 0.8,0.4 0.8,0.8 0,0.4 -0.3,0.8 -0.8,0.8 -0.4,0 -0.8,-0.4 -0.8,-0.8 z m 0.1,9.5 c 0.5,-0.2 1,-0.5 1.5,-0.8 v 4.7 h -0.5 c -0.5,0 -1,-0.4 -1,-1 z M 40.4,6.2 c -1.1,2 -1,4 -0.1,6 -4.4,-0.3 -3.8,-6.3 0.1,-6 z m -3.2,6.4 c 1,0.8 2.1,1.1 3.4,1 0.7,2.1 2,3.2 3.9,3.6 -3.5,2.4 -8.2,-0.3 -7.3,-4.6 z m 0.1,7.2 h 4.9 c 0.8,0 1.4,0.7 1.4,1.4 v 1.4 h -4.9 c -0.8,0 -1.4,-0.6 -1.4,-1.4 z m 0,5.9 c 0,-0.8 0.7,-1.4 1.4,-1.4 h 8.4 c 0.8,0 1.4,0.7 1.4,1.4 v 5.9 H 46.8 C 46,31.6 45.4,31 45.4,30.2 v -3.1 h -1.7 v 3.1 c 0,0.8 -0.6,1.4 -1.4,1.4 h -3.5 c -0.9,0 -1.4,-0.6 -1.4,-1.4 v -4.5 z m 6.4,15 h -5 c -0.9,0 -1.4,-0.7 -1.4,-1.5 V 37.5 H 30.9 V 27.2 h 4.7 v 3.1 c 0,1.7 1.4,3.1 3.1,3.1 h 3.5 c 0.8,0 1.5,-0.3 2.1,-0.8 -0.6,0.6 -0.9,1.3 -0.9,2.2 0,0.9 0.4,1.7 1,2.3 -0.6,0.6 -1,1.4 -1,2.3 0,0.4 0.1,0.9 0.3,1.3 z m 8.5,0 h -5.7 c -0.8,0 -1.4,-0.6 -1.4,-1.4 0,-0.8 0.7,-1.4 1.4,-1.4 h 5.7 c 0.8,0 1.4,0.7 1.4,1.4 0,0.8 -0.6,1.4 -1.4,1.4 z m 1.6,-4.5 h -7.3 c -0.8,0 -1.4,-0.6 -1.4,-1.4 0,-0.8 0.7,-1.4 1.4,-1.4 h 7.3 c 0.8,0 1.4,0.6 1.4,1.4 0,0.7 -0.6,1.4 -1.4,1.4 z m 0,-4.5 h -3.6 v -2.8 h 3.6 c 0.8,0 1.4,0.6 1.4,1.4 0,0.7 -0.6,1.4 -1.4,1.4 z m 0,-4.6 h -3.6 v -1.4 c 0,-0.5 -0.1,-1 -0.3,-1.4 h 4 c 0.8,0 1.4,0.7 1.4,1.4 0,0.7 -0.7,1.4 -1.5,1.4 z"
   class="st0" />
					<path
   style="fill:#e10819"
   inkscape:connector-curvature="0"
   id="path4564"
   d="M 48.9,7.4 C 51,7.3 53.2,7.9 55,9.7 55.8,5.8 50.7,4.3 48.9,7.4 Z M 49.2,18 c -0.2,0 -0.5,-0.1 -0.7,-0.1 0,-0.3 0,-0.6 0,-0.9 2.8,-1 4,-4.5 2.5,-7.5 3.9,0.8 5,5.6 2.4,7.8 -0.9,0.6 -2.3,1 -4.2,0.7 z M 47.4,6.9 C 47.7,6.4 48,5.8 48.6,5.4 45.7,3.2 41.4,5.2 41.3,9 42.9,7.1 45.2,6.4 47.4,6.9 Z m -7,-0.7 c -1.1,2 -1,4 -0.1,6 -4.4,-0.3 -3.8,-6.3 0.1,-6 z M 46,8.4 c 0.4,0 0.8,0.4 0.8,0.8 0,0.4 -0.4,0.8 -0.8,0.8 -0.4,0 -0.8,-0.4 -0.8,-0.8 0,-0.5 0.4,-0.8 0.8,-0.8 z m 3.7,5.1 c 0.6,-2 0.1,-3.4 -1.2,-4.2 -0.2,1.4 -1,2.1 -2.3,2.2 0.7,1.3 1.8,2.1 3.5,2 z M 43.5,9.3 c -1.8,1.4 -1.7,3.7 -0.8,5 1.1,1.6 3.8,2.5 5.6,0.7 -2.9,-0.4 -4.4,-2.4 -4.8,-5.7 z m 0.9,7.9 c -3.5,2.4 -8.1,-0.3 -7.2,-4.6 1,0.8 2.1,1.1 3.4,1 0.6,2.1 2,3.2 3.8,3.6 z"
   class="st1" />
				</g><rect
     style="fill:#ffffff"
     id="rect4567"
     height="35.099998"
     width="2.8"
     class="st0"
     y="7"
     x="15.5" /><rect
     style="fill:#ffffff"
     id="rect4569"
     height="35.099998"
     width="2.8"
     class="st0"
     y="7"
     x="20" /><rect
     style="fill:#ffffff"
     id="rect4571"
     height="35.099998"
     width="2.8"
     class="st0"
     y="7"
     x="24.6" /><rect
     style="fill:#ffffff"
     id="rect4573"
     height="35.099998"
     width="2.8"
     class="st0"
     y="6.9000001"
     x="29.1" /><path
     class="st0"
     d="m 50.8,52.5 c -0.6,-1.2 -1.6,-1.8 -3.1,-1.8 -2.5,0 -4,2.2 -4,5.4 0,3.1 1.5,5.4 4,5.4 1.5,0 2.4,-0.7 3.3,-2.2 l 2.9,1.7 c -1.2,2.4 -3.2,3.8 -6.3,3.8 -4.4,0 -7.4,-3.4 -7.4,-8.7 0,-5.2 3.1,-8.7 7.5,-8.7 3.2,0 5.1,1.5 6.2,3.8 z M 33.6,64.8 c -2.3,0 -4.4,-1 -5.7,-2.3 l 1.3,-1.4 c 1.3,1.2 2.8,2 4.5,2 2.3,0 3.7,-1.1 3.7,-2.9 0,-1.6 -0.9,-2.5 -4,-3.6 -3.7,-1.3 -4.9,-2.5 -4.9,-4.9 0,-2.7 2.1,-4.3 5.3,-4.3 2.3,0 3.7,0.7 5.2,1.8 l -1.2,1.5 c -1.2,-1 -2.4,-1.6 -4.1,-1.6 -2.3,0 -3.3,1.2 -3.3,2.5 0,1.4 0.6,2.2 4,3.4 3.8,1.4 4.9,2.6 4.9,5.1 -0.1,2.7 -2.2,4.7 -5.7,4.7 M 25.3,52.7 c 0,2.3 -1.2,3.4 -3.8,3.4 h -4.1 v -6.9 h 4.4 c 2.3,0.1 3.5,1.4 3.5,3.5 m 1.9,0 c 0,-3.4 -2.3,-5.1 -5.4,-5.1 h -6.3 v 17 h 1.9 v -6.7 h 4.1 c 3.4,0 5.7,-1.9 5.7,-5.2"
     id="path4577"
     inkscape:connector-curvature="0"
     style="fill:#ffffff" /><rect
     x="27.387772"
     y="27.200001"
     class="st1"
     width="5.8858938"
     height="10.3"
     id="rect4579"
     style="fill:#e10819;stroke-width:0.89793468" /></g>

</svg>