<?xml version="1.0" encoding="UTF-8"?>
<svg viewBox="0 0 800 430" xmlns="http://www.w3.org/2000/svg">
    <defs>
        <style>
            .cls-1 {
                fill: #d00c3c;
            }
        </style>
    </defs>
    <g data-name="Capa 2">
        <g data-name="Capa 1">
            <g data-name="#d00c3cff" transform="translate(-800)">
                <path class="cls-1"
                    d="M824.54,0h.29c5.71.05,8.82,5.78,8.3,10.94q0,201,0,402.09c-.07,4.08.32,8.25-.63,12.26-.88,3.23-4,5.23-7.21,5.71h-.76c-5-.25-8.59-5.15-8-10q0-202,0-404c.08-3.63-.35-7.33.44-10.91A8.55,8.55,0,0,1,824.54,0Z" />
                <path class="cls-1"
                    d="M1177.56,35.63c5.77-4.85,13.89-7.21,21.27-5.19,10.63,2.36,19,12.58,18.87,23.54q0,103.51,0,207c.27,24.3-3.6,48.79-12.49,71.45a140.19,140.19,0,0,1-28.32,45.27,134.59,134.59,0,0,1-47.78,32.06c-24.69,10-51.6,13.23-78.08,12.81-29.07-.48-58.69-6.05-84.3-20.36C941.39,388.9,921,366.79,909,340.87a180.55,180.55,0,0,1-13.78-47c-3.29-21.15-2.31-42.61-2.47-63.93q0-87,0-174c-.09-6.94,2.33-14,7.38-18.86,5.57-5.65,14-8.7,21.89-6.9a24.41,24.41,0,0,1,18.36,15.59c2,4.81,1.33,10.14,1.45,15.21,0,58.33-.09,116.65.07,175-.34,13,.16,26,.62,38.95,1.64,22.53,8.28,45.27,22.36,63.25,10.47,13.46,25.53,22.73,41.59,28,19.79,6.5,40.9,8.08,61.59,6.84,24.11-1.67,49.24-7.91,67.72-24.33,17.4-14.34,26.29-36.38,30.33-58,2.44-13.09,2.62-26.43,2.53-39.7V56C1168.44,48.33,1171.56,40.51,1177.56,35.63Z" />
                <path class="cls-1"
                    d="M1403.67,37.6c6.18-6.73,16.43-9.81,25.17-6.78A24.57,24.57,0,0,1,1444,43.94q74.13,163.86,148.32,327.72c2.69,6.18,6.22,12.22,6.7,19.11v1.83c-.09,12.58-11.09,24.61-24,24.11-9,.45-17.77-4.72-22.23-12.44-3.5-6-5.84-12.68-8.81-19-8.64-19.52-17.64-38.88-26-58.5a206.81,206.81,0,0,0-91-2.37,221.78,221.78,0,0,0-58.46,19.24c-17.18,8.38-33,19.2-48.28,30.64a406.87,406.87,0,0,0-39.55,33.32c-5.5,5.43-12.74,9.6-20.64,9.7-7.21-.2-14.81-3.8-18-10.58-3.23-7-1.71-15.13.76-22.16,2.2-5.81,5.17-11.29,7.6-17q73.29-159.12,146.41-318.32c1.87-4.11,3.66-8.37,6.86-11.66M1421,113.33c-3.71,9.81-8.77,19.1-13,28.69-26.9,57.59-54.13,115-80.79,172.75C1366.7,293,1410.72,278.1,1456,276.05c13.16-.86,26.3.33,39.46.69q-26.2-58-52.61-116C1435.5,145,1428.77,128.91,1421,113.33Z" />
            </g>
        </g>
    </g>
</svg>