<?xml version="1.0" encoding="utf-8"?>
<!-- Generator: Adobe Illustrator 21.1.0, SVG Export Plug-In . SVG Version: 6.00 Build 0)  -->
<svg version="1.1" id="Capa_1" xmlns="http://www.w3.org/2000/svg" xmlns:xlink="http://www.w3.org/1999/xlink" x="0px" y="0px"
	 viewBox="0 0 414.3 147.3" style="enable-background:new 0 0 414.3 147.3;" xml:space="preserve">
<style type="text/css">
	.st0{fill:url(#SVGID_1_);}
	.st1{fill:url(#SVGID_2_);}
	.st2{fill:url(#SVGID_3_);}
	.st3{fill:url(#SVGID_4_);}
	.st4{fill:url(#SVGID_5_);}
	.st5{fill:#1D1D1B;}
</style>
<g>
	<g>
		<g>
			
				<linearGradient id="SVGID_1_" gradientUnits="userSpaceOnUse" x1="56.0971" y1="95.503" x2="92.8125" y2="58.7874" gradientTransform="matrix(1 0 0 -1 0 150.7833)">
				<stop  offset="0" style="stop-color:#DC2A15"/>
				<stop  offset="1" style="stop-color:#6D2D5C"/>
			</linearGradient>
			<path class="st0" d="M74.4,99.6c-3.5,0-6.9-0.7-10.1-2c-3.1-1.3-5.9-3.2-8.3-5.6c-2.4-2.4-4.3-5.2-5.6-8.3c-1.4-3.2-2-6.6-2-10.1
				s0.7-6.9,2-10.1c1.3-3.1,3.2-5.9,5.6-8.3s5.2-4.3,8.3-5.6c3.2-1.4,6.6-2,10.1-2s6.9,0.7,10.1,2c3.1,1.3,5.9,3.2,8.3,5.6
				c1.1,1.1,1.1,3,0,4.1s-3,1.1-4.1,0c-1.9-1.9-4-3.3-6.4-4.3c-2.5-1.1-5.1-1.6-7.9-1.6c-2.7,0-5.4,0.5-7.9,1.6
				c-2.4,1-4.6,2.5-6.4,4.3c-1.9,1.9-3.3,4-4.3,6.4c-1.1,2.5-1.6,5.1-1.6,7.9c0,2.7,0.5,5.4,1.6,7.9c1,2.4,2.5,4.6,4.3,6.4
				c1.9,1.9,4,3.3,6.4,4.3c2.5,1.1,5.1,1.6,7.9,1.6c2.7,0,5.4-0.5,7.9-1.6c2.4-1,4.6-2.5,6.4-4.3c1.1-1.1,3-1.1,4.1,0s1.1,3,0,4.1
				c-2.4,2.4-5.2,4.3-8.3,5.6C81.3,98.9,77.9,99.6,74.4,99.6z"/>
		</g>
		<g>
			
				<linearGradient id="SVGID_2_" gradientUnits="userSpaceOnUse" x1="47.9333" y1="103.5666" x2="100.9333" y2="50.5667" gradientTransform="matrix(1 0 0 -1 0 150.7833)">
				<stop  offset="0" style="stop-color:#DC2A15"/>
				<stop  offset="1" style="stop-color:#6D2D5C"/>
			</linearGradient>
			<path class="st1" d="M74.4,111.1c-5.1,0-10-1-14.6-2.9c-4.5-1.9-8.5-4.6-11.9-8s-6.1-7.5-8-11.9c-2-4.6-2.9-9.5-2.9-14.6
				s1-10,2.9-14.6c1.9-4.5,4.6-8.5,8-11.9c1.1-1.1,3-1.1,4.1,0s1.1,3,0,4.1c-2.9,2.9-5.2,6.3-6.8,10.1c-1.7,3.9-2.5,8.1-2.5,12.3
				c0,4.3,0.8,8.4,2.5,12.3c1.6,3.8,3.9,7.2,6.8,10.1c2.9,2.9,6.3,5.2,10.1,6.8c3.9,1.7,8.1,2.5,12.3,2.5c4.3,0,8.4-0.8,12.3-2.5
				c3.8-1.6,7.2-3.9,10.1-6.8c2.9-2.9,5.2-6.3,6.8-10.1c1.7-3.9,2.5-8.1,2.5-12.3c0-4.3-0.8-8.4-2.5-12.3c-1.6-3.8-3.9-7.2-6.8-10.1
				c-2.9-2.9-6.3-5.2-10.1-6.8c-1.5-0.6-2.2-2.3-1.5-3.8c0.6-1.5,2.3-2.2,3.8-1.5c4.5,1.9,8.5,4.6,11.9,8s6.1,7.5,8,11.9
				c2,4.6,2.9,9.5,2.9,14.6s-1,10-2.9,14.6c-1.9,4.5-4.6,8.5-8,11.9s-7.5,6.1-11.9,8C84.4,110.2,79.5,111.1,74.4,111.1z"/>
		</g>
		<g>
			
				<linearGradient id="SVGID_3_" gradientUnits="userSpaceOnUse" x1="39.7333" y1="111.8667" x2="109.1334" y2="42.4666" gradientTransform="matrix(1 0 0 -1 0 150.7833)">
				<stop  offset="0" style="stop-color:#DC2A15"/>
				<stop  offset="1" style="stop-color:#6D2D5C"/>
			</linearGradient>
			<path class="st2" d="M74.4,122.7c-6.6,0-13-1.3-19.1-3.9c-5.8-2.5-11.1-6-15.6-10.5s-8-9.7-10.5-15.6c-2.6-6-3.9-12.5-3.9-19.1
				s1.3-13,3.9-19.1c2.5-5.8,6-11.1,10.5-15.6s9.7-8,15.6-10.5c1.5-0.6,3.2,0.1,3.8,1.5c0.6,1.5-0.1,3.2-1.5,3.8
				c-5.2,2.2-9.8,5.3-13.8,9.3s-7.1,8.6-9.3,13.8c-2.3,5.3-3.4,11-3.4,16.8s1.1,11.5,3.4,16.8c2.2,5.2,5.3,9.8,9.3,13.8
				s8.6,7.1,13.8,9.3c5.3,2.3,11,3.4,16.8,3.4s11.5-1.1,16.8-3.4c5.2-2.2,9.8-5.3,13.8-9.3s7.1-8.6,9.3-13.8
				c2.3-5.3,3.4-11,3.4-16.8s-1.1-11.5-3.4-16.8C112.1,51.6,109,47,105,43c-1.1-1.1-1.1-3,0-4.1s3-1.1,4.1,0
				c4.5,4.5,8,9.7,10.5,15.6c2.6,6,3.9,12.5,3.9,19.1s-1.3,13-3.9,19.1c-2.5,5.8-6,11.1-10.5,15.6s-9.7,8-15.6,10.5
				C87.4,121.4,81,122.7,74.4,122.7z"/>
		</g>
		<g>
			
				<linearGradient id="SVGID_4_" gradientUnits="userSpaceOnUse" x1="30.1674" y1="118.5201" x2="115.7673" y2="32.9201" gradientTransform="matrix(1 0 0 -1 0 150.7833)">
				<stop  offset="0" style="stop-color:#DC2A15"/>
				<stop  offset="1" style="stop-color:#6D2D5C"/>
			</linearGradient>
			<path class="st3" d="M74.4,134.2c-8.2,0-16.1-1.6-23.6-4.8c-7.2-3.1-13.7-7.4-19.3-13c-5.6-5.6-9.9-12-13-19.3
				c-3.2-7.5-4.8-15.4-4.8-23.6c0-8.2,1.6-16.1,4.8-23.6c3.1-7.2,7.4-13.7,13-19.3s12-9.9,19.3-13c7.5-3.2,15.4-4.8,23.6-4.8
				c1.6,0,2.9,1.3,2.9,2.9s-1.3,2.9-2.9,2.9c-7.4,0-14.6,1.4-21.3,4.3c-6.5,2.8-12.4,6.7-17.4,11.7S26.7,45.5,24,52
				c-2.9,6.8-4.3,13.9-4.3,21.3s1.4,14.6,4.3,21.3c2.8,6.5,6.7,12.4,11.7,17.4s10.9,9,17.4,11.7c6.8,2.9,13.9,4.3,21.3,4.3
				s14.6-1.4,21.3-4.3c6.5-2.8,12.4-6.7,17.4-11.7s9-10.9,11.7-17.4c2.9-6.8,4.3-13.9,4.3-21.3c0-7.4-1.4-14.6-4.3-21.3
				c-0.6-1.5,0.1-3.2,1.5-3.8c1.5-0.6,3.2,0.1,3.8,1.5c3.2,7.5,4.8,15.4,4.8,23.6c0,8.2-1.6,16.1-4.8,23.6
				c-3.1,7.2-7.4,13.7-13,19.3s-12,9.9-19.3,13C90.5,132.6,82.6,134.2,74.4,134.2z"/>
		</g>
		<g>
			
				<linearGradient id="SVGID_5_" gradientUnits="userSpaceOnUse" x1="21.6636" y1="126.3998" x2="123.5665" y2="24.4969" gradientTransform="matrix(1 0 0 -1 0 150.7833)">
				<stop  offset="0" style="stop-color:#DC2A15"/>
				<stop  offset="1" style="stop-color:#6D2D5C"/>
			</linearGradient>
			<path class="st4" d="M74.4,145.8c-9.7,0-19.2-1.9-28.1-5.7c-8.6-3.6-16.3-8.8-22.9-15.5c-6.6-6.6-11.8-14.3-15.5-22.9
				c-3.8-8.9-5.7-18.3-5.7-28.1c0-9.7,1.9-19.2,5.7-28.1c3.6-8.6,8.8-16.3,15.5-22.9C30,16,37.7,10.8,46.3,7.1
				c8.9-3.8,18.3-5.7,28.1-5.7c9.7,0,19.2,1.9,28.1,5.7c1.5,0.6,2.2,2.3,1.5,3.8s-2.3,2.2-3.8,1.5C92,8.9,83.3,7.2,74.4,7.2
				c-9,0-17.6,1.8-25.8,5.2c-7.9,3.3-15,8.1-21.1,14.2S16.6,39.8,13.3,47.7c-3.5,8.2-5.2,16.9-5.2,25.8c0,9,1.8,17.6,5.2,25.8
				c3.3,7.9,8.1,15,14.2,21.1s13.2,10.9,21.1,14.2c8.2,3.5,16.9,5.2,25.8,5.2c9,0,17.6-1.8,25.8-5.2c7.9-3.3,15-8.1,21.1-14.2
				c6.1-6.1,10.9-13.2,14.2-21.1c3.5-8.2,5.2-16.9,5.2-25.8c0-1.6,1.3-2.9,2.9-2.9c1.6,0,2.9,1.3,2.9,2.9c0,9.7-1.9,19.2-5.7,28.1
				c-3.6,8.6-8.8,16.3-15.5,22.9c-6.6,6.6-14.3,11.8-22.9,15.5C93.6,143.8,84.1,145.8,74.4,145.8z"/>
		</g>
	</g>
</g>
<g>
	<g>
		<path class="st5" d="M166.9,30V18.6c0-7.4,5.6-12,13-12c6.6,0,12.2,3.8,12.2,10.4v1.5h-4.4v-0.9c0-4.5-3.6-6.8-7.9-6.8
			c-4.3,0-8.3,2.6-8.3,7.8v11.1c0,4.7,3.7,7.6,8.5,7.6c4.3,0,7.7-2.3,7.7-6.8v-0.6h4.4v1.2c0,6.7-5.5,10.4-12.1,10.4
			C172.8,41.3,166.9,37.4,166.9,30z"/>
		<path class="st5" d="M206.9,7.2h4.3l12.4,33.6h-4.8l-3.1-8.9h-13.4l-3.2,8.9h-4.6L206.9,7.2z M214.2,28l-5.3-15.2l0,0L203.5,28
			H214.2z"/>
		<path class="st5" d="M231.3,11.2h-10.5V7.3h25.5v3.9h-10.4v29.6h-4.6V11.2z"/>
		<path class="st5" d="M255.7,7.2h4.3l12.4,33.6h-4.8l-3.1-8.9h-13.4l-3.2,8.9h-4.6L255.7,7.2z M263.1,28l-5.3-15.2l0,0L252.3,28
			H263.1z"/>
		<path class="st5" d="M275.9,7.2h4.6v29.5h17v4.1h-21.6V7.2z"/>
		<path class="st5" d="M300.4,29.6V7.2h4.6v21.7c0,5.4,3.1,8.2,8.1,8.2c5.1,0,8.1-2.9,8-8.1V7.2h4.6v22c0,7.6-5.1,12-12.7,12
			C306.1,41.3,300.4,37.6,300.4,29.6z"/>
		<path class="st5" d="M331.6,7.2h4.6l16.4,25.6h0.1V7.2h4.4v33.6h-4.5L336.2,15h-0.1v25.8h-4.4V7.2H331.6z"/>
		<path class="st5" d="M371.1,27l-11-19.7h5.1l8.2,15.3l8.1-15.3h5l-11,19.8v13.7H371L371.1,27L371.1,27z"/>
		<path class="st5" d="M396.2,7.2h4.3l12.4,33.6h-4.8l-3.1-8.9h-13.4l-3.2,8.9h-4.6L396.2,7.2z M403.6,28l-5.3-15.3l0,0l-5.4,15.2
			h10.7V28z"/>
		<path class="st5" d="M167,56.8h24.7v6.8h-16.3V70h13.7v6.8h-13.7v6.7h16.4v6.9H167L167,56.8L167,56.8z"/>
		<path class="st5" d="M195.9,56.8h8.1l12.8,18.9h0.1V56.8h7.8v33.5h-7.8l-13.1-19.7h-0.1v19.7h-7.8L195.9,56.8L195.9,56.8z"/>
		<path class="st5" d="M238.9,78.8V68.6c0-8.2,6.7-12.3,14.1-12.3c6.5,0,13.6,3.3,13.6,11v1.6h-7.9v-0.8c0-3.5-3-5-5.5-5
			c-3,0-5.8,1.6-5.8,5.4v10.2c0,3.4,2.5,5.4,5.9,5.4c2.6,0,5.5-1.5,5.5-5v-0.8h7.9v1.6c0,7.7-6.9,11-13.4,11
			C245.8,90.9,238.9,87.2,238.9,78.8z"/>
		<path class="st5" d="M269.3,78.6v-9.7c0-8.5,7-12.7,14.1-12.7c7.5,0,14.4,4,14.4,12.6v9.3c0,8.7-7.2,12.7-14.2,12.7
			C276.1,90.9,269.3,87.3,269.3,78.6z M289.4,78.5v-9.9c0-3.5-2.8-5.5-5.9-5.5c-3,0-5.8,1.6-5.8,5.5v9.8c0,3.6,2.5,5.5,5.9,5.5
			C286.6,84,289.4,82.3,289.4,78.5z"/>
		<path class="st5" d="M301.7,56.8h10.4l6.8,17.3h0.1l6.7-17.3H336v33.5h-7.8V69h-0.1l-6.4,16.8h-5.8L309.5,69h-0.1v21.3h-7.8
			L301.7,56.8L301.7,56.8z"/>
		<path class="st5" d="M340.5,78.4V56.8h8.4v21.1c0,3.8,2,6.1,5.7,6.1c3.5,0,5.5-2.1,5.5-6.1V56.8h8.2v21.3
			c0,8.4-6.2,12.8-14.1,12.8C345.8,90.9,340.5,86.9,340.5,78.4z M355.9,45.9h7.7l-6.4,8.4h-5.3L355.9,45.9z"/>
		<path class="st5" d="M167,106.4h15.2c7.4,0,11.7,4.6,11.7,10.8c0,5.5-3.4,11.1-11.6,11.1h-6.9v11.6H167V106.4z M180.8,121.9
			c3,0,4.9-1.8,4.9-4.5c0-2.9-1.9-4.4-4.9-4.4h-5.4v8.9H180.8z"/>
		<path class="st5" d="M196.1,128.2v-9.7c0-8.5,7-12.7,14.1-12.7c7.5,0,14.4,4,14.4,12.6v9.3c0,8.7-7.2,12.7-14.2,12.7
			C203,140.5,196.1,136.9,196.1,128.2z M216.3,128.1v-9.9c0-3.5-2.8-5.5-5.9-5.5c-3,0-5.8,1.6-5.8,5.5v9.8c0,3.6,2.5,5.5,5.9,5.5
			C213.4,133.6,216.3,131.9,216.3,128.1z"/>
		<path class="st5" d="M228.5,106.4h14c7.5,0,13.7,4,13.7,11.8v9.4c0,8.3-6.6,12.3-13.6,12.3h-14.1V106.4z M242,133.1
			c3.1,0,5.7-1.9,5.7-5.4v-9.2c0-3.2-2.6-5.2-6-5.2h-4.9v19.8H242z"/>
		<path class="st5" d="M260,106.4h24.7v6.8h-16.3v6.4h13.7v6.8h-13.7v6.7h16.4v6.9H260L260,106.4L260,106.4z"/>
		<path class="st5" d="M288.9,106.4h10.4l6.8,17.3h0.1l6.7-17.3h10.3v33.5h-7.8v-21.3h-0.1l-6.4,16.8h-5.8l-6.4-16.8h-0.1v21.3h-7.8
			L288.9,106.4L288.9,106.4z"/>
	</g>
</g>
</svg>
