<?xml version="1.0" encoding="UTF-8" standalone="no"?>
<!-- Created with Inkscape (http://www.inkscape.org/) -->

<svg
   xmlns:dc="http://purl.org/dc/elements/1.1/"
   xmlns:cc="http://creativecommons.org/ns#"
   xmlns:rdf="http://www.w3.org/1999/02/22-rdf-syntax-ns#"
   xmlns:svg="http://www.w3.org/2000/svg"
   xmlns="http://www.w3.org/2000/svg"
   xmlns:sodipodi="http://sodipodi.sourceforge.net/DTD/sodipodi-0.dtd"
   xmlns:inkscape="http://www.inkscape.org/namespaces/inkscape"
   id="svg4206"
   version="1.1"
   inkscape:version="0.91 r13725"
   width="400"
   height="400"
   viewBox="0 0 400 400"
   sodipodi:docname="IU-UP.svg">
  <metadata
     id="metadata4212">
    <rdf:RDF>
      <cc:Work
         rdf:about="">
        <dc:format>image/svg+xml</dc:format>
        <dc:type
           rdf:resource="http://purl.org/dc/dcmitype/StillImage" />
        <dc:title></dc:title>
      </cc:Work>
    </rdf:RDF>
  </metadata>
  <defs
     id="defs4210" />
  <sodipodi:namedview
     pagecolor="#ffffff"
     bordercolor="#666666"
     borderopacity="1"
     objecttolerance="10"
     gridtolerance="10"
     guidetolerance="10"
     inkscape:pageopacity="0"
     inkscape:pageshadow="2"
     inkscape:window-width="1366"
     inkscape:window-height="744"
     id="namedview4208"
     showgrid="false"
     inkscape:zoom="1.0730345"
     inkscape:cx="174.89752"
     inkscape:cy="234.55333"
     inkscape:window-x="0"
     inkscape:window-y="24"
     inkscape:window-maximized="1"
     inkscape:current-layer="g4672" />
  <g
     id="g4672"
     transform="matrix(0.10270214,0,0,0.10270215,96.4521,324.34442)">
    <path
       id="path3596-5"
       d="m 220.97563,-588.47468 0,39.55718 -2.32111,206.9434 116.99712,0 c 3.58319,-0.27168 7.19069,-0.45035 10.84344,-0.45035 78.19742,0 141.58831,63.39087 141.58831,141.58828 0,78.1974 -63.39089,141.588303 -141.58831,141.588303 -3.62722,0 -7.2097,-0.18243 -10.76838,-0.450368 l -120.01111,0 C 214.8047,30.258802 210.56921,98.302534 198.50928,169.41128 l 193.47859,0 c 212.24163,0 384.29544,-169.6576331 384.29544,-378.94299 0,-209.28537 -172.05381,-378.94297 -384.29544,-378.94297 l -171.01224,0 z"
       style="fill:#813c8f;fill-opacity:1;fill-rule:evenodd;stroke:none;stroke-width:1.7005198px;stroke-linecap:butt;stroke-linejoin:miter;stroke-opacity:1"
       inkscape:connector-curvature="0" />
    <path
       sodipodi:nodetypes="ccsssccccsssccc"
       inkscape:connector-curvature="0"
       id="path3596-4"
       d="m -862.87759,-590.91706 -4.7e-4,627.527967 c -0.96092,11.429809 0,22.935713 0,34.585836 0,251.156037 225.79522,438.495297 506.32214,438.495297 280.526924,0 506.3213,-187.33926 506.3213,-438.495297 0,-11.732053 0.97485,-23.319802 0,-34.828341 l 3.6e-4,-627.285462 -305.20414,0 0,615.70296 c 0.38731,5.105861 0.64091,10.246051 0.64091,15.451035 0,111.427415 -90.331,201.758405 -201.75843,201.758405 -111.4274,0 -201.75266,-90.33099 -201.75266,-201.758405 0,-5.168631 0.25916,-10.270403 0.64091,-15.341332 l 0,-615.812663 z"
       style="fill:#df0209;fill-opacity:1;fill-rule:evenodd;stroke:none;stroke-width:2.04936099px;stroke-linecap:butt;stroke-linejoin:miter;stroke-opacity:1" />
    <path
       sodipodi:nodetypes="cccc"
       inkscape:connector-curvature="0"
       id="path3657"
       d="M 166.90276,266.54525 C 123.404,392.76708 45.845957,451.28651 -36.140666,500.53263 l 203.043426,0 z"
       style="fill:#019839;fill-opacity:1;fill-rule:evenodd;stroke:none;stroke-width:2.88436198px;stroke-linecap:butt;stroke-linejoin:miter;stroke-opacity:1" />
    <path
       sodipodi:nodetypes="ccsccccccc"
       inkscape:connector-curvature="0"
       id="path3659"
       d="m 856.07239,-536.04828 3.03126,303.33202 c 2.16471,106.55059 78.23183,158.243021 155.89355,157.38891 77.5344,-0.852729 156.6583,-54.07986 165.4186,-157.38891 l -1.5155,-303.33202 -102.6642,0 1.5156,306.78508 c -3.0731,75.17008 -118.66964,78.80915 -117.10129,3.57483 l 1.51561,-310.35991 z"
       style="fill:#5a5a5c;fill-opacity:1;fill-rule:evenodd;stroke:none;stroke-width:2.88436198px;stroke-linecap:butt;stroke-linejoin:miter;stroke-opacity:1" />
    <path
       sodipodi:nodetypes="ccccccccccc"
       inkscape:connector-curvature="0"
       id="path3661"
       d="m 1246.4908,-536.04828 0,449.942577 97.5254,-3.5e-5 -2.1435,-257.832222 126.4615,257.832222 100.7405,0 0,-449.942542 -95.3819,0 1.0718,250.24897 -118.9596,-250.24897 z"
       style="fill:#5a5a5c;fill-opacity:1;fill-rule:evenodd;stroke:none;stroke-width:2.88436198px;stroke-linecap:butt;stroke-linejoin:miter;stroke-opacity:1" />
    <path
       sodipodi:nodetypes="ccccc"
       inkscape:connector-curvature="0"
       id="rect3663"
       d="m 1636.0565,-536.04828 108.2423,0 0,449.942542 -108.2423,0 z"
       style="fill:#5a5a5c;fill-opacity:1;stroke:none" />
    <path
       id="rect3663-6"
       d="m 1805.3863,-536.04498 0,449.942552 177.9035,0 0,-0.118356 a 147.87026,224.97126 0 0 0 1.5823,0.118356 147.87026,224.97126 0 0 0 147.8705,-224.971302 147.87026,224.97126 0 0 0 -147.8705,-224.97125 147.87026,224.97126 0 0 0 -1.5823,0.0891 l 0,-0.0891 -177.9035,0 z m 134.4825,102.98676 c 42.4454,-0.61406 85.004,7.4979 91.1118,119.45675 1.0304,126.84795 -74.8511,123.52601 -121.1029,125.12446 l 1.0717,-243.92952 c 9.3335,0.0982 19.1243,-0.50998 28.9194,-0.65169 z"
       style="fill:#5a5a5c;fill-opacity:1;stroke:none;stroke-width:1;stroke-miterlimit:4;stroke-dasharray:none"
       inkscape:connector-curvature="0" />
    <path
       id="path4503"
       d="m 2264.6128,-536.04498 -113.6008,449.942552 105.0272,0 19.2908,-94.791262 101.8122,0 23.5775,94.791262 108.2425,0 -113.601,-449.942552 -130.7484,0 z m 63.2309,101.11068 31.0795,147.87438 -62.159,-1.26387 31.0795,-146.61051 z"
       style="fill:#5a5a5c;fill-opacity:1;fill-rule:evenodd;stroke:none;stroke-width:1px;stroke-linecap:butt;stroke-linejoin:miter;stroke-opacity:1"
       inkscape:connector-curvature="0" />
    <path
       id="rect3663-6-4"
       d="m 2542.9703,-536.04828 0,449.942542 177.9035,0 0,-0.118356 a 147.87026,224.97126 0 0 0 1.5823,0.118356 147.87026,224.97126 0 0 0 147.8705,-224.971292 147.87026,224.97126 0 0 0 -147.8705,-224.97125 147.87026,224.97126 0 0 0 -1.5823,0.0891 l 0,-0.0891 -177.9035,0 z m 134.4825,102.98673 c 42.4455,-0.61405 85.004,7.49791 91.1118,119.45676 1.0304,126.84795 -74.8512,123.526 -121.1029,125.12447 l 1.0719,-243.92952 c 9.3333,0.098 19.1241,-0.51001 28.9192,-0.65171 z"
       style="fill:#5a5a5c;fill-opacity:1;stroke:none;stroke-width:1;stroke-miterlimit:4;stroke-dasharray:none"
       inkscape:connector-curvature="0" />
    <path
       id="rect4523"
       d="m 882.58933,86.353647 0,0.01074 -9.2197,0 0,395.008553 47.16205,0 0,-170.91716 110.40222,1.8892 0,-0.54397 c 41.2171,-5.53686 73.4228,-53.19901 73.4228,-111.1852 0,-57.98636 -32.2056,-105.638465 -73.4228,-111.175322 l 0,-0.553861 -8.0391,0 -102.36312,-1.849642 0,-0.672598 -37.39806,0 -0.54429,-0.01074 z m 37.94235,45.053663 91.52732,1.7903 0,0.17776 c 23.8903,0.0253 43.2497,30.1157 43.2515,67.22939 0,37.11753 -19.3586,67.21542 -43.2515,67.23931 l 0,0.18788 -91.52732,-1.79028 0,-134.83466 z"
       style="fill:#5a5a5c;fill-opacity:1;stroke:none;stroke-width:1;stroke-miterlimit:4;stroke-dasharray:none"
       inkscape:connector-curvature="0" />
    <path
       id="path4528"
       d="m 1274.7832,84.306201 c -73.7064,0 -133.4556,57.016239 -133.4556,196.633889 0,151.01201 59.7492,196.6437 133.4556,196.6437 73.7064,0 132.5185,-57.02473 133.4556,-196.6437 0.8775,-130.75058 -59.7492,-196.633889 -133.4556,-196.633889 z m 0,38.970669 c 50.4292,0 91.9099,52.81087 91.3096,157.61373 -0.6412,111.91155 -40.8804,157.61374 -91.3096,157.61374 -50.4293,0 -91.3095,-36.56984 -91.3095,-157.61374 0,-111.91032 40.8802,-157.61373 91.3095,-157.61373 z"
       style="fill:#5a5a5c;fill-opacity:1;stroke:none;stroke-width:0.34199595;stroke-miterlimit:4;stroke-dasharray:none"
       inkscape:connector-curvature="0" />
    <path
       sodipodi:nodetypes="ccccccccsccccccccccsccccc"
       id="rect4523-9"
       d="m 1482.0299,86.354732 0,0.01073 -9.2198,0 0,395.008578 47.1622,0 0,-170.91714 110.4019,1.88919 0,-0.54395 c 41.2172,-5.53692 73.4229,-53.19898 73.4229,-111.18519 0,-57.98638 -32.2057,-105.63853 -73.4229,-111.175386 l 0,-0.553873 -8.0387,0 -102.3632,-1.849631 0,-0.672598 -37.398,0 z m 37.9424,45.053658 91.5272,1.79031 0,0.17775 c 23.8904,0.0253 43.2496,30.11573 43.2514,67.22944 0,37.11757 -19.3585,67.21547 -43.2514,67.23935 l 0,0.18787 -91.5272,-1.79034 0,-134.83466 z"
       style="fill:#5a5a5c;fill-opacity:1;stroke:none;stroke-width:1;stroke-miterlimit:4;stroke-dasharray:none"
       inkscape:connector-curvature="0" />
    <path
       id="rect4523-9-9"
       d="m 2626.246,86.353647 0,0.01074 -9.2198,0 0,395.008553 47.162,0 0,-170.91716 73.3222,1.25618 73.7913,169.66098 46.0902,0 -75.9767,-170.93695 c 37.8889,-9.58493 66.598,-55.07985 66.598,-109.82019 0,-57.98639 -32.2057,-105.638455 -73.4228,-111.175312 l 0,-0.553861 -8.039,0 -102.3632,-1.849642 0,-0.672598 -37.398,0 -0.5442,-0.01074 z m 37.9422,45.053663 91.5272,1.7903 0,0.17776 c 23.8904,0.0253 43.2497,30.1157 43.2515,67.22939 0,37.11758 -19.3584,67.21542 -43.2515,67.23931 l 0,0.18788 -91.5272,-1.79028 0,-134.83466 z"
       style="fill:#5a5a5c;fill-opacity:1;stroke:none;stroke-width:1;stroke-miterlimit:4;stroke-dasharray:none"
       inkscape:connector-curvature="0" />
    <path
       sodipodi:nodetypes="ccsccccccsccccc"
       inkscape:connector-curvature="0"
       id="rect4622"
       d="m 1957.4327,85.812596 0,305.747734 c -0.8957,30.25188 -44.7935,41.95167 -77.678,41.95167 -32.8924,0 -77.8701,-15.50747 -77.6893,-41.97132 l 0,-305.362151 -45.0773,-6.56e-4 0,309.863127 0,0.57361 0.017,0 c 0.4325,48.33081 55.2155,84.75925 122.7494,84.75925 67.7049,0 122.6008,-36.62525 122.7581,-85.12516 l 0.014,0 0,-0.20753 0,-310.228479 z"
       style="fill:#5a5a5c;fill-opacity:1;stroke:none;stroke-width:1;stroke-miterlimit:4;stroke-dasharray:none" />
    <path
       sodipodi:nodetypes="ccccc"
       inkscape:connector-curvature="0"
       id="rect4661"
       d="m 2086.7209,86.177873 45.0183,0 0,395.195987 -45.0183,0 z"
       style="fill:#5a5a5c;fill-opacity:1;stroke:none;stroke-width:1;stroke-miterlimit:4;stroke-dasharray:none" />
    <path
       sodipodi:nodetypes="ccccc"
       inkscape:connector-curvature="0"
       id="rect4663"
       d="m 2103.8708,435.79587 173.6421,0 0,45.57799 -173.6421,0 z"
       style="fill:#5a5a5c;fill-opacity:1;stroke:none;stroke-width:1;stroke-miterlimit:4;stroke-dasharray:none" />
    <path
       id="path4667"
       d="m 2399.7056,86.363535 -105.0428,395.008545 42.8745,0 34.2997,-121.54108 115.7615,0 32.1559,121.54108 50.3776,0 -111.4739,-395.008545 -58.9525,0 z m 28.9403,46.843965 49.3058,182.31164 -97.5397,0 48.2339,-182.31164 z"
       style="fill:#5a5a5c;fill-opacity:1;fill-rule:evenodd;stroke:none;stroke-width:1px;stroke-linecap:butt;stroke-linejoin:miter;stroke-opacity:1"
       inkscape:connector-curvature="0" />
    <g
       transform="matrix(75.866818,0,0,-75.866813,-365.79313,-1395.2618)"
       id="g3157"
       style="fill-opacity:1;fill:#df0209">
      <path
         id="path3159"
         style="fill-opacity:1;fill-rule:nonzero;stroke:none;fill:#df0209"
         d="m 0,0 0,-5.389 13.628,0 0,5.408 -2.227,0 0,12.821 L 0,12.84 0,7.5 2.149,7.5 2.149,0 0,0"
         inkscape:connector-curvature="0" />
    </g>
    <g
       transform="matrix(75.866818,0,0,-75.866813,533.45643,-2780.5136)"
       id="g3161">
      <path
         id="path3163"
         style="fill:#df0209;fill-opacity:1;fill-rule:nonzero;stroke:none"
         d="m 0,0 c 0,-2.481 -2.617,-4.514 -5.807,-4.514 -3.22,0 -5.837,2.033 -5.837,4.514 0,2.471 2.617,4.513 5.837,4.513 C -2.617,4.513 0,2.471 0,0"
         inkscape:connector-curvature="0" />
    </g>
    <g
       transform="matrix(75.866818,0,0,-75.866813,205.02881,-1561.3345)"
       id="g3165"
       style="fill:#df0209;fill-opacity:1">
      <path
         id="path3167"
         style="fill:#df0209;fill-opacity:1;fill-rule:nonzero;stroke:none"
         d="m 0,0 c 3.03,2.69 6.129,5.326 9.054,8.133 0.745,0.715 1.517,1.401 2.259,2.12 0.514,0.499 1.062,1.321 1.732,1.601 0.656,0.273 1.826,0.089 2.526,0.029 0.53,-0.044 1.839,-0.025 1.997,-0.677 C 17.737,10.516 16.913,9.494 16.532,9.004 15.885,8.17 15.235,7.339 14.598,6.496 13.42,4.94 12.348,3.32 11.249,1.708 10.794,1.041 10.491,0.239 10.758,-0.574 c 0.132,-0.402 0.544,-0.904 1.007,-0.904 0.996,0 2.271,1.692 2.863,2.395 0.645,0.766 1.289,1.534 1.924,2.308 2.819,3.441 5.638,6.883 8.455,10.324 0.795,0.97 1.655,2.406 2.887,1.027 1.164,-1.3 0.307,-2.66 -0.438,-3.87 C 26.261,8.759 20.475,0.499 24.358,-0.715 26.275,-1.313 29.474,4.106 30.2,3.38 31.371,2.209 29.55,0.091 28.938,-0.853 27.266,-3.427 23.065,-9.668 19.28,-6.848 c -0.78,0.581 -1.074,1.531 -1.217,2.451 -0.082,0.529 -0.154,1.089 -0.154,1.625 0,0.372 0.095,0.886 -0.068,1.294 -1.008,-1.39 -1.954,-2.86 -3.04,-4.188 -0.812,-0.993 -1.867,-1.971 -3.218,-1.971 -0.937,0 -1.809,0.704 -2.443,1.303 C 8.157,-5.405 7.06,-4.14 6.828,-2.753 6.559,-1.135 6.624,0.445 6.624,2.082 5.976,1.855 5.154,1.221 4.577,0.804 3.457,-0.003 2.337,-0.811 1.217,-1.62 0.885,-1.86 0.377,-2.382 0.121,-1.771 -0.037,-1.391 -0.455,-0.279 0,0"
         inkscape:connector-curvature="0" />
    </g>
  </g>
</svg>
