<?xml version="1.0" encoding="UTF-8" standalone="no"?>
<!-- Created with Inkscape (http://www.inkscape.org/) -->

<svg
   width="182.52478mm"
   height="180.88774mm"
   viewBox="0 0 182.52479 180.88774"
   version="1.1"
   id="svg1"
   xml:space="preserve"
   sodipodi:docname="Icono EAJ-PNV 2025.svg"
   inkscape:version="1.3 (0e150ed6c4, 2023-07-21)"
   xmlns:inkscape="http://www.inkscape.org/namespaces/inkscape"
   xmlns:sodipodi="http://sodipodi.sourceforge.net/DTD/sodipodi-0.dtd"
   xmlns:xlink="http://www.w3.org/1999/xlink"
   xmlns="http://www.w3.org/2000/svg"
   xmlns:svg="http://www.w3.org/2000/svg"><sodipodi:namedview
     id="namedview1"
     pagecolor="#ffffff"
     bordercolor="#666666"
     borderopacity="1.0"
     inkscape:showpageshadow="2"
     inkscape:pageopacity="0.0"
     inkscape:pagecheckerboard="0"
     inkscape:deskcolor="#d1d1d1"
     inkscape:document-units="mm"
     inkscape:zoom="0.70710678"
     inkscape:cx="389.61584"
     inkscape:cy="376.88791"
     inkscape:window-width="1920"
     inkscape:window-height="991"
     inkscape:window-x="-9"
     inkscape:window-y="-9"
     inkscape:window-maximized="1"
     inkscape:current-layer="layer1" /><defs
     id="defs1"><linearGradient
       id="linearGradient5"
       inkscape:collect="always"><stop
         style="stop-color:#bf1925;stop-opacity:1;"
         offset="0"
         id="stop5" /><stop
         style="stop-color:#745a30;stop-opacity:1;"
         offset="0.5"
         id="stop7" /><stop
         style="stop-color:#066c44;stop-opacity:1;"
         offset="1"
         id="stop6" /></linearGradient><linearGradient
       inkscape:collect="always"
       xlink:href="#linearGradient5"
       id="linearGradient6"
       x1="456.76462"
       y1="-57.61787"
       x2="540.48413"
       y2="-57.61787"
       gradientUnits="userSpaceOnUse" /><linearGradient
       inkscape:collect="always"
       xlink:href="#linearGradient5"
       id="linearGradient7"
       gradientUnits="userSpaceOnUse"
       x1="491.35727"
       y1="-57.61787"
       x2="511.05167"
       y2="-57.61787" /><linearGradient
       inkscape:collect="always"
       xlink:href="#linearGradient5"
       id="linearGradient8"
       gradientUnits="userSpaceOnUse"
       x1="456.76462"
       y1="-57.61787"
       x2="540.48413"
       y2="-57.61787" /></defs><g
     inkscape:label="Capa 1"
     inkscape:groupmode="layer"
     id="layer1"
     transform="translate(-626.33162,-39.556382)"><g
       id="g2"
       transform="translate(219.02152,186.53228)"
       style="fill:url(#linearGradient8)" /><g
       id="g8"
       transform="matrix(1.6475186,0,0,1.6475186,-464.65552,-84.177591)"><g
         id="g7"
         style="fill:url(#linearGradient6);fill-opacity:1"
         transform="translate(219.02152,186.53228)"><g
           id="g1"
           transform="translate(17.584661,-188.82572)"
           style="fill:#bf1925;fill-opacity:1"><path
             style="fill:#bf1925;fill-opacity:1"
             d="m 440.45515,167.00549 c -0.22917,2.86802 -0.56127,3.02477 -2.30166,1.0864 -3.4389,-3.83011 -7.7499,-11.66385 -9.716,-17.65544 -2.25683,-6.87761 -3.23548,-14.48884 -2.7002,-21.00036 1.03109,-12.54299 5.22785,-23.0349 12.89358,-32.233984 7.51149,-9.013994 18.56075,-15.768081 30.28601,-18.512951 9.47789,-2.218763 22.72731,-1.503737 28.78334,1.553337 4.95695,2.502261 9.05186,7.547491 10.27803,12.66329 0.54949,2.292565 0.54623,6.048819 -0.007,8.359338 -1.39124,5.80779 -6.07141,10.98983 -12.07079,13.36518 -5.40581,2.14034 -9.97961,2.13656 -20.90208,-0.0173 -3.38441,-0.66739 -4.96648,-0.83154 -9.05364,-0.93938 -7.30685,-0.19279 -11.18237,0.54365 -16.51268,3.13782 -7.9948,3.89093 -13.70283,9.59697 -16.91996,16.91402 -1.77335,4.03333 -2.04445,6.34782 -1.27167,10.85657 0.49273,2.87486 1.32382,5.33609 2.78831,8.25753 1.27165,2.53675 3.308,5.74587 3.64604,5.74587 0.38487,0 0.60185,-0.4572 1.50682,-3.175 z"
             id="path1"
             sodipodi:nodetypes="cssssssscsssssssscc" /></g><path
           style="fill:#066c44;fill-opacity:1"
           d="m 714.9116,184.83503 c -9.96386,-0.41239 -14.36857,-1.95823 -19.05578,-6.68764 -2.62919,-2.65286 -3.87441,-4.70013 -4.92489,-8.09706 -0.88118,-2.84943 -0.84178,-6.98319 0.0937,-9.83368 2.19698,-6.69434 7.48056,-11.48553 14.74036,-13.36665 4.30063,-1.11436 8.67279,-0.90062 17.69815,0.86522 10.48722,2.05185 18.40337,1.42903 25.59464,-2.01371 8.92952,-4.2749 15.3048,-11.15815 18.12764,-19.57201 0.8,-2.38452 0.83517,-2.65615 0.68501,-5.29167 -0.27407,-4.81059 -1.77639,-9.32881 -4.73227,-14.2323 -2.14346,-3.55577 -2.31425,-3.53969 -3.63083,0.34168 -0.70556,-2.36658 -0.92627,-10.653187 -0.58496,-13.829371 0.93528,-0.3589 5.32563,5.624985 8.08095,11.014031 4.0448,7.9111 5.98457,16.06679 5.98457,25.1619 0,15.44315 -5.7849,29.24092 -16.70349,39.84006 -5.8061,5.63623 -11.43097,9.26423 -18.87762,12.17592 -7.09791,2.77533 -14.10032,3.87271 -22.49493,3.52527 z"
           id="path2"
           sodipodi:nodetypes="ssssssssssccssssss"
           transform="translate(-219.02152,-186.53228)" /><path
           style="fill:url(#linearGradient7);fill-opacity:1"
           d="m 540.48416,-79.585605 c -1.42657,4.20564 -2.49567,6.63646 -3.96521,9.01572 -5.16821,8.36761 -14.32568,13.926479 -25.05318,15.401489 -2.87752,0.39565 -9.33217,0.44628 -16.13959,0.12659 -7.33917,-0.34466 -12.23524,0.36033 -17.67699,2.5453 -12.23046,4.91079 -18.37515,14.685329 -19.66477,30.824569 l -1.3616,-11.297569 c 2.12717,-6.38834 4.35703,-10.70042 7.90507,-14.41173 4.98075,-5.20996 11.13017,-8.54915 18.76145,-10.18764 4.50417,-0.96708 6.39088,-1.03884 18.12252,-0.68926 6.64923,0.19814 7.37034,0.17391 10.41699,-0.34999 10.93424,-1.88027 19.04467,-7.288409 23.32391,-15.765529 1.99975,-3.9615 3.5063,-9.78044 4.04448,-15.62157 0.22806,-2.475238 0.398,-3.303113 0.70196,-3.419755 z"
           id="path1-5"
           sodipodi:nodetypes="cssssccsssssscc" /></g><g
         id="g3"
         transform="translate(236.60618,-2.2934363)" /></g></g></svg>
