<svg id="Capa_1" data-name="Capa 1" xmlns="http://www.w3.org/2000/svg" viewBox="0 0 595.28 595.28"><defs><style>.cls-1{fill:#0fddc4;}.cls-2{fill:#004732;}</style></defs><title>logo_MP_final</title><rect class="cls-1" x="-22.52" y="-23" width="640.78" height="641.28"/><path class="cls-2" d="M128,191.88l31.95,78h1.27l31.95-78h23.86V299.5H198.34V225.56h-1L167.6,299.19h-14l-29.75-73.78h-1V299.5h-18.7V191.88Z"/><path class="cls-2" d="M231.94,276.85c0-18.18,15-22.86,30.64-24.54,14.24-1.52,20-1.78,20-7.25v-.32c0-7.93-4.83-12.45-13.66-12.45-9.3,0-14.66,4.73-16.56,10.25L234.57,240c4.21-14.71,17.24-22.28,34.21-22.28,15.4,0,32.79,6.41,32.79,27.75v54H283.29V288.41h-.63c-3.47,6.78-11,12.72-23.7,12.72C243.56,301.13,231.94,292.72,231.94,276.85Zm50.66-6.3V261c-2.47,2-12.45,3.25-17.44,3.94-8.52,1.21-14.88,4.25-14.88,11.56,0,7,5.68,10.61,13.61,10.61C275.35,287.15,282.6,279.53,282.6,270.55Zm-8.51-86.4h18.66l-16.14,24H262.37Z"/><path class="cls-2" d="M363.51,242c-1.47-5.31-6.1-10.09-14.87-10.09-7.94,0-14,3.79-13.93,9.25,0,4.68,3.2,7.52,11.4,9.36l13.77,2.94c15.24,3.31,22.65,10.35,22.7,21.86-.05,15.29-14.29,25.75-34.47,25.75-19.81,0-32.27-8.78-34.63-23.6L332,275.7c1.63,7.25,7.3,11,16,11,9,0,15-4.15,15-9.67,0-4.57-3.47-7.56-10.88-9.19L338.44,265c-15.5-3.21-22.76-11-22.7-22.76-.06-14.92,13.19-24.49,32.63-24.49,18.92,0,29.85,8.73,32.48,22.39Z"/><path class="cls-2" d="M230.19,326.69h11.44v12.24H243c2.61-4,7.23-13.25,22.28-13.25,19.46,0,32.91,15.46,32.91,39.74,0,24.48-13.45,39.94-32.71,39.94-14.85,0-19.87-9.24-22.48-13.45h-1v40.74H230.19Zm33.71,68c14.85,0,22.48-13.05,22.48-29.5,0-16.26-7.43-28.9-22.48-28.9-14.45,0-22.07,11.64-22.07,28.9C241.83,382.68,249.65,394.72,263.9,394.72Z"/><path class="cls-2" d="M312.66,381.88c0-17.67,15.6-20.83,29.9-22.68,14.05-1.81,19.87-1.31,19.87-7v-.4c0-9.88-5.37-15.65-16.25-15.65-11.29,0-17.46,6-20.07,11.64l-11.24-4c6-14.05,19.27-18.07,30.9-18.07,9.84,0,28.5,2.81,28.5,27.3v50.77H362.43V393.31h-.6c-2.41,5-9.43,12.25-22.88,12.25C324.3,405.56,312.66,396.93,312.66,381.88Zm49.77-6V365c-2,2.41-15.45,3.81-20.47,4.41-9.23,1.21-17.46,4-17.46,13.05,0,8.23,6.82,12.44,16.26,12.44C354.8,394.92,362.43,385.49,362.43,375.86Z"/><path class="cls-2" d="M395.94,326.69h11.84v77.06H395.94ZM408.78,293h13.85L407,316.25H396.54Z"/><path class="cls-2" d="M473.4,347c-2.06-5.32-6.32-11-16.66-11-9.43,0-16.45,4.82-16.45,11.44,0,5.92,4.11,9,13.24,11.24L465,361.41c13.75,3.36,20.47,10.13,20.47,20.87,0,13.29-12.19,23.08-30.1,23.08-15.76,0-26.54-7-29.3-20.07l11.24-2.81c2.1,8.28,8.17,12.44,17.86,12.44,11,0,18.06-5.42,18.06-12,0-5.32-3.66-9-11.44-10.84l-12.85-3c-14.14-3.31-20.46-10.43-20.46-21.07,0-13,12-22.28,28.29-22.28C472,325.68,480.32,333,484,344Z"/></svg>