<svg xmlns="http://www.w3.org/2000/svg" viewBox="477.1491935483871 559.382678 1532.258064516129 919.7520000000001" version="1.1" style="max-height: 500px" width="1532.258064516129" height="919.7520000000001">
<defs>
<linearGradient gradientUnits="userSpaceOnUse" gradientTransform="matrix(8.881 0 0 8.8776 .08881 -4776.1)" y2="705.82" y1="765.24" x2="112.73" x1="112.73" id="a">
<stop offset="0" stop-color="#80288f"/>
<stop offset="1" stop-color="#ec1a52"/>
</linearGradient>
</defs>
<g>
<path fill="#c10f19" d="m494.67 1466.6v-220.16l213.14-218.39v439.44h-213.14zm426.29-7.1016v-657.83l213.14-218.39v876.21zm426.29 0v-876.21l213.14 218.39v657.83zm435.17 1.7773v-439.44l213.14 218.39v220.16h-213.14z"/>
<path d="m148.31 163.36h-91.473v-35.512h84.367v-42.609h-84.367v-35.512h91.473v-41.727h-148.31v204.19h148.31zm69.273-40.836l30.195 8.875c10.656 3.5508 16.871 7.1016 16.871 16.867 0 12.43-14.207 15.98-31.082 15.98-23.09-0.88672-45.293-7.9883-63.941-20.418v47.938c20.426 10.656 42.625 15.98 64.828 15.98 44.406 0 81.707-19.531 81.707-63.031 0-30.184-16.875-49.715-53.285-60.367l-30.195-9.7656c-10.66-3.5508-16.875-7.1016-16.875-15.977 0-8.8789 10.656-14.207 26.641-14.207 21.316 0 42.629 7.1016 60.395 19.531v-48.824c-18.652-10.656-40.855-15.094-62.168-14.207-42.629 0-74.602 22.195-74.602 61.258-0.88672 34.621 17.762 49.715 51.512 60.367zm218.47-122.51c-59.504 0-100.36 44.387-100.36 105.64 0 61.254 40.852 104.75 100.36 104.75 13.32 0 27.531-2.6641 39.961-8.8789l15.988 19.531 31.973-25.742-15.098-18.645c17.762-20.418 27.527-46.164 27.527-72.797 0-60.367-41.738-103.87-100.35-103.87zm40.852 138.49l-15.098-18.641-31.973 24.855 15.984 19.531c-3.5508 0.88672-6.2148 1.7773-9.7656 0.88672-27.531 0-46.184-25.742-46.184-60.367 0-34.621 18.652-57.703 46.184-57.703s46.18 23.969 46.18 57.703c-0.88672 11.543-1.7773 23.082-5.3281 33.734zm206.93-19.527c-2.6641 28.406-15.984 43.5-38.188 43.5-22.203 0-35.523-15.094-31.973-43.5v-118.07h-55.949v121.62c-0.88672 55.926 34.637 86.109 87.922 86.109 53.285 0 88.809-31.07 87.922-87v-113.63h-49.734zm225.58 44.387h-91.473v-35.512h84.367v-42.609h-84.367v-35.512h91.473v-41.727h-148.31v204.19h148.31zm193.61-92.328c0-44.387-31.082-69.242-74.602-69.242h-91.473v204.18h55.949v-63.918h19.539l44.406 63.027h52.395l-47.957-72.793c25.758-9.7656 42.629-34.625 40.855-62.145v0.88672zm-82.594 29.297h-32.859v-49.715h32.859c18.652 0 26.645 9.7656 26.645 24.859 0 15.09-7.1055 23.969-26.645 24.855zm228.24 105.64h52.398l-47.957-72.797c25.754-9.7656 42.629-34.621 40.852-62.145 0-44.387-31.082-69.242-74.602-69.242h-91.473v204.18h55.949v-63.918h19.539zm-71.047-155.36h33.746c18.652 0 26.645 9.7656 26.645 24.859 0 15.09-8.8828 24.855-26.645 24.855h-33.746zm271.76 112.75l15.984 42.613h51.512l-78.152-204.18h-55.062l-78.152 204.18h49.73l15.988-42.613zm-39.965-99.43l21.312 56.816h-42.629zm-1248.7 328.47c0-42.613-30.195-66.582-71.938-66.582h-88.809v197.08h55.949v-63.031h19.539l44.406 63.031h46.18l-46.18-71.023c25.754-9.7656 41.738-33.734 40.852-59.477zm-71.047 24.855h-32.859v-49.715h33.746c18.648 0 26.645 9.7656 26.645 24.859 0 15.09-7.9961 23.969-27.531 24.855zm101.24 105.64h148.31v-42.613h-92.363v-35.512h84.371v-41.723h-84.371v-35.512h91.477v-48.828h-148.31zm269.09-197.08h-93.25v204.18h55.949v-63.918h37.301c44.406 0 73.711-24.859 73.711-70.133 0-45.277-30.195-71.023-73.711-70.133zm-7.1055 91.438h-30.195v-49.715h30.195c19.539 0 27.531 9.7656 27.531 24.859 0 15.09-8.8789 23.969-27.531 24.855zm223.8 21.305c-0.88672 28.41-14.207 43.5-36.41 43.5-22.203 0-35.523-15.09-33.75-43.5v-119.85h-55.949v123.4c0.89062 55.93 37.301 87 90.586 87 53.285 0 88.812-31.07 86.145-87v-124.29h-49.73zm206.93-21.305c17.762-7.1016 28.418-24.855 27.531-43.5 0-37.285-25.758-55.93-68.387-55.93h-87.922v204.18h94.141c41.742 0 68.383-19.531 68.383-56.816 0-21.305-14.211-40.836-33.746-47.938zm-72.824-49.715h29.305c15.098 0 22.203 6.2148 22.203 17.754 0 11.543-7.9922 17.758-22.203 17.758h-29.305zm38.188 119.85h-38.188v-42.613h38.188c15.984 0 24.867 7.9922 24.867 21.309-0.89062 12.426-11.547 22.191-24.867 21.305zm151.86-162.46h-56.836v204.18h148.31v-48.824h-91.477zm112.79 204.18h55.953v-204.18h-55.953zm172.29 0c21.312 2.6641 42.629-2.6602 60.391-13.316v-52.375c-14.211 10.652-31.086 15.98-47.957 15.98-33.75 0-55.953-21.309-55.953-55.93-1.7734-28.41 19.539-53.266 47.961-55.93h7.9922c17.762 0 34.637 5.3281 47.957 15.98v-52.379c-15.988-8.875-33.75-14.203-52.398-13.316-66.609 0-111.01 48.828-104.8 118.96 7.9922 50.602 47.07 88.773 96.805 92.324zm153.64-204.18l-78.152 204.18h49.734l15.984-42.609h79.039l15.988 42.609h50.621l-78.152-204.18zm4.4414 119.85l21.312-56.816 21.316 56.816zm275.31-14.203l-75.488-112.75h-51.508v204.18h49.734v-118.07l80.816 118.96h46.18v-204.19h-49.734zm199.82-105.64h-54.176l-78.152 204.18h49.734l15.984-42.609h79.043l15.984 42.609h51.512zm-47.957 119.85l20.426-56.816 21.312 56.816z"/>
<path fill="url(#a)" d="m1.7773 1489.7h1998.2v527.33h-1998.2z"/>
<path fill="#fff" d="m1063.1 1512.7h3.5547c2.6641 8.8789 5.3281 17.754 7.1016 27.52 3.5547 9.7656 3.5547 21.309 7.1055 31.074 7.1055 24.855 10.656 49.711 17.762 74.57 1.7773 12.43 6.2188 23.969 8.8828 36.398 2.6641 12.426 6.2148 24.855 9.7695 38.172-4.4414 2.6641-8.8828 4.4414-14.211 5.3281-10.656 3.5508-22.203 4.4375-32.859 7.9883-3.5508 1.7773-7.1055 1.7773-10.656 0-0.89062-2.6641-1.7773-6.2148-1.7773-8.875-2.6641-12.43-2.6641-23.973-5.3281-36.398-10.656 0.88672-21.316 3.5508-31.973 7.1016-2.6641 2.6641-3.5508 6.2148-3.5508 9.7656-0.89062 13.316-2.6641 27.52-5.3281 40.836-14.211 2.6641-28.422 7.1016-42.629 9.7656-4.4414 1.7734-8.8828 2.6641-14.211 3.5508-11.547 0.88672-21.316 5.3242-32.859 7.1016-7.1055 1.7773-15.098 3.5508-23.09 3.5508-4.4414-10.652-7.9922-21.305-11.547-31.957-3.5508-7.9922-6.2148-15.98-8.8789-23.973-2.6641-8.875-6.2188-17.754-10.66-25.742-2.6641 0-1.7734 2.6602-2.6641 5.3242 0.89063 5.3281 0.89063 9.7656 0.89063 15.094-1.7773 23.082 0 47.051-0.89063 70.133-9.7695 2.6641-19.539 5.3242-29.305 7.1016-10.66 2.6641-20.43 5.3242-30.195 7.1016-1.7773-5.3281-2.6641-10.652-1.7773-15.98v-204.18c4.4414-1.7734 9.7695-2.6641 14.211-3.5508 7.9922-0.88672 15.098-3.5508 23.09-5.3281 6.2148-0.88672 11.543-2.6602 17.762-4.4375 6.2148-1.7734 12.434-2.6641 18.648-4.4375 6.2188-1.7773 12.434-2.6641 19.539-3.5508 8.8828-2.6641 17.762-2.6641 26.645 0.88672 6.2148 1.7734 12.434 6.2148 15.984 11.539 7.1055 10.656 11.547 22.195 11.547 34.625 0.88672 13.316 0 26.633-2.668 39.059-0.88672 6.2148-3.5508 11.543-6.2148 16.871-5.3281 6.2109-11.547 11.539-19.539 15.977v4.4414c6.2188 9.7656 8.8828 20.418 14.211 30.184 2.6641 5.3242 5.3281 10.652 7.1055 15.977 2.6641 6.2148 5.3281 12.43 8.8789 18.645 1.7773-4.4375 2.6641-8.8789 2.6641-13.316 2.6641-11.539 5.3281-23.969 7.1055-35.512 5.3281-21.305 7.9922-42.609 13.32-64.805 3.5547-12.43 4.4414-24.855 7.9961-36.398 4.4375-20.418 7.9922-40.836 12.434-61.254 12.434-3.5508 24.863-6.2148 37.297-8.8789 10.66-1.7734 20.43-4.4375 31.086-7.1016m-33.75 79.898c-0.88672 4.4375 0 8.8789-1.7734 13.316-1.7773 7.1016-2.6641 15.09-2.6641 22.195-1.7773 7.9883-2.6641 16.867-3.5547 24.855 7.1055-1.7773 14.211-2.6641 21.316-3.5508 0.88672-3.5508 0.88672-7.9883 0-12.43-2.6641-9.7656-1.7773-20.418-4.4414-30.184-2.6641-11.539-3.5547-23.082-4.4414-34.621-5.3281 6.2148-1.7773 14.203-4.4414 20.418m-165.18 14.203c-0.89063 12.43 0 25.746 0 39.062 8.8789-2.6641 19.535-1.7773 25.754-9.7656 1.7773-7.9883 2.6641-16.867 0.88672-24.859 0-3.5508-1.7734-6.2109-4.4414-7.9883-8.8789-0.88672-17.762-2.6641-22.199 3.5508z"/>
<path fill="#fff" d="m1218.5 1582c15.984-4.4414 32.859-7.1016 49.734-11.543 0.88672 1.7773 2.6641 3.5508 1.7734 6.2148-0.88672 8.8789-0.88672 18.645 0 27.52v7.9922c-0.88672 2.6641-3.5508 3.5508-6.2148 5.3242-3.5508-1.7734-7.9922 0.89062-12.434 1.7773-10.656 2.6641-20.426 4.4375-31.082 7.9883-6.2188 0.89062-13.324 2.6641-19.539 4.4414-7.1055 0.88672-14.211 2.6602-21.316 5.3242-9.7656 2.6641-20.426 4.4414-31.082 7.1016h-8.8828l1.7773 1.7773h-8.8789v-42.613c4.4375-2.6641 9.7695-4.4375 15.098-4.4375 4.4375-0.88672 8.8789-2.6641 14.207-3.5508 4.4414-0.89062 8.8828-1.7773 13.324-3.5508 3.5508-0.89062 7.9922-0.89062 12.434-1.7773 10.656-4.4375 20.426-6.2148 31.082-7.9883z"/>
<path fill="#fff" d="m761.1 1582.9c7.1055-1.7773 14.211-3.5508 21.312-3.5508 0.89063 1.7734 0.89063 4.4375 0.89063 6.2148v192.64c-0.89063 5.3281 0 11.543 0.88672 16.871-1.7773 1.7734-2.6641 5.3242-5.3281 5.3242-5.3281 0.88672-9.7695 1.7773-15.098 2.6641-7.1055 2.6641-15.098 2.6641-22.203 5.3281-5.3281 2.6602-11.543 1.7734-15.984 4.4375l-3.5547-4.4375c1.7773-9.7656-0.88672-20.422 0.89062-30.188v-100.32c-1.7773-24.855 0-49.711 0-73.684 0-5.3242-0.89062-11.539 3.5508-15.09 2.6641 0 6.2188 0 8.8828-0.88672 7.9922-1.7773 16.871-2.6641 25.754-5.3281z"/>
<path fill="#fff" d="m652.75 1609.5c12.434-2.6641 24.867-0.88672 35.523 5.3281 6.2148 4.4375 11.547 10.652 15.098 16.867 0 3.5508 0.88672 7.1016 2.6641 10.652 1.7773 8.875 1.7773 18.641 0 27.52-1.7773 4.4375-2.6641 7.9883-2.6641 12.43-2.6641 3.5508-5.3281 7.1016-7.9922 10.652-5.3281 7.1016-12.434 12.43-20.426 15.09 4.4375 0.89062 7.9922 0.89062 12.434 2.6641 7.1016 2.6641 13.32 7.9922 15.984 15.094 3.5508 4.4375 5.3281 10.652 6.2148 15.98 2.6641 14.203 2.6641 29.293-0.88672 43.5-0.88672 4.4375-3.5508 7.9883-5.3281 12.426-7.1055 11.543-18.648 21.309-31.973 25.746-5.3281 2.6641-11.543 4.4375-17.762 5.3281-7.1055 2.6602-14.211 2.6602-21.312 5.3242-7.9961 0.88672-15.988 3.5508-23.094 5.3281-14.207 2.6641-29.305 6.2148-43.516 10.652l-3.5508-3.5508c0.88672-9.7656 0-18.645 0-28.41v-134.94c1.7734-16.867-0.89062-34.621 0-51.488 1.7734-1.7773 3.5508-2.6641 6.2148-3.5508 17.762-3.5547 35.523-8.8789 54.176-12.43 9.7695-2.6641 19.539-5.3281 30.195-6.2148m-30.195 49.715v43.5c4.4414-1.7773 7.9922-3.5508 12.434-4.4375 7.9922-1.7773 13.32-8.8789 13.32-16.871 0.88672-6.2109 0-13.312-0.88672-19.527-0.89062-3.5508-3.5547-5.3281-5.3281-7.9922-6.2188 2.6641-13.324 3.5508-19.539 5.3281m1.7734 86.113c-0.88672 1.7734-1.7734 4.4375-1.7734 7.1016v40.836c4.4414-1.7773 8.8789-2.6641 14.207-3.5508 3.5547-1.7773 6.2188-2.6641 9.7695-5.3281 1.7773-3.5508 3.5547-7.1016 3.5547-11.539 0.88672-7.9922 0-15.98-1.7773-23.969 0-1.7773-1.7773-3.5508-2.6641-5.3281-7.1055-0.88672-14.211 0-21.316 1.7773z"/>
<path fill="#fff" d="m468.92 1646.8c15.098-2.6641 30.195-2.6641 45.293 0 6.2148 1.7773 12.434 5.3281 17.762 8.8789 3.5508 3.5508 6.2148 7.9883 8.8789 12.43 0.89063 4.4375 2.6641 7.9883 4.4414 12.426 0.88672 5.3281 1.7773 11.543 1.7773 16.867v99.43c0 9.7656-1.7773 20.418-4.4414 30.184-5.3281 15.094-15.984 26.633-30.195 33.734-7.1055 3.5508-14.211 7.1016-21.316 9.7656-7.1016 0.88672-14.207 2.6641-21.312 4.4375h-31.082c-5.332-0.88672-9.7695-2.6602-15.098-4.4375-5.332-2.6641-9.7695-6.2148-14.211-9.7656-5.3281-6.2148-8.8828-14.203-10.656-22.191-1.7773-4.4414 0-8.8789-2.6641-12.43v-96.766c0-14.203 3.5508-29.297 8.8789-42.613 4.4414-7.9883 10.656-14.203 17.762-20.418 8.8828-5.3281 17.762-10.652 27.531-13.316 6.2188-3.5508 12.434-4.4375 18.652-6.2148m-8.8828 49.715c-0.88672 5.3281-1.7773 10.652-1.7773 16.867v104.75c0 4.4414 1.7773 8.8789 6.2188 10.656 6.2148 3.5508 14.211 0 19.539-3.5508 1.7734-3.5547 2.6641-7.9922 2.6641-12.43v-107.42c0-4.4414-0.89063-9.7656-3.5547-13.316-3.5508-1.7773-7.1055-2.6641-10.656-1.7773-4.4414 0.88672-8.8789 3.5508-12.434 6.2148z"/>
<path fill="#fff" d="m281.53 1692.1c11.547-4.4414 23.09-7.1016 35.523-9.7656 15.988-0.89062 32.859-1.7773 47.07 6.2148 7.1055 4.4375 13.32 10.652 16.875 17.754 4.4375 10.652 6.2148 22.195 6.2148 33.734 0 1.7773 0 4.4375-1.7773 5.3281-10.656 3.5508-21.312 6.2109-32.859 7.9883-7.1055 2.6641-15.098 4.4375-23.09 5.3281-1.7773-7.1055-2.6641-15.094-2.6641-22.195-0.88672-3.5508-1.7773-6.2148-4.4414-8.8789h-11.543c-3.5547 3.5508-7.9922 7.1016-7.9922 12.43-0.89062 7.9883 6.2148 13.316 11.543 16.867 7.9922 6.2148 16.875 9.7656 24.867 15.98 9.7695 6.2148 19.539 12.43 29.309 19.531 4.4375 4.4375 8.8789 8.875 12.434 15.09 6.2148 13.316 8.8789 28.41 7.9922 43.5-3.5547 4.4414-2.6641 9.7656-4.4414 15.094-4.4414 9.7656-11.547 18.641-20.426 24.855-8.8828 5.3281-18.652 10.652-29.309 14.203-9.7695 2.6641-19.539 4.4414-29.305 5.3281-4.4414 0-7.9961 0.88672-12.434 1.7773-9.7695-0.89062-18.652-2.6641-27.531-6.2148-7.1055-3.5508-12.434-8.8789-16.875-15.98-4.4414-7.1016-7.1055-15.094-7.1055-23.082v-21.305c3.5547-1.7773 7.9922-2.6641 12.434-3.5508 14.211-2.6641 29.309-7.1055 43.516-9.7656 1.7773-0.89062 4.4414-0.89062 4.4414 1.7734 0.89062 7.9922 0 15.98 0.89062 23.082 0.88672 3.5508 3.5508 6.2148 7.1016 7.1016 7.1055 0.89062 13.324-1.7734 16.875-7.9883 0.88672-6.2148 0.88672-12.43 0-18.645-4.4414-8.875-14.211-12.426-22.203-17.754-11.543-7.9883-23.09-14.203-33.746-23.082-4.4414-2.6641-7.9922-5.3281-10.656-8.8789-4.4414-5.3242-8.8828-11.539-11.547-17.754-2.6641-7.9883-3.5508-15.98-3.5508-24.855 0-8.8789 1.7734-18.645 5.3281-26.633 7.1055-11.543 18.648-21.309 31.082-26.633z"/>
<path fill="#fff" d="m1663.4 1616.6c9.7695-3.5508 20.426-6.2148 31.973-7.9883 6.2148-0.89062 11.543 0 17.762 0 6.2148 0 11.543 0 17.762 0.88672 9.7695 2.6641 17.762 7.1016 24.867 14.203 2.6641 3.5508 4.4414 7.9922 7.1055 11.543 5.3281 10.652 2.6641 23.082 4.4375 33.734 0 1.7734-0.88672 2.6641-0.88672 4.4375-14.211 1.7773-26.645 7.1016-40.852 8.8789-3.5547 0.88672-7.9922 2.6641-11.547 3.5508-2.6641 0.88672-4.4414-0.88672-6.2148-1.7773 0.88672-7.9883 0.88672-15.977-0.89062-23.969-0.88672-2.6641-3.5508-3.5508-6.2148-5.3242-4.4414-0.89062-8.8828 0.88672-12.434 3.5508-5.3281 4.4375-6.2188 11.539-3.5508 17.754 5.3281 5.3242 11.543 9.7656 17.762 13.316 10.656 7.1016 21.312 14.203 32.859 21.305 6.2148 3.5508 11.543 7.9922 16.871 12.43 5.332 4.4375 9.7695 9.7656 12.434 15.094 3.5547 7.1016 5.3281 15.09 5.3281 23.078v22.195c-1.7734 12.43-7.9922 24.859-17.762 32.848-12.434 9.7656-26.641 16.867-42.629 21.305-2.6641 0.89063-5.3281 0.89063-7.9922 0.89063-3.5508 1.7734-7.1055 2.6602-10.656 2.6602-5.3281 0-10.656 0.89062-15.984 1.7773-6.2188 0-12.434-0.88672-18.652-1.7773-12.434-2.6602-23.09-9.7656-30.195-20.418-2.6641-4.4375-3.5508-9.7656-6.2148-14.203 0-3.5508 0-7.9883-0.89062-11.539-0.88672-7.1055-0.88672-13.316-0.88672-20.422 9.7695-1.7734 19.539-5.3242 29.309-6.2109 6.2148-0.89062 12.434-3.5547 18.648-4.4414 5.3281 0 9.7695-4.4375 14.211-1.7734 0 7.9883 0 15.09 0.88672 23.082 0.88672 3.5508 2.6641 6.2109 5.3281 8.875h13.324c8.8789-8.875 9.7656-23.082 1.7734-31.957-4.4414-2.6641-8.8789-5.3281-12.434-8.8789-14.207-7.9883-27.531-16.867-40.852-26.633-4.4414-2.6641-8.8828-6.2148-11.547-11.539-3.5508-1.7773-5.3281-6.2148-7.1016-9.7656-5.332-13.316-7.9961-28.41-5.332-43.5 1.7773-7.1016 4.4414-14.207 7.9961-20.418 6.2148-11.543 17.762-20.422 31.082-24.859z"/>
<path fill="#fff" d="m1603 1632.6c3.5508-0.88672 7.1055-0.88672 10.656-0.88672v39.949c0 3.5508-2.6641 6.2109-6.2148 6.2109-8.8828 0.89062-16.875 3.5508-25.754 5.3281-7.9961 1.7773-15.988 3.5508-23.98 6.2148v41.723c6.2148 0 11.547-3.5508 16.875-3.5508 5.3281 0 12.434-3.5508 18.648-4.4375 2.6641 0 6.2188-1.7773 8.8828-2.6641 1.7734 0 4.4375 0.88672 6.2148 0.88672v42.613c-3.5508-0.88672-7.1055 0.88672-9.7695 2.6641-7.9922 0.88672-15.984 2.6641-23.977 4.4375-5.3281 1.7773-11.547 2.6641-16.875 3.5508v44.391c-0.88672 2.6602 2.6641 2.6602 3.5508 1.7734 10.66-2.6641 20.43-5.3242 31.086-7.1016 6.2148-0.88672 12.434-2.6641 17.762-5.3242l2.6641 2.6602v41.727c-1.7773 1.7734-3.5547 2.6641-6.2188 3.5508-8.8789 0.88672-17.762 4.4375-27.531 5.3242-6.2148 2.6641-12.43 3.5547-18.648 5.3281-13.32 2.6641-25.754 5.3281-39.078 8.8789-8.8789 2.6641-16.871 3.5508-25.754 4.4375v-205.07c-0.88672-6.2148 0-13.316 0.89062-19.531 16.871-3.5508 34.633-7.9922 51.508-11.543 11.547-3.5508 23.98-4.4375 35.523-8.875 7.1055 0 13.324-0.89062 19.539-2.6641z"/>
<path fill="#fff" d="m1470.7 1664.6c5.3281-1.7734 11.547-3.5508 16.875-4.4375l2.6641 3.5508c-0.88672 2.6641-0.88672 5.3281-0.88672 7.1016v31.961c-3.5547 2.6641-7.9922 4.4375-12.434 3.5508-4.4414 0.88672-9.7695 1.7734-14.211 3.5508-6.2148 0.88672-11.543 2.6641-17.762 4.4375v173.11c0 2.6641-0.88672 5.3281-0.88672 7.1016-10.66 2.6641-21.316 4.4414-31.973 7.1016-8.8828 1.7773-16.875 3.5508-24.867 6.2148l-3.5508-1.7734v-177.55c-15.098 1.7734-28.422 7.9883-43.52 7.9883-1.7734-5.3281-1.7734-10.652-0.88672-16.867v-21.305c0-1.7773 0-3.5547 1.7773-5.3281 8.8789-3.5508 18.648-5.3281 28.418-7.1016 22.203-6.2148 44.406-8.8789 65.719-15.98 11.547 0 23.09-4.4375 35.523-5.3281z"/>
<path fill="#fff" d="m1237.1 1716c17.762-6.2148 36.414-9.7656 55.953-9.7656 7.1016 0.88672 15.098 2.6641 22.199 5.3281l2.668 2.6602h3.5508c8.8789 7.1016 15.098 16.867 17.762 27.523 2.6641 9.7617 3.5508 20.418 0.88672 30.184-6.2148 0.88672-12.434 2.6602-18.648 4.4375-6.2188 1.7734-13.32 2.6641-20.426 4.4375-5.3281 1.7773-11.547 3.5508-16.875 4.4414-3.5508-7.1055-0.88672-15.094-2.6641-23.082-0.88672-4.4414-4.4414-7.9922-8.8789-8.8789-4.4414 0-8.8828 1.7773-13.324 4.4375-2.6641 3.5508-3.5508 7.9922-3.5508 13.316 3.5508 5.3281 7.9922 9.7656 12.434 13.316 6.2148 4.4414 13.32 8.8789 20.426 12.43 4.4414 2.6641 7.9922 6.2148 12.434 8.8789 4.4414 1.7734 7.9922 5.3242 11.543 7.9883h2.6641l6.2188 6.2148 2.6641-0.88672v3.5508c2.6641 0.88672 4.4414 2.6641 6.2148 4.4375 7.9961 9.7656 12.434 22.195 12.434 34.621 0 3.5547 1.7773 7.1055 1.7773 10.656-0.88672 5.3242-1.7773 10.652-2.6641 15.09-0.88672 5.3281-3.5508 11.543-6.2148 15.98-2.6641 2.6641-5.332 6.2148-7.1055 9.7656h-2.6641c-3.5547 7.1016-11.547 9.7656-18.652 14.203-10.656 2.6641-20.426 9.7656-31.082 8.8789l-2.6641 1.7734c-7.9922 0-15.098 2.6641-22.203 2.6641-8.8828 0-18.648-0.88672-27.531-2.6641-7.9922-3.5508-14.211-8.875-20.426-14.203-7.9922-13.316-11.547-29.297-10.656-45.273 0-1.7773 0-4.4414 1.7734-5.3281 5.332-2.6641 12.434-2.6641 17.762-4.4375 4.4414-1.7773 8.8828-2.6641 13.324-2.6641 8.8789-2.6641 17.762-3.5508 27.531-5.3281 0.88672 1.7773 1.7734 4.4414 1.7734 6.2148v21.305c2.668 3.5508 6.2188 6.2148 10.66 7.1055 5.3281-0.89062 9.7695-2.6641 14.207-6.2148 0.89062-4.4414 1.7773-8.8789 1.7773-13.316 0-3.5508-0.88672-7.1016-1.7773-10.652-1.7734-1.7773-3.5508-4.4414-5.3281-6.2148h-4.4414c-1.7734-2.6641-4.4375-4.4414-7.1016-6.2148-9.7695-5.3281-18.652-12.43-28.422-17.758-7.1055-4.4375-13.32-8.875-19.535-14.203-5.332-5.3242-9.7695-10.652-12.434-16.867-2.6641-7.1016-4.4414-14.203-5.332-22.191 0-3.5547 0-7.9922 0.89062-11.543 0-3.5508 0-6.2148 0.88672-9.7656 1.7773-8.8789 6.2188-17.754 12.434-23.969 2.6641-1.7773 4.4414-4.4375 7.1055-6.2148 0-0.88672 0.88672-0.88672 0.88672-1.7734 5.3281-5.3281 11.547-8.8789 17.762-12.43z"/>
<path fill="#fff" d="m1154.5 1736.5c8.8789-2.6641 17.762-4.4375 26.641-5.3281 2.6641 9.7656-0.88672 21.309 0.88672 31.074 0.89062 7.1016 0.89062 13.316 0.89062 20.418 0.88672 5.3242-1.7773 10.652-0.89062 15.98 0.89062 23.969 0.89062 47.051 0 71.02 0 17.754 0.89062 35.508 0 53.266-0.88672 10.652 2.668 22.191 0 32.848-10.656 1.7734-21.312 5.3242-31.969 7.1016-8.8828 2.6641-17.762 4.4375-26.645 7.1016l-3.5508-3.5508c0.88672-28.41 0-56.816 0.88672-85.227v-114.52c-1.7773-7.1016-0.88672-15.094 2.6641-22.195 7.1055-1.7734 15.098-3.5508 22.203-4.4375 1.7773-0.88672 5.3281-1.7734 8.8828-3.5508z"/>
<path fill="#fff" d="m1072.8 1756c7.1055-1.7773 14.211-3.5508 22.203-5.3281 1.7773 0.88672 3.5508 1.7773 4.4414 2.6641 0 3.5508 0 6.2148-0.89062 9.7656 0 2.6641 0.89062 5.3281 0.89062 7.9883v193.53c0 2.6641 0 5.3281 0.88672 7.9922l-3.5508 3.5508-37.301 7.9883c-6.2188 1.7773-11.547 2.6641-17.762 2.6641-1.7773-5.3281-3.5547-9.7656-5.332-15.094-1.7734-8.875-4.4375-17.754-7.9922-25.742-0.88672-2.6641-0.88672-6.2148-0.88672-8.8789l-2.6641-0.88672c-2.6641-12.43-6.2188-23.969-10.656-35.512-1.7773-5.3242-3.5547-11.539-5.3281-16.867-1.7773-6.2148-4.4414-13.316-5.332-20.418l-2.6641-1.7773c1.7773 7.1055 1.7773 15.094 0 23.082 0.89062 7.9922 0 15.98 0.89062 23.973v83.449c0 1.7734-0.89062 4.4375-1.7773 6.2109-1.7773-0.88672-4.4414-0.88672-6.2148 0-5.332 1.7773-10.66 1.7773-15.988 4.4414-7.9922 0.88672-15.098 2.6641-23.09 5.3242l-2.6641-0.88672-1.7773 1.7773-1.7773-4.4414v-197.97c0-6.2148 0-12.43-0.88672-18.645 1.7773-1.7734 3.5547-2.6602 5.3281-3.5508 12.434-3.5508 25.758-6.2148 38.188-9.7656 2.668-0.88672 5.332-0.88672 7.1055-0.88672l1.7773-2.6641c2.6641 1.7773 6.2148 3.5508 7.1055 7.1016 2.6641 10.656 7.1055 20.422 9.7695 31.074 2.6641 10.652 7.1055 17.754 8.8789 27.52 7.9922 18.645 12.434 39.062 18.652 57.703l2.6641 3.5508c-2.6641-45.273-0.89062-89.66-1.7773-134.94 9.7695-3.5508 18.648-6.2148 27.531-7.1016z"/>
<path fill="#fff" d="m905.86 1899.8c2.6641-0.88672 5.3281-1.7773 7.1016-0.88672 0.89062 2.6602 0.89062 4.4375 0.89062 7.1016v36.398c-2.6641 1.7734-5.3281 2.6602-7.9922 3.5508-15.988 2.6641-31.973 7.1016-47.961 10.652-5.3281 0.88672-11.543 2.6641-16.871 4.4375-8.8828 0.88672-16.875 3.5508-24.867 5.3281-5.3281 1.7734-11.547 1.7734-17.762 3.5508-5.3281 1.7734-11.547 2.6641-16.875 3.5508-1.7773 0.88672-3.5508 0-5.3281-0.88672-0.88672-13.316 0-27.523 0-40.84 3.5508-2.6602 7.9922-4.4375 11.547-4.4375 12.43-1.7734 23.977-6.2148 36.41-7.9883 12.434-1.7773 24.867-6.2148 37.301-7.9922 6.2148-2.6602 13.32-4.4375 20.426-5.3242 7.9922-3.5508 15.984-3.5508 23.98-6.2148z"/>
</g>
</svg>