<?xml version="1.0" encoding="UTF-8" standalone="no"?>
<!-- Created with Inkscape (http://www.inkscape.org/) -->

<svg
   xmlns:dc="http://purl.org/dc/elements/1.1/"
   xmlns:cc="http://creativecommons.org/ns#"
   xmlns:rdf="http://www.w3.org/1999/02/22-rdf-syntax-ns#"
   xmlns:svg="http://www.w3.org/2000/svg"
   xmlns="http://www.w3.org/2000/svg"
   xmlns:sodipodi="http://sodipodi.sourceforge.net/DTD/sodipodi-0.dtd"
   xmlns:inkscape="http://www.inkscape.org/namespaces/inkscape"
   version="1.1"
   id="svg2"
   width="570"
   height="500"
   viewBox="0 0 570 500"
   sodipodi:docname="Foro Asturias.svg"
   inkscape:version="0.92.3 (2405546, 2018-03-11)">
  <metadata
     id="metadata8">
    <rdf:RDF>
      <cc:Work
         rdf:about="">
        <dc:format>image/svg+xml</dc:format>
        <dc:type
           rdf:resource="http://purl.org/dc/dcmitype/StillImage" />
        <dc:title></dc:title>
      </cc:Work>
    </rdf:RDF>
  </metadata>
  <defs
     id="defs6" />
  <sodipodi:namedview
     pagecolor="#ffffff"
     bordercolor="#666666"
     borderopacity="1"
     objecttolerance="10"
     gridtolerance="10"
     guidetolerance="10"
     inkscape:pageopacity="0"
     inkscape:pageshadow="2"
     inkscape:window-width="1366"
     inkscape:window-height="705"
     id="namedview4"
     showgrid="false"
     inkscape:zoom="0.55625733"
     inkscape:cx="-89.174792"
     inkscape:cy="204.69616"
     inkscape:window-x="-8"
     inkscape:window-y="-8"
     inkscape:window-maximized="1"
     inkscape:current-layer="svg2" />
  <g
     id="g846"
     transform="matrix(2.0338027,0,0,2.0338027,-26.771067,-43.462359)">
    <path
       sodipodi:nodetypes="sccssscscscsssccssccscs"
       style="fill:#17375e;fill-opacity:1;stroke-width:1.33333337"
       d="M 103.64384,145.08992 C 97.901833,134.42768 81.984653,123.34085 69.047523,120.99249 l -5.16449,-0.93747 0.75602,-6.38348 c 1.51658,-12.80507 10.97271,-25.643341 23.57296,-32.004213 8.9149,-4.500428 23.642447,-5.071068 33.627977,-1.302962 13.67231,5.159332 24.69428,19.242879 26.90821,34.382485 0.74334,5.08314 0.54901,5.66667 -1.88706,5.66667 -4.67441,0 -16.82867,4.87007 -23.34727,9.355 -3.4378,2.36526 -8.13708,6.9982 -10.44286,10.29541 -2.30578,3.29721 -4.79672,6.84176 -5.53542,7.87675 -1.06901,1.49777 -1.86321,0.91601 -3.89175,-2.85076 z m 92.90669,-0.35915 C 190.38097,133.7535 175.41904,123.3592 162.38086,120.99249 l -5.16449,-0.93747 0.75602,-6.38348 c 1.66134,-14.027286 13.67069,-28.823374 27.38179,-33.73563 9.4945,-3.401581 23.77292,-2.644427 32.75504,1.736935 12.54656,6.120038 22.18683,19.422045 23.79985,32.839925 l 0.65306,5.43259 -7.65679,1.58148 c -12.83525,2.65108 -26.12768,12.88333 -34.04249,26.20526 -1.16525,1.9613 -1.75313,1.55215 -4.31232,-3.00133 z"
       id="path821"
       inkscape:connector-curvature="0" />
    <path
       sodipodi:nodetypes="cscccccccccccccccccccccsssccsscsccsscsccccsccccscccccccccccssccccccsscssscscsscccsscscccsscssscccsscssscccscsscsssscscsc"
       style="fill:#17375e;fill-opacity:1;stroke-width:1.33333337"
       d="m 18.098013,259.19129 c -0.30397,-0.30555 -0.55267,-18.15555 -0.55267,-39.66667 v -39.1111 h 26 26 v 6 6 h -18 -18 v 9.28505 9.28505 l 13,0.38162 13,0.38161 0.40639,6.33333 0.40639,6.33334 h -13.40639 -13.40639 v 17.20993 17.20993 l -7.44733,0.45674 c -4.09603,0.2512 -7.69603,0.20673 -8,-0.0988 z m 74.68634,-1.30152 c -12.94733,-5.88055 -18.50578,-18.89181 -17.64589,-41.30568 0.46006,-11.99204 1.07467,-15.19548 3.99781,-20.83724 4.14188,-7.99396 6.56763,-10.32968 14.43305,-13.8974 11.475737,-5.20535 27.255277,-3.15597 35.910997,4.66393 8.40322,7.59182 11.25925,15.97082 11.32782,33.23347 0.0499,12.55777 -0.3825,15.62525 -3.00709,21.33333 -6.28721,13.67374 -15.07919,19.27478 -30.25571,19.27478 -6.23309,0 -11.136227,-0.81887 -14.760987,-2.46519 z m 26.264367,-14.30583 c 2.12987,-2.04054 4.51693,-6.10334 5.30458,-9.02845 1.94411,-7.21991 0.99022,-28.47609 -1.49686,-33.3554 -3.14418,-6.16843 -8.63151,-9.47225 -15.48552,-9.32359 -12.603897,0.27338 -18.144327,9.98167 -17.460047,30.59462 0.3017,9.08834 1.05591,13.19262 3.06273,16.66666 5.58578,9.66974 18.350967,11.84636 26.075117,4.44616 z m 41.49662,15.7599 -7,-0.40302 v -39.35338 -39.35339 l 21.90724,0.42307 c 19.6649,0.37976 22.2836,0.70445 25.58428,3.17212 6.54342,4.89201 8.97034,9.38185 9.49527,17.56636 0.60763,9.47365 -2.22869,15.6697 -9.2428,20.19126 l -4.92267,3.17336 8.58934,17.14094 c 4.72414,9.42752 8.5897,17.29952 8.59016,17.49332 4.4e-4,0.1938 -3.74418,0.26692 -8.32138,0.16246 l -8.32218,-0.1899 -7.60778,-16.14343 -7.60777,-16.14343 h -6.69768 -6.69769 l -0.37316,16.33334 -0.37318,16.33333 z m 29,-45.989 c 4.98838,-2.52316 7.18295,-8.0036 5.38567,-13.44942 -1.89637,-5.74606 -5.96237,-7.4919 -17.4484,-7.4919 h -9.2706 v 11.33333 11.33333 l 9,-0.0196 c 4.95,-0.0107 10.5,-0.77837 12.33333,-1.70569 z m 51.23902,44.53493 c -11.80303,-5.36081 -18.36691,-18.99216 -18.36691,-38.14292 0,-26.36235 11.7232,-40.68385 33.28259,-40.65923 19.76357,0.0225 31.26536,12.2351 33.4383,35.50459 1.91111,20.46564 -6.04392,37.96945 -19.8835,43.75057 -6.92212,2.89154 -21.62168,2.65764 -28.47048,-0.45301 z m 23.56381,-12.52603 c 6.67436,-4.49293 8.43207,-9.16117 8.96816,-23.81814 0.53707,-14.68375 -2.05524,-23.07278 -8.41805,-27.24184 -4.53092,-2.96879 -14.09634,-3.02028 -18.5534,-0.0999 -6.46979,4.23917 -8.13287,9.46241 -8.13287,25.543 0,16.89015 2.06617,22.30609 10.04536,26.33127 6.21483,3.13512 10.66583,2.9375 16.0908,-0.71438 z M 18.044843,164.74685 c 1.88974,-13.88507 11.60203,-26.79652 24.67063,-32.79696 8.93792,-4.10384 24.93745,-3.94635 34.52335,0.33983 13.04173,5.83138 24.306517,21.75605 24.306517,34.36132 v 4.42914 H 59.364113 17.182883 Z m 92.833837,2.38335 c 0,-6.49539 5.06896,-18.0409 10.75854,-24.5046 2.99845,-3.40643 8.6743,-7.70152 12.95554,-9.80388 10.2864,-5.05127 25.37326,-5.27435 35.9794,-0.532 13.04172,5.83138 24.30652,21.75605 24.30652,34.36132 v 4.42914 h -42 -42 z m 93.33333,0 c 0,-6.49539 5.06896,-18.0409 10.75855,-24.5046 2.99844,-3.40643 8.67429,-7.70152 12.95553,-9.80388 10.2864,-5.05127 25.37327,-5.27435 35.9794,-0.532 13.04172,5.83138 24.30652,21.75605 24.30652,34.36132 v 4.42914 h -42 -42 z M 150.29958,94.402994 C 146.8027,87.909666 134.68947,76.769671 127.82305,73.732327 124.67467,72.33965 119.50111,70.78481 116.32624,70.277129 l -5.77249,-0.923058 0.754,-6.366341 c 1.51455,-12.787996 10.97738,-25.629586 23.57093,-31.987074 8.9149,-4.500428 23.64244,-5.071068 33.62797,-1.302963 13.66759,5.157555 25.50759,20.272062 26.59588,33.951324 l 0.41652,5.235498 -6.65352,1.529804 c -13.32023,3.06264 -25.74796,11.89972 -32.18733,22.887675 -1.86244,3.178 -3.49279,5.77818 -3.62302,5.77818 -0.13026,0 -1.37024,-2.10473 -2.7556,-4.67718 z"
       id="path819"
       inkscape:connector-curvature="0" />
  </g>
</svg>
