<?xml version="1.0" encoding="UTF-8" standalone="no"?>
<!-- Created with Inkscape (http://www.inkscape.org/) -->

<svg
   xmlns:dc="http://purl.org/dc/elements/1.1/"
   xmlns:cc="http://creativecommons.org/ns#"
   xmlns:rdf="http://www.w3.org/1999/02/22-rdf-syntax-ns#"
   xmlns:svg="http://www.w3.org/2000/svg"
   xmlns="http://www.w3.org/2000/svg"
   xmlns:sodipodi="http://sodipodi.sourceforge.net/DTD/sodipodi-0.dtd"
   xmlns:inkscape="http://www.inkscape.org/namespaces/inkscape"
   width="110.50403mm"
   height="127mm"
   viewBox="0 0 110.50403 127"
   version="1.1"
   id="svg8"
   inkscape:version="0.92.3 (2405546, 2018-03-11)"
   sodipodi:docname="logofr.svg">
  <defs
     id="defs2">
    <clipPath
       id="clipPath4557"
       clipPathUnits="userSpaceOnUse">
      <path
         inkscape:connector-curvature="0"
         id="path4555"
         d="M 0,1190.55 H 841.89 V 0 H 0 Z" />
    </clipPath>
  </defs>
  <sodipodi:namedview
     id="base"
     pagecolor="#ffffff"
     bordercolor="#666666"
     borderopacity="1.0"
     inkscape:pageopacity="0.0"
     inkscape:pageshadow="2"
     inkscape:zoom="0.24748737"
     inkscape:cx="781.91336"
     inkscape:cy="1573.2485"
     inkscape:document-units="mm"
     inkscape:current-layer="layer1"
     showgrid="false"
     fit-margin-top="0"
     fit-margin-left="0"
     fit-margin-right="0"
     fit-margin-bottom="0"
     inkscape:window-width="1920"
     inkscape:window-height="1025"
     inkscape:window-x="0"
     inkscape:window-y="27"
     inkscape:window-maximized="1" />
  <metadata
     id="metadata5">
    <rdf:RDF>
      <cc:Work
         rdf:about="">
        <dc:format>image/svg+xml</dc:format>
        <dc:type
           rdf:resource="http://purl.org/dc/dcmitype/StillImage" />
        <dc:title></dc:title>
      </cc:Work>
    </rdf:RDF>
  </metadata>
  <g
     inkscape:label="Capa 1"
     inkscape:groupmode="layer"
     id="layer1"
     transform="translate(332.31466,-156.59897)">
    <g
       transform="matrix(0.16257696,0,0,-0.16257696,-345.57266,326.38339)"
       inkscape:label="Logotip_Oficial_Front_Republica"
       id="g4545">
      <g
         transform="translate(315.2607,394.2785)"
         id="g4547">
        <path
           inkscape:connector-curvature="0"
           id="path4549"
           style="fill:#343838;fill-opacity:1;fill-rule:nonzero;stroke:none"
           d="M 0,0 H 25.757 V 36.073 H 62.739 V 56.705 H 25.757 V 67.021 H 79.868 V 92.778 H 0 Z" />
      </g>
      <g
         id="g4551">
        <g
           clip-path="url(#clipPath4557)"
           id="g4553">
          <g
             transform="translate(454.3633,445.923)"
             id="g4559">
            <path
               inkscape:connector-curvature="0"
               id="path4561"
               style="fill:#343838;fill-opacity:1;fill-rule:nonzero;stroke:none"
               d="m 0,0 c -1.73,-1.774 -3.851,-2.66 -6.358,-2.66 h -19.334 v 18.037 h 19.334 c 2.507,0 4.628,-0.888 6.358,-2.66 C 1.772,10.942 2.66,8.823 2.66,6.358 2.66,3.85 1.772,1.729 0,0 m 23.811,-10.965 c 3.07,5.363 4.607,11.137 4.607,17.323 0,9.602 -3.397,17.799 -10.187,24.589 C 11.44,37.738 3.244,41.134 -6.358,41.134 H -51.45 v -92.779 h 25.758 v 23.228 h 10.445 l 13.755,-23.228 h 29.91 l -16.74,28.224 c 5.103,3.113 9.148,7.266 12.133,12.456" />
          </g>
          <g
             transform="translate(551.5527,426.0695)"
             id="g4563">
            <path
               inkscape:connector-curvature="0"
               id="path4565"
               style="fill:#343838;fill-opacity:1;fill-rule:nonzero;stroke:none"
               d="m 0,0 c -4.065,-4.022 -8.932,-6.033 -14.598,-6.033 -5.667,0 -10.533,2.011 -14.597,6.033 -4.024,4.065 -6.034,8.932 -6.034,14.599 0,5.665 2.01,10.531 6.034,14.597 4.064,4.023 8.93,6.034 14.597,6.034 C -8.932,35.23 -4.065,33.219 0,29.196 4.022,25.13 6.034,20.264 6.034,14.599 6.034,8.932 4.022,4.065 0,0 m -14.598,60.987 c -12.803,0 -23.724,-4.542 -32.763,-13.625 -9.084,-9.04 -13.625,-19.961 -13.625,-32.763 0,-12.804 4.541,-23.725 13.625,-32.765 9.039,-9.083 19.96,-13.625 32.763,-13.625 12.803,0 23.724,4.542 32.764,13.625 9.084,9.04 13.625,19.961 13.625,32.765 0,12.801 -4.541,23.723 -13.625,32.763 -9.04,9.084 -19.961,13.625 -32.764,13.625" />
          </g>
          <g
             transform="translate(645.2393,442.8732)"
             id="g4567">
            <path
               inkscape:connector-curvature="0"
               id="path4569"
               style="fill:#343838;fill-opacity:1;fill-rule:nonzero;stroke:none"
               d="M 0,0 -30.883,44.184 H -54.11 v -92.779 h 25.757 V -4.411 L 2.595,-48.595 H 25.757 V 44.184 H 0 Z" />
          </g>
          <g
             transform="translate(678.7822,487.0568)"
             id="g4571">
            <path
               inkscape:connector-curvature="0"
               id="path4573"
               style="fill:#343838;fill-opacity:1;fill-rule:nonzero;stroke:none"
               d="m 0,0 v -25.757 h 28.353 v -67.021 h 25.756 v 67.021 H 82.462 V 0 Z" />
          </g>
          <g
             transform="translate(327.5967,358.3117)"
             id="g4575">
            <path
               inkscape:connector-curvature="0"
               id="path4577"
               style="fill:#343838;fill-opacity:1;fill-rule:nonzero;stroke:none"
               d="m 0,0 v -34.501 h 5.25 c 2.393,0 4.107,0.178 5.144,0.535 3.536,1.464 5.303,4.304 5.303,8.518 v 16.34 C 15.697,-3.036 12.875,0 7.232,0 Z M -12.375,12.161 H 8.84 C 21.662,12.125 28.073,5.035 28.073,-9.108 v -16.34 c 0,-8.823 -4.269,-14.804 -12.804,-17.947 L 32.68,-93.378 19.019,-93.379 4.822,-45.322 0,-45.967 v -47.411 l -12.375,-0.001 z" />
          </g>
          <g
             transform="translate(404.0771,323.8107)"
             id="g4579">
            <path
               inkscape:connector-curvature="0"
               id="path4581"
               style="fill:#343838;fill-opacity:1;fill-rule:nonzero;stroke:none"
               d="m 0,0 v -12.216 l -21.537,10e-4 v -34.501 l 25.019,-10e-4 v -12.16 H -33.912 V 46.662 H 3.482 V 34.501 H -21.537 V 0 Z" />
          </g>
          <g
             transform="translate(432.502,358.3117)"
             id="g4583">
            <path
               inkscape:connector-curvature="0"
               id="path4585"
               style="fill:#343838;fill-opacity:1;fill-rule:nonzero;stroke:none"
               d="m 0,0 v -34.501 h 5.25 c 2.393,0 4.107,0.178 5.144,0.535 3.536,1.464 5.303,4.304 5.303,8.518 V -9.107 C 15.697,-3.036 12.875,0 7.232,0 Z M -12.375,12.16 H 8.84 C 21.661,12.125 28.072,5.036 28.072,-9.107 v -16.34 c 0,-10.43 -4.625,-17.144 -13.875,-20.144 -2.251,-0.75 -5.571,-1.126 -9.965,-1.126 H 0 v -46.662 h -12.375 z" />
          </g>
          <g
             transform="translate(514.3926,284.4338)"
             id="g4587">
            <path
               inkscape:connector-curvature="0"
               id="path4589"
               style="fill:#343838;fill-opacity:1;fill-rule:nonzero;stroke:none"
               d="m 0,0 c 0,-14.144 -6.964,-21.232 -20.894,-21.269 -13.928,0 -20.893,7.089 -20.893,21.27 v 86.092 h 12.376 V 0.001 c 0,-6.037 2.839,-9.055 8.517,-9.055 5.679,0 8.519,3.018 8.519,9.054 V 86.093 H 0 Z" />
          </g>
          <g
             transform="translate(541.4795,311.5949)"
             id="g4591">
            <path
               inkscape:connector-curvature="0"
               id="path4593"
               style="fill:#343838;fill-opacity:1;fill-rule:nonzero;stroke:none"
               d="m 0,0 v -34.501 h 8.571 c 5.643,0 8.464,3.019 8.464,9.055 v 16.392 c 0,4.25 -1.767,7.073 -5.304,8.465 -1,0.393 -2.713,0.59 -5.142,0.589 z m 0,46.716 v -34.5 h 6.589 c 2.391,0 4.106,0.178 5.142,0.535 3.537,1.464 5.304,4.304 5.304,8.519 v 16.339 c 0,6.072 -2.821,9.108 -8.464,9.108 z M -12.377,58.877 H 10.179 C 23,58.842 29.41,51.752 29.41,37.608 V 21.269 C 29.41,14.804 25.894,9.751 18.857,6.107 25.894,2.466 29.41,-2.59 29.41,-9.054 v -16.393 c 0,-14.109 -6.767,-21.179 -20.304,-21.214 l -21.483,-10e-4 z" />
          </g>
          <g
             transform="translate(584.5283,264.9338)"
             id="g4595">
            <path
               inkscape:connector-curvature="0"
               id="path4597"
               style="fill:#343838;fill-opacity:1;fill-rule:nonzero;stroke:none"
               d="M 0,0 V 105.539 H 12.376 V 12.161 L 37.396,12.16 V 0 Z" />
          </g>
          <path
             inkscape:connector-curvature="0"
             id="path4599"
             style="fill:#343838;fill-opacity:1;fill-rule:nonzero;stroke:none"
             d="m 632.614,370.473 h 12.377 V 264.934 h -12.377 z" />
          <g
             transform="translate(701.2187,284.3801)"
             id="g4601">
            <path
               inkscape:connector-curvature="0"
               id="path4603"
               style="fill:#343838;fill-opacity:1;fill-rule:nonzero;stroke:none"
               d="m 0,0 c 0,-14.108 -6.964,-21.179 -20.893,-21.216 -13.929,0 -20.893,7.072 -20.893,21.216 v 66.646 c 0,14.107 6.964,21.161 20.893,21.161 C -6.964,87.808 0,80.753 0,66.646 V 53.627 h -12.375 v 13.019 c 0,5.963 -2.822,8.963 -8.465,9 h -0.107 c -5.643,0 -8.464,-3 -8.464,-9 V 0 c 0,-6 2.84,-9 8.518,-9 5.678,0 8.518,3 8.518,9 V 13.019 H 0 Z" />
          </g>
          <g
             transform="translate(744.002,300.2385)"
             id="g4605">
            <path
               inkscape:connector-curvature="0"
               id="path4607"
               style="fill:#343838;fill-opacity:1;fill-rule:nonzero;stroke:none"
               d="M 0,0 -7.876,59.627 -15.75,0 Z m -24.322,86.199 9.965,-0.001 11.625,-10.66 h -7.554 l -14.036,9.001 z M 12.322,1.446 17.25,-35.305 4.661,-35.306 1.607,-12.215 h -18.912 l -3.106,-23.091 h -12.483 l 4.822,36.537 10.875,69.002 18.697,10e-4 z" />
          </g>
          <g
             transform="translate(571.502,900.5739)"
             id="g4609">
            <path
               inkscape:connector-curvature="0"
               id="path4611"
               style="fill:#343838;fill-opacity:1;fill-rule:nonzero;stroke:none"
               d="m 0,0 0.001,143.71 c -1.532,0.031 -3.069,0.048 -4.614,0.048 H -256.28 v -517.819 h 143.759 v 129.636 h 58.006 l 54.516,71.879 -54.516,71.878 h -58.006 V 0 Z" />
          </g>
          <g
             transform="translate(735.2715,753.5563)"
             id="g4613">
            <path
               inkscape:connector-curvature="0"
               id="path4615"
               style="fill:#343838;fill-opacity:1;fill-rule:nonzero;stroke:none"
               d="m 0,0 c 17.138,29.931 25.709,62.159 25.709,96.685 0,53.591 -18.953,99.336 -56.852,137.237 -32.282,32.279 -70.253,50.813 -113.918,55.601 v -0.104 -143.899 -4.099 c 4.38,-2.346 8.436,-5.428 12.167,-9.25 9.896,-9.902 14.847,-21.728 14.847,-35.486 0,-14.004 -4.951,-25.835 -14.847,-35.489 -9.659,-9.9 -21.489,-14.847 -35.489,-14.847 h -27.203 l 55.127,-71.855 -61.44,-82.308 70.643,-119.229 H 25.709 L -67.714,-69.524 C -39.231,-52.144 -16.657,-28.969 0,0" />
          </g>
          <g
             transform="translate(230.4771,867.9406)"
             id="g4617">
            <path
               inkscape:connector-curvature="0"
               id="path4619"
               style="fill:#343838;fill-opacity:1;fill-rule:evenodd;stroke:none"
               d="m 0,0 h -121.465 c -15.104,0 -27.463,12.358 -27.463,27.463 v 121.465 c 0,15.105 12.359,27.464 27.463,27.464 H 0 c 15.105,0 27.463,-12.359 27.463,-27.464 V 27.463 C 27.463,12.358 15.105,0 0,0" />
          </g>
          <g
             transform="translate(87.2671,849.3542)"
             id="g4621">
            <path
               inkscape:connector-curvature="0"
               id="path4623"
               style="fill:#343838;fill-opacity:1;fill-rule:nonzero;stroke:none"
               d="m 0,0 v -9.218 h 1.066 c 0.645,0 1.088,0.044 1.329,0.132 0.842,0.338 1.263,1.022 1.263,2.05 v 4.838 C 3.658,-0.732 2.985,0 1.64,0 Z M -4.642,4.576 H 2.116 C 6.238,4.565 8.299,2.307 8.299,-2.198 v -4.838 c 0,-3.324 -1.481,-5.468 -4.445,-6.43 -0.71,-0.23 -1.744,-0.345 -3.1,-0.345 H 0 v -13.793 h -4.642 z" />
          </g>
          <g
             transform="translate(107.376,847.6813)"
             id="g4625">
            <path
               inkscape:connector-curvature="0"
               id="path4627"
               style="fill:#343838;fill-opacity:1;fill-rule:nonzero;stroke:none"
               d="M 0,0 C 0,1.443 -0.672,2.17 -2.017,2.182 H -2.05 C -3.384,2.182 -4.051,1.454 -4.051,0 v -19.683 c 0,-1.454 0.673,-2.181 2.017,-2.181 1.356,0 2.034,0.727 2.034,2.181 z m 4.642,-19.683 c 0,-4.504 -2.225,-6.762 -6.676,-6.774 -4.439,0 -6.659,2.258 -6.659,6.774 V 0 c 0,4.505 2.22,6.758 6.659,6.758 4.451,0 6.676,-2.253 6.676,-6.758 z" />
          </g>
          <g
             transform="translate(120.5962,835.5436)"
             id="g4629">
            <path
               inkscape:connector-curvature="0"
               id="path4631"
               style="fill:#343838;fill-opacity:1;fill-rule:nonzero;stroke:none"
               d="m 0,0 v -9.218 h 2.034 c 1.345,0 2.017,0.727 2.017,2.182 v 4.855 c 0,1.027 -0.421,1.705 -1.262,2.034 C 2.548,-0.049 2.105,0 1.46,0 Z M 0,13.811 V 4.593 h 1.46 c 0.645,0 1.088,0.043 1.329,0.131 0.841,0.339 1.262,1.022 1.262,2.05 v 4.839 c 0,1.465 -0.672,2.198 -2.017,2.198 z m -4.642,4.576 H 2.51 C 6.632,18.376 8.693,16.118 8.693,11.613 V 6.774 C 8.693,4.664 7.846,3.171 6.151,2.296 7.846,1.421 8.693,-0.071 8.693,-2.181 v -4.855 c 0,-4.494 -2.159,-6.747 -6.479,-6.758 h -6.856 z" />
          </g>
          <g
             transform="translate(133.0615,821.7497)"
             id="g4633">
            <path
               inkscape:connector-curvature="0"
               id="path4635"
               style="fill:#343838;fill-opacity:1;fill-rule:nonzero;stroke:none"
               d="M 0,0 V 32.181 H 4.642 V 4.576 h 7.397 V 0 Z" />
          </g>
          <g
             transform="translate(147.8892,853.9304)"
             id="g4637">
            <path
               inkscape:connector-curvature="0"
               id="path4639"
               style="fill:#343838;fill-opacity:1;fill-rule:nonzero;stroke:none"
               d="M 0,0 H 12.039 V -4.576 H 4.642 v -9.218 h 6.364 v -4.593 H 4.642 v -9.217 h 7.397 v -4.577 H 0 Z" />
          </g>
          <g
             transform="translate(171.7051,821.7497)"
             id="g4641">
            <path
               inkscape:connector-curvature="0"
               id="path4643"
               style="fill:#343838;fill-opacity:1;fill-rule:nonzero;stroke:none"
               d="M 0,0 V 32.181 H 4.642 V 4.576 h 7.397 V 0 Z" />
          </g>
          <g
             transform="translate(186.5322,821.7497)"
             id="g4645">
            <path
               inkscape:connector-curvature="0"
               id="path4647"
               style="fill:#343838;fill-opacity:1;fill-rule:nonzero;stroke:none"
               d="M 0,0 V 32.181 H 4.642 V 4.576 h 7.397 V 0 Z" />
          </g>
          <path
             inkscape:connector-curvature="0"
             id="path4649"
             style="fill:#343838;fill-opacity:1;fill-rule:nonzero;stroke:none"
             d="m 201.442,853.93 h 4.642 v -32.181 h -4.642 z" />
          <g
             transform="translate(223.6011,827.9987)"
             id="g4651">
            <path
               inkscape:connector-curvature="0"
               id="path4653"
               style="fill:#343838;fill-opacity:1;fill-rule:nonzero;stroke:none"
               d="m 0,0 c 0,-4.505 -2.226,-6.763 -6.676,-6.774 -4.439,0 -6.659,2.258 -6.659,6.774 v 25.932 h 4.642 V 0 c 0,-1.454 0.672,-2.181 2.017,-2.181 1.356,0 2.034,0.727 2.034,2.181 V 25.932 H 0 Z" />
          </g>
          <g
             transform="translate(232.3433,849.3542)"
             id="g4655">
            <path
               inkscape:connector-curvature="0"
               id="path4657"
               style="fill:#343838;fill-opacity:1;fill-rule:nonzero;stroke:none"
               d="m 0,0 v -9.218 h 1.066 c 0.645,0 1.088,0.044 1.329,0.132 0.842,0.338 1.263,1.022 1.263,2.05 v 4.838 C 3.658,-0.732 2.985,0 1.64,0 Z M -4.642,4.576 H 2.116 C 6.238,4.565 8.299,2.307 8.299,-2.198 v -4.838 c 0,-2.833 -1.219,-4.697 -3.657,-5.593 L 9.858,-27.604 H 4.773 L 0.591,-13.45 0,-13.532 v -14.072 h -4.642 z" />
          </g>
          <g
             transform="translate(244.8252,853.9304)"
             id="g4659">
            <path
               inkscape:connector-curvature="0"
               id="path4661"
               style="fill:#343838;fill-opacity:1;fill-rule:nonzero;stroke:none"
               d="M 0,0 H 12.039 V -4.576 H 4.642 v -9.218 h 6.364 v -4.593 H 4.642 v -9.217 h 7.397 v -4.577 H 0 Z" />
          </g>
          <g
             transform="translate(230.4771,588.05)"
             id="g4663">
            <path
               inkscape:connector-curvature="0"
               id="path4665"
               style="fill:#343838;fill-opacity:1;fill-rule:evenodd;stroke:none"
               d="m 0,0 h -121.465 c -15.104,0 -27.463,12.359 -27.463,27.464 v 121.465 c 0,15.105 12.359,27.463 27.463,27.463 H 0 c 15.105,0 27.463,-12.358 27.463,-27.463 V 27.464 C 27.463,12.359 15.105,0 0,0" />
          </g>
          <g
             transform="translate(95.0908,553.2756)"
             id="g4667">
            <path
               inkscape:connector-curvature="0"
               id="path4669"
               style="fill:#343838;fill-opacity:1;fill-rule:nonzero;stroke:none"
               d="M 0,0 -1.771,13.384 -3.542,0 Z M 4.691,0 6.2,-11.416 H 1.509 l -0.902,6.823 h -4.74 l -0.919,-6.823 h -4.674 l 1.509,11.366 3.28,20.815 h 6.364 z" />
          </g>
          <g
             transform="translate(104.0796,541.8596)"
             id="g4671">
            <path
               inkscape:connector-curvature="0"
               id="path4673"
               style="fill:#343838;fill-opacity:1;fill-rule:nonzero;stroke:none"
               d="M 0,0 V 32.181 H 4.642 V 4.576 h 7.397 V 0 Z" />
          </g>
          <g
             transform="translate(129.1416,574.0402)"
             id="g4675">
            <path
               inkscape:connector-curvature="0"
               id="path4677"
               style="fill:#343838;fill-opacity:1;fill-rule:nonzero;stroke:none"
               d="m 0,0 v -4.576 h -4.346 v -27.605 h -4.642 v 27.605 h -4.346 V 0 Z" />
          </g>
          <g
             transform="translate(132.0942,574.0402)"
             id="g4679">
            <path
               inkscape:connector-curvature="0"
               id="path4681"
               style="fill:#343838;fill-opacity:1;fill-rule:nonzero;stroke:none"
               d="M 0,0 H 12.039 V -4.576 H 4.642 v -9.218 h 6.364 v -4.593 H 4.642 v -9.217 h 7.397 v -4.577 H 0 Z" />
          </g>
          <g
             transform="translate(152.2192,569.4641)"
             id="g4683">
            <path
               inkscape:connector-curvature="0"
               id="path4685"
               style="fill:#343838;fill-opacity:1;fill-rule:nonzero;stroke:none"
               d="m 0,0 v -9.218 h 1.066 c 0.645,0 1.088,0.043 1.329,0.131 0.842,0.339 1.263,1.023 1.263,2.051 v 4.838 C 3.658,-0.732 2.985,0 1.64,0 Z M -4.642,4.576 H 2.116 C 6.238,4.565 8.299,2.307 8.299,-2.198 v -4.838 c 0,-2.833 -1.219,-4.697 -3.657,-5.594 L 9.858,-27.604 H 4.773 L 0.591,-13.45 0,-13.532 v -14.072 h -4.642 z" />
          </g>
          <g
             transform="translate(164.7012,574.0402)"
             id="g4687">
            <path
               inkscape:connector-curvature="0"
               id="path4689"
               style="fill:#343838;fill-opacity:1;fill-rule:nonzero;stroke:none"
               d="M 0,0 H 4.642 L 9.038,-18.666 V 0 h 4.297 V -32.181 H 8.693 L 4.461,-14.105 V -32.181 H 0 Z" />
          </g>
          <g
             transform="translate(190.5508,553.2756)"
             id="g4691">
            <path
               inkscape:connector-curvature="0"
               id="path4693"
               style="fill:#343838;fill-opacity:1;fill-rule:nonzero;stroke:none"
               d="M 0,0 -1.771,13.384 -3.542,0 Z M 4.691,0 6.2,-11.416 H 1.509 l -0.902,6.823 h -4.74 l -0.919,-6.823 h -4.674 l 1.509,11.366 3.28,20.815 h 6.364 z" />
          </g>
          <g
             transform="translate(211.0532,574.0402)"
             id="g4695">
            <path
               inkscape:connector-curvature="0"
               id="path4697"
               style="fill:#343838;fill-opacity:1;fill-rule:nonzero;stroke:none"
               d="m 0,0 v -4.576 h -4.346 v -27.605 h -4.642 v 27.605 h -4.346 V 0 Z" />
          </g>
          <path
             inkscape:connector-curvature="0"
             id="path4699"
             style="fill:#343838;fill-opacity:1;fill-rule:nonzero;stroke:none"
             d="m 214.088,574.04 h 4.642 v -32.181 h -4.642 z" />
          <g
             transform="translate(232.7534,541.8596)"
             id="g4701">
            <path
               inkscape:connector-curvature="0"
               id="path4703"
               style="fill:#343838;fill-opacity:1;fill-rule:nonzero;stroke:none"
               d="m 0,0 h -6.364 l -3.281,20.798 -1.508,11.383 h 4.691 l 3.263,-24.8 3.281,24.8 H 4.773 L 3.264,20.765 Z" />
          </g>
          <g
             transform="translate(247.9248,553.2756)"
             id="g4705">
            <path
               inkscape:connector-curvature="0"
               id="path4707"
               style="fill:#343838;fill-opacity:1;fill-rule:nonzero;stroke:none"
               d="M 0,0 -1.771,13.384 -3.542,0 Z M 4.691,0 6.2,-11.416 H 1.509 l -0.902,6.823 h -4.74 l -0.919,-6.823 h -4.674 l 1.509,11.366 3.28,20.815 h 6.364 z" />
          </g>
          <g
             transform="translate(230.4771,310.6584)"
             id="g4709">
            <path
               inkscape:connector-curvature="0"
               id="path4711"
               style="fill:#343838;fill-opacity:1;fill-rule:evenodd;stroke:none"
               d="m 0,0 h -121.465 c -15.104,0 -27.463,12.358 -27.463,27.463 v 121.465 c 0,15.105 12.359,27.464 27.463,27.464 H 0 c 15.105,0 27.463,-12.359 27.463,-27.464 V 27.463 C 27.463,12.358 15.105,0 0,0" />
          </g>
          <g
             transform="translate(122.999,292.5734)"
             id="g4713">
            <path
               inkscape:connector-curvature="0"
               id="path4715"
               style="fill:#343838;fill-opacity:1;fill-rule:nonzero;stroke:none"
               d="m 0,0 v -9.218 h 1.066 c 0.645,0 1.088,0.043 1.329,0.131 0.842,0.339 1.263,1.023 1.263,2.051 v 4.838 C 3.658,-0.732 2.985,0 1.64,0 Z M -4.642,4.576 H 2.116 C 6.238,4.565 8.299,2.307 8.299,-2.198 v -4.838 c 0,-3.324 -1.481,-5.468 -4.445,-6.43 -0.71,-0.23 -1.744,-0.345 -3.1,-0.345 H 0 v -13.793 h -4.642 z" />
          </g>
          <path
             inkscape:connector-curvature="0"
             id="path4717"
             style="fill:#343838;fill-opacity:1;fill-rule:nonzero;stroke:none"
             d="m 134.825,297.15 h 4.642 v -32.181 h -4.642 z" />
          <g
             transform="translate(148.4551,292.5734)"
             id="g4719">
            <path
               inkscape:connector-curvature="0"
               id="path4721"
               style="fill:#343838;fill-opacity:1;fill-rule:nonzero;stroke:none"
               d="m 0,0 v -9.218 h 1.066 c 0.645,0 1.088,0.043 1.329,0.131 0.842,0.339 1.263,1.023 1.263,2.051 v 4.838 C 3.658,-0.732 2.985,0 1.64,0 Z M -4.642,4.576 H 2.116 C 6.238,4.565 8.299,2.307 8.299,-2.198 v -4.838 c 0,-2.833 -1.219,-4.697 -3.657,-5.594 L 9.858,-27.604 H 4.773 L 0.591,-13.45 0,-13.532 v -14.072 h -4.642 z" />
          </g>
          <g
             transform="translate(169.187,276.3849)"
             id="g4723">
            <path
               inkscape:connector-curvature="0"
               id="path4725"
               style="fill:#343838;fill-opacity:1;fill-rule:nonzero;stroke:none"
               d="M 0,0 -1.771,13.384 -3.542,0 Z M 4.691,0 6.2,-11.416 H 1.509 l -0.902,6.823 h -4.74 l -0.919,-6.823 h -4.674 l 1.509,11.366 3.28,20.815 h 6.364 z" />
          </g>
          <g
             transform="translate(189.6895,297.1496)"
             id="g4727">
            <path
               inkscape:connector-curvature="0"
               id="path4729"
               style="fill:#343838;fill-opacity:1;fill-rule:nonzero;stroke:none"
               d="m 0,0 v -4.576 h -4.346 v -27.605 h -4.642 v 27.605 h -4.346 V 0 Z" />
          </g>
          <g
             transform="translate(192.6421,297.1496)"
             id="g4731">
            <path
               inkscape:connector-curvature="0"
               id="path4733"
               style="fill:#343838;fill-opacity:1;fill-rule:nonzero;stroke:none"
               d="M 0,0 H 12.039 V -4.576 H 4.642 v -9.218 h 6.364 v -4.593 H 4.642 v -9.217 h 7.397 v -4.577 H 0 Z" />
          </g>
          <g
             transform="translate(207.7974,290.9006)"
             id="g4735">
            <path
               inkscape:connector-curvature="0"
               id="path4737"
               style="fill:#343838;fill-opacity:1;fill-rule:nonzero;stroke:none"
               d="m 0,0 c 0,4.505 2.22,6.758 6.659,6.758 4.45,0 6.676,-2.253 6.676,-6.758 V -4.33 H 8.693 V 0 c 0,1.443 -0.672,2.17 -2.017,2.182 H 6.643 C 5.309,2.182 4.642,1.454 4.642,0 v -2.92 c 0,-1.433 1.448,-3.187 4.346,-5.265 2.898,-2.067 4.347,-4.544 4.347,-7.43 v -4.068 c 0,-4.516 -2.22,-6.774 -6.659,-6.774 C 2.225,-26.445 0,-24.187 0,-19.683 v 4.33 h 4.642 v -4.33 c 0,-1.454 0.678,-2.181 2.034,-2.181 1.345,0 2.017,0.727 2.017,2.181 v 3.674 c 0,1.553 -1.449,3.368 -4.346,5.446 C 1.449,-8.496 0,-5.981 0,-3.019 Z" />
          </g>
          <g
             transform="translate(189.4521,931.8254)"
             id="g4739">
            <path
               inkscape:connector-curvature="0"
               id="path4741"
               style="fill:#ffffff;fill-opacity:1;fill-rule:nonzero;stroke:none"
               d="M 0,0 C 0,0 2.961,1.966 3.727,5.25 3.744,5.321 3.789,5.515 3.698,5.587 3.607,5.659 3.427,5.572 3.365,5.54 1.499,4.392 -1.458,2.886 -5.351,2.103 -8.337,1.502 -10.931,1.516 -12.834,1.675 -12.935,1.653 -13.172,1.586 -13.23,1.412 c -0.055,-0.163 0.063,-0.35 0.125,-0.404 0.783,-0.691 2.751,-2.236 5.711,-2.655 C -6.242,-1.811 -3.032,-2.012 0,0" />
          </g>
          <g
             transform="translate(218.2383,968.9929)"
             id="g4743">
            <path
               inkscape:connector-curvature="0"
               id="path4745"
               style="fill:#ffffff;fill-opacity:1;fill-rule:nonzero;stroke:none"
               d="m 0,0 c -5.354,4.156 -12.718,3.556 -12.718,3.556 -1.034,-0.13 -2.182,-0.329 -3.416,-0.631 0,0 -1.578,-0.387 -3.184,-0.97 -4.658,-1.69 -22.089,-10.652 -29.296,-14.179 -5.639,-2.76 -7.815,-3.56 -8.498,-5.96 -1.126,-3.955 2.873,-8.483 5.37,-10.516 4.383,-3.569 9.406,-3.748 12.065,-3.843 7.311,-0.261 12.993,2.662 15.935,4.53 0.064,0.041 0.121,0.055 0.174,0.05 0,0 0.205,-0.011 0.393,-0.369 0.175,-0.332 3.392,-13.481 -4.005,-24.625 -6.37,-9.598 -18.337,-14.377 -28.726,-14.389 -15.555,-0.017 -30.284,10.769 -37.303,27.285 -0.089,0.222 -0.289,0.631 -0.709,0.978 -0.159,0.13 -0.712,0.585 -1.259,0.507 -0.67,-0.097 -1.279,-0.99 -1.295,-2.196 0.859,-3.935 3.799,-14.945 13.921,-24.189 9.61,-8.777 20.162,-10.911 24.204,-11.518 1.889,-0.239 3.927,-0.408 6.097,-0.463 4.048,-0.105 8.835,0.178 14.16,1.29 0,0 0.845,0.179 1.625,0.362 22.916,5.378 33.55,23.882 35.403,27.257 C 8.883,-29.925 8.086,-6.277 0,0" />
          </g>
          <g
             transform="translate(137.6577,964.8024)"
             id="g4747">
            <path
               inkscape:connector-curvature="0"
               id="path4749"
               style="fill:#ffffff;fill-opacity:1;fill-rule:nonzero;stroke:none"
               d="m 0,0 c 4.563,-11.863 10.854,-30.3 11.263,-31.59 0.007,-0.023 0.037,-0.118 0.08,-0.246 0.109,-0.322 0.303,-0.857 0.601,-1.49 0.416,-0.886 1.905,-4.04 4.927,-5.808 2.708,-1.584 7.12,-2.33 10.819,0.053 4.185,2.695 4.579,7.539 4.615,8.096 0.009,0.087 0.021,0.299 -0.091,0.531 -0.121,0.251 -0.314,0.377 -0.389,0.421 -2.052,0.801 -5.079,2.343 -7.732,5.306 -1.269,1.418 -3.316,3.705 -3.936,7.269 -0.212,1.219 -0.743,4.271 0.964,6.694 0.956,1.357 2.481,2.271 2.481,2.271 1.051,0.668 1.68,1.067 2.179,1.383 0.741,0.469 1.124,0.709 1.365,1.206 0.261,0.54 0.215,1.095 0.147,1.447 -0.239,1.066 -0.96,4.282 -1.596,6.975 -0.178,0.756 -0.342,1.437 -0.503,2.098 -0.219,0.895 -0.448,1.836 -0.724,2.887 -0.22,0.839 -0.576,2.149 -0.748,2.702 -0.16,0.51 -1.202,3.855 -4.085,5.999 -2.392,1.778 -4.985,1.936 -6.212,1.994 C 8.567,18.428 2.068,15.957 -0.176,10.442 -2.111,5.69 -0.169,0.44 -0.001,0.002 -0.001,0.002 0,0 0,0" />
          </g>
          <g
             transform="translate(167.0479,985.8161)"
             id="g4751">
            <path
               inkscape:connector-curvature="0"
               id="path4753"
               style="fill:#ffffff;fill-opacity:1;fill-rule:nonzero;stroke:none"
               d="m 0,0 c -3.091,-4.19 -2.064,-8.966 -1.892,-9.705 2.028,-8.688 3.512,-15.031 3.579,-15.313 0.011,-0.046 0.043,-0.165 0.143,-0.23 0.128,-0.083 0.304,-0.016 0.363,0.005 0.444,0.162 15.471,7.109 18.136,8.341 0.398,0.207 1.007,0.599 1.45,1.298 0.472,0.746 0.538,1.515 0.555,2.063 0.089,2.749 -0.806,7.658 -0.89,8.111 -0.112,0.938 -0.364,2.144 -0.934,3.451 -1.167,2.675 -3.02,4.284 -4.058,5.055 0,0 -3.696,2.363 -8.595,1.505 C 7.714,4.556 7.599,4.533 7.517,4.517 6.618,4.338 2.587,3.508 0,0" />
          </g>
          <g
             transform="translate(138.7935,1003.0632)"
             id="g4755">
            <path
               inkscape:connector-curvature="0"
               id="path4757"
               style="fill:#ffffff;fill-opacity:1;fill-rule:nonzero;stroke:none"
               d="m 0,0 c 0.012,-0.009 0.025,-0.018 0.039,-0.026 2.968,-1.747 5.937,-3.495 8.905,-5.243 0.033,-0.019 0.062,-0.042 0.087,-0.07 0.014,-0.017 0.03,-0.036 0.043,-0.059 0.049,-0.081 0.06,-0.159 0.062,-0.201 0.419,-5.79 0.78,-10.034 0.895,-10.404 0.072,-0.232 0.214,-0.411 0.214,-0.411 0.06,-0.075 0.191,-0.239 0.409,-0.324 0.253,-0.097 0.485,-0.037 0.712,0.02 0.134,0.034 0.329,0.099 0.544,0.232 0.02,0.012 0.039,0.027 0.055,0.042 2.444,2.243 4.887,4.486 7.33,6.728 0.036,0.037 0.122,0.116 0.259,0.154 0.129,0.035 0.236,0.016 0.286,0.003 5.473,-1.301 9.373,-2.23 9.876,-2.373 0.056,-0.016 0.343,-0.101 0.705,-0.052 0.145,0.02 0.407,0.059 0.57,0.211 0.245,0.228 0.258,0.695 0.068,1.163 -1.328,3.123 -2.654,6.245 -3.981,9.367 -0.027,0.061 -0.068,0.179 -0.062,0.331 0.005,0.137 0.046,0.242 0.077,0.303 0.004,0.009 0.009,0.018 0.014,0.027 1.775,2.9 3.549,5.8 5.323,8.7 0.016,0.027 0.029,0.055 0.038,0.084 0.03,0.099 0.06,0.233 0.066,0.394 0.006,0.155 0.01,0.292 -0.057,0.44 -0.078,0.168 -0.207,0.258 -0.347,0.351 0,0 -0.248,0.168 -0.551,0.245 C 30.914,9.801 29.794,9.573 29.622,9.535 29.608,9.532 29.594,9.53 29.58,9.529 28.589,9.432 27.597,9.333 26.604,9.234 24.782,9.052 22.966,8.867 21.155,8.68 21.093,8.673 21.03,8.681 20.974,8.707 20.967,8.71 20.96,8.713 20.954,8.716 20.9,8.745 20.865,8.78 20.844,8.803 c -0.385,0.468 -6.657,8.058 -7.332,8.309 -0.304,0.113 -0.554,0.05 -0.554,0.05 0,0 -0.249,-0.062 -0.457,-0.296 C 12.032,16.34 10.184,6.928 10.045,6.22 10.043,6.208 10.041,6.197 10.037,6.186 10.019,6.128 9.985,6.046 9.92,5.963 9.818,5.834 9.695,5.775 9.633,5.75 6.412,4.453 3.189,3.155 -0.033,1.858 -0.087,1.836 -0.136,1.801 -0.174,1.757 -0.29,1.622 -0.5,1.315 -0.475,0.888 -0.444,0.378 -0.1,0.077 0,0" />
          </g>
          <g
             transform="translate(192.8823,972.4362)"
             id="g4759">
            <path
               inkscape:connector-curvature="0"
               id="path4761"
               style="fill:#ffffff;fill-opacity:1;fill-rule:nonzero;stroke:none"
               d="m 0,0 c 0.008,-0.115 0.028,-0.441 0.252,-0.598 0.187,-0.13 0.436,-0.088 0.583,-0.048 0.149,0.06 0.393,0.156 0.692,0.273 4.38,1.699 8.343,3.237 12.884,3.211 1.04,-0.006 2.603,-0.097 4.514,-0.542 0.43,-0.05 1.358,-0.088 2.176,0.48 0.928,0.646 1.233,1.679 1.34,2.465 0.077,0.562 0.141,1.336 0.087,2.254 -0.039,0.673 -0.137,2.132 -0.872,3.777 -0.635,1.424 -1.454,2.332 -1.882,2.797 -2.613,2.847 -7.439,5.022 -12.464,4.62 C 6.048,18.588 4.399,18.437 2.664,17.363 2.605,17.327 2.526,17.277 2.432,17.215 1.833,16.82 -0.129,15.479 -0.784,13.082 -0.92,12.581 -1.082,11.733 -0.947,10.633 -0.426,4.831 -0.044,0.63 0,0" />
          </g>
          <g
             transform="translate(136.6597,919.5607)"
             id="g4763">
            <path
               inkscape:connector-curvature="0"
               id="path4765"
               style="fill:#ffffff;fill-opacity:1;fill-rule:nonzero;stroke:none"
               d="m 0,0 c 3.6,-1.089 6.55,0.561 7.044,0.848 1.147,0.639 2.783,1.81 3.535,3.772 0.775,2.024 0.33,3.979 -0.03,4.917 -6.681,17.418 -11.57,30.094 -12.698,33.123 -0.126,0.339 -0.489,1.317 -1.309,2.27 -1.679,1.952 -4.016,2.311 -4.969,2.402 -3.176,0.304 -5.323,-1.529 -5.798,-1.958 -0.006,-0.006 -0.013,-0.012 -0.02,-0.017 -1.132,-0.871 -2.654,-2.252 -4.08,-4.311 -1.448,-2.091 -2.267,-4.119 -2.737,-5.576 -0.241,-0.75 -0.439,-1.44 -0.528,-2.235 0,0 -0.056,-0.536 -0.049,-1.074 0.025,-1.76 0.755,-3.465 1.057,-4.117 0.002,-0.004 0.004,-0.007 0.005,-0.009 0.005,-0.01 0.01,-0.018 0.014,-0.023 0,-0.001 0,-0.001 10e-4,-0.002 0,-0.002 5.179,-8.026 15.564,-24.12 C -4.635,3.295 -3.106,0.939 0,0" />
          </g>
          <g
             transform="translate(169.8159,335.4963)"
             id="g4767">
            <path
               inkscape:connector-curvature="0"
               id="path4769"
               style="fill:#ffffff;fill-opacity:1;fill-rule:nonzero;stroke:none"
               d="m 0,0 c -33.611,-0.037 -60.893,27.178 -60.931,60.791 -0.039,33.611 27.175,60.891 60.786,60.928 33.614,0.04 60.894,-27.175 60.933,-60.786 C 60.826,27.319 33.611,0.04 0,0 M -19.364,93.85 C -9.295,91.441 2.535,83.74 -1.372,65.146 -3.314,55.891 -13.421,51.046 -19.309,47.039 Z m -5.595,13.935 0.013,-10.325 c -3.798,-1.16 -5.984,-2.365 -5.628,-3.135 1.248,0.363 3.245,0.528 5.63,0.376 l 0.062,-53.65 c -5.788,-11.182 2.53,-28.313 2.53,-28.313 0,0 -6.182,18.283 7.524,26.953 12.612,7.976 56.128,4.286 55.951,28.843 -0.254,34.784 -40.373,34.526 -60.495,30.332 l -0.009,8.927 z" />
          </g>
          <g
             transform="translate(162.3579,668.5798)"
             id="g4771">
            <path
               inkscape:connector-curvature="0"
               id="path4773"
               style="fill:#ffffff;fill-opacity:1;fill-rule:nonzero;stroke:none"
               d="M 0,0 H 14.329 L 7.387,19.722 Z" />
          </g>
          <g
             transform="translate(185.7427,642.507)"
             id="g4775">
            <path
               inkscape:connector-curvature="0"
               id="path4777"
               style="fill:#ffffff;fill-opacity:1;fill-rule:nonzero;stroke:none"
               d="M 0,0 -3.407,9.638 H -29.085 L -32.681,0 -56.408,0.017 -27.203,69.077 H -3.681 L 24.413,0 Z m 38.134,83.56 c 0,0 -25.337,6.437 -54.132,6.437 -0.228,0 -0.452,-0.003 -0.672,-0.009 -33.236,-0.346 -60.067,-26.29 -60.067,-58.249 0,-32.175 27.194,-58.257 60.739,-58.257 33.546,0 60.74,26.082 60.74,58.257 0,0 0,28.435 -6.608,51.821" />
          </g>
        </g>
      </g>
    </g>
  </g>
</svg>
