<?xml version="1.0" encoding="UTF-8" standalone="no"?>
<svg
   xmlns:dc="http://purl.org/dc/elements/1.1/"
   xmlns:cc="http://creativecommons.org/ns#"
   xmlns:rdf="http://www.w3.org/1999/02/22-rdf-syntax-ns#"
   xmlns:svg="http://www.w3.org/2000/svg"
   xmlns="http://www.w3.org/2000/svg"
   viewBox="0 0 500 500"
   height="500"
   width="500"
   version="1.1"
   id="svg4224">
  <metadata
     id="metadata4230">
    <rdf:RDF>
      <cc:Work
         rdf:about="">
        <dc:format>image/svg+xml</dc:format>
        <dc:type
           rdf:resource="http://purl.org/dc/dcmitype/StillImage" />
        <dc:title></dc:title>
      </cc:Work>
    </rdf:RDF>
  </metadata>
  <defs
     id="defs4228" />
  <g
     transform="translate(0,14.558863)"
     id="g5516">
    <g
       id="g2113"
       transform="matrix(1.2072811,0,0,1.2072811,-375.87399,-407.92053)">
      <g
         id="g5501"
         transform="translate(1.4075953,0)">
        <path
           style="fill:#d21145;fill-rule:nonzero;stroke:none"
           d="m 393.6141,476.95212 0,-124.53366 123.39255,0 0,124.53366 -123.39255,0 z"
           class="ps06"
           id="path78" />
        <path
           style="fill:#ffffff;fill-rule:evenodd;stroke:none"
           d="m 451.89145,382.70199 12.58835,0 c 0,0 -4.37943,25.33417 -1.03612,39.26984 4.9431,20.15986 16.73281,34.10803 16.73281,34.10803 l -9.79872,7.01158 c 0,0 -10.04118,-11.4735 -15.29674,-25.8966 -5.25931,-14.34812 -5.3418,-24.85924 -5.3418,-24.85924 -1.99099,4.22444 -12.26464,14.58558 -12.26464,14.58558 l -8.20767,-9.0863 c 0,0 8.68261,-8.28642 14.57933,-17.92265 5.89298,-9.64874 8.0452,-17.21024 8.0452,-17.21024"
           class="ps03"
           id="path80" />
        <path
           style="fill:#ffffff;fill-rule:evenodd;stroke:none"
           d="m 467.42816,366.29164 -2.22846,11.78595 -12.51211,0 2.23346,-11.78595 12.50711,0"
           class="ps03"
           id="path82" />
        <path
           style="fill:#008d7e;fill-rule:nonzero;stroke:none"
           d="m 517.00665,476.95212 0,-124.53366 123.39631,0 0,124.53366 -123.39631,0 z"
           class="ps07"
           id="path84" />
        <path
           style="fill:#ffffff;fill-rule:nonzero;stroke:none"
           d="m 582.47306,365.65422 c -3.66202,15.68545 -14.73556,18.39759 -23.18445,3.57454 4.29943,16.49783 -4.6244,23.19695 -18.79754,14.11064 11.38601,12.51086 6.44916,22.69703 -10.19866,21.3472 15.68544,5.81174 16.32286,17.13525 0.71241,23.58441 16.57282,-2.07473 21.99711,7.48652 11.63597,20.63479 13.38574,-9.8862 22.8595,-3.58703 19.74741,12.74833 7.33654,-14.89805 18.73504,-14.11065 23.34694,2.07473 -0.14998,-16.57283 10.19866,-20.95975 21.59716,-9.08631 -7.81147,-14.4981 -0.47494,-23.34694 14.97304,-18.24761 -13.53573,-9.1613 -11.14854,-20.39732 4.86186,-23.18446 -16.09789,-1.67478 -19.19748,-12.9108 -6.37416,-22.78451 -14.97304,5.97422 -22.872,-2.46217 -16.17288,-17.12275 -10.43613,12.26089 -21.3472,8.43639 -22.1471,-7.649"
           class="ps04"
           id="path86" />
        <path
           style="fill:#008d7e;fill-rule:evenodd;stroke:none"
           d="m 560.48845,408.27363 c 0.54993,-0.39995 2.54966,-2.54966 7.16156,0.075 1.03736,0.56243 2.63715,0.16248 0.87488,-1.91225 -2.14971,-2.38718 -4.46191,-3.26207 -8.83634,-2.06223 0,0 -4.06196,1.18735 -2.54966,3.57453 0.87488,1.36233 2.86212,0.63742 3.34956,0.32496"
           class="ps08"
           id="path88" />
        <path
           style="fill:#008d7e;fill-rule:evenodd;stroke:none"
           d="m 577.44872,432.97039 c -0.38745,0 -4.06196,0.075 -7.72398,-1.19984 -2.54967,-0.87489 -6.04921,-2.54967 -7.57401,-3.66202 -0.94988,-0.63742 -2.62466,-1.58729 -4.86186,-3.58703 -0.54993,-0.54993 -0.7874,-0.71241 -1.11236,-0.47494 -0.14998,0.16248 -0.075,0.63742 0.39995,1.27483 1.19984,1.67478 2.63716,3.42456 4.22445,4.78688 1.99973,1.82476 5.41179,3.97448 8.12393,5.24931 2.63716,1.27483 6.1367,1.59979 8.04895,1.67478 0.23746,0 0.54992,0 0.7124,0 1.99974,-0.075 5.82424,-0.39995 8.44889,-1.67478 2.71215,-1.27483 6.1367,-3.42455 8.12394,-5.24931 1.59979,-1.36232 3.0371,-3.1121 4.22444,-4.78688 0.48744,-0.63741 0.56243,-1.11235 0.39995,-1.27483 -0.32496,-0.23747 -0.54993,-0.075 -1.11235,0.47494 -2.23721,1.99974 -3.89949,2.94961 -4.86187,3.58703 -1.5123,1.11235 -5.02434,2.78713 -7.574,3.66202 -3.57453,1.27483 -7.24905,1.19984 -7.649,1.19984 l -0.23747,0"
           class="ps08"
           id="path90" />
        <path
           style="fill:#008d7e;fill-rule:evenodd;stroke:none"
           d="m 595.53385,408.27363 c -0.47494,-0.39995 -2.54967,-2.54966 -7.16156,0.075 -1.03736,0.56243 -2.63715,0.16248 -0.7999,-1.91225 2.06223,-2.38718 4.46192,-3.26207 8.76135,-2.06223 0,0 4.06197,1.18735 2.54967,3.57453 -0.79989,1.36233 -2.86212,0.63742 -3.34956,0.32496"
           class="ps08"
           id="path92" />
      </g>
      <g
         id="g5511"
         transform="translate(2.4115053,0)">
        <path
           style="fill:#221f1f;fill-rule:nonzero;stroke:none"
           d="m 397.82013,593.26527 0,-102.34907 25.34667,0 0,102.34907 -25.34667,0 z"
           class="ps09"
           id="path94" />
        <path
           style="fill:#221f1f;fill-rule:evenodd;stroke:none"
           d="m 532.9274,514.80057 c -9.39876,-16.97278 -22.47205,-26.77149 -42.38194,-26.77149 -31.63335,0 -49.31853,25.33418 -49.31853,54.0929 0,28.68374 18.96002,54.01791 51.30577,54.01791 17.04777,0 32.18328,-10.19866 40.86964,-26.13407 l -20.08486,-9.79871 c -3.97448,9.1613 -14.01067,14.34812 -20.78478,14.34812 -19.99737,0 -25.97159,-17.5352 -25.97159,-32.43325 0,-23.02198 11.14854,-32.49573 25.09671,-32.49573 8.83634,0 17.5227,5.88672 21.02224,15.37298 l 20.24734,-10.19866"
           class="ps010"
           id="path96" />
        <path
           style="fill:#221f1f;fill-rule:evenodd;stroke:none"
           d="m 572.19725,593.27777 26.93397,0 35.05789,-102.37407 -26.6215,0 -21.42219,73.05292 -0.23747,0 -20.63479,-73.05292 -26.93397,0 33.85806,102.37407"
           class="ps010"
           id="path98" />
      </g>
    </g>
    <g
       id="g2126"
       transform="matrix(1.0185143,0,0,1.0185143,-131.94286,-152.38479)">
      <path
         id="path100"
         class="ps010"
         d="m 276.42543,492.59723 c -5.09933,0 -13.14827,22.30957 -13.14827,24.05934 0,0.71241 -0.47494,4.46192 -0.71241,6.68663 1.98724,-0.47494 3.89949,-1.51231 5.57427,-2.69965 3.73701,-2.78713 7.56151,-7.57401 9.79872,-11.23602 0.94987,-1.59979 2.54966,-4.46192 2.54966,-5.09934 0,-0.63741 1.03737,-4.86186 1.03737,-5.57426 0,-2.39969 -1.12486,-6.1367 -5.09934,-6.1367 z m 1.82477,-14.82305 c 0.32495,0.32495 5.18681,0 5.73674,0 0.56243,0 1.36232,0.39994 2.07473,0.47493 4.46191,0.48744 8.92383,2.3122 13.38574,4.94935 1.59979,0.94988 6.28668,7.16156 6.28668,8.99882 0,0.63742 0.7249,1.83726 0.79989,2.87463 0.16248,1.58729 0.48744,4.21194 0.48744,4.84936 0,3.42455 -0.96237,8.3739 -1.92475,10.99856 -5.97421,16.81029 -25.57164,24.77175 -37.68255,28.1963 -1.58729,0.39994 -3.42455,0.96237 -5.24931,1.59979 -0.96238,0.32495 -3.1121,0.63741 -3.98698,1.58729 -0.075,0.48743 -0.32496,1.19984 -0.32496,2.07473 -0.23747,6.8491 0.24997,8.04894 0.24997,8.68636 0,3.49954 5.3368,9.16129 8.99882,9.0863 9.8737,-0.23746 6.61163,-0.7249 9.8737,-1.43731 0.7999,-0.16248 1.83726,-0.79989 2.54967,-1.27483 2.54966,-1.74977 6.29917,-4.14946 8.68636,-7.24905 1.11235,-1.36232 2.2372,-2.62465 2.87462,-3.18708 0.31246,0.87488 0.7874,1.91225 0.54993,5.89923 -0.23747,5.3368 -1.43731,10.83607 -4.22445,15.84792 -1.98724,3.51204 -7.08657,7.72398 -10.11117,8.92383 -3.51204,1.34982 -9.23629,4.06196 -13.38574,4.06196 l -9.56125,0 c -2.71214,0 -11.54848,-3.49954 -12.82332,-4.29943 -4.14945,-2.71215 -7.17406,-7.24905 -8.77385,-10.76109 -0.31245,-0.7874 -1.18734,-2.06223 -1.18734,-2.69965 0,-0.23747 -2.07473,-5.42429 -2.07473,-7.81147 0,-0.63742 -0.79989,-3.51204 -0.79989,-5.09933 0,-22.38457 0.79989,-15.21051 0.79989,-19.28497 0,-0.63742 1.27484,-6.44916 1.27484,-7.08657 0,-2.22471 4.78687,-14.33562 5.09933,-15.06053 3.42455,-7.48651 7.81147,-16.7228 15.53546,-22.54704 0.39995,-0.31246 0.7249,-1.11235 1.27483,-1.42481 1.74977,-1.19984 3.8245,-2.71215 5.97422,-3.98698 4.06196,-2.2372 9.24878,-4.29943 13.86068,-4.93685 1.83726,-0.16248 3.91198,-0.63742 5.73675,-0.96237"
         style="fill:#221f1f;fill-rule:evenodd;stroke:none" />
      <path
         id="path102"
         class="ps06"
         d="m 403.77122,594.70883 0,-124.53366 117.53458,0 0,124.53366 -117.53458,0 z"
         style="fill:#d21145;fill-rule:nonzero;stroke:none" />
      <path
         id="path104"
         class="ps03"
         d="m 466.91294,541.11586 c -4.93685,2.22471 -10.43613,7.88647 -13.54822,12.18591 -0.47494,0.63741 -4.53691,9.16129 -4.53691,12.27338 0,1.91225 1.34983,6.28668 4.86186,6.28668 1.51231,0 3.18709,-1.58729 4.69939,-3.42455 0.23747,-0.31246 1.11235,-1.03736 1.11235,-1.67478 0,-0.71241 4.22445,-7.24905 4.22445,-7.88647 0,-0.7124 1.5123,-3.33706 1.5123,-3.97447 0,-0.63742 2.07473,-7.24905 2.07473,-7.88647 0,-0.7249 0.56242,-3.67452 0.78739,-5.89923 l -1.18734,0 z m 5.49928,-60.62954 c 2.86212,0 10.19866,2.07473 11.47349,2.47468 3.97448,1.42481 8.99882,4.46191 11.94843,9.16129 0.71241,1.11236 3.74951,6.68663 3.74951,8.76135 0,0.075 2.06223,7.16156 2.06223,8.4364 l 0,15.46047 c 0,5.49928 -3.0246,17.28523 -3.8245,19.8349 -1.42481,4.78687 -3.89948,10.43613 -6.52414,15.38548 -1.99974,3.73701 -3.91199,7.01158 -5.89923,9.71122 -3.82449,5.3368 -9.0863,8.04895 -13.7107,10.99856 -4.77437,3.11209 -15.77293,5.89922 -21.89712,5.89922 -7.01158,0 -17.61019,-2.39968 -22.30958,-9.24878 -1.03736,-1.5123 -2.54966,-3.26207 -2.54966,-4.77438 0,-0.7249 -0.72491,-1.59979 -0.87489,-2.39968 -0.32495,-1.58729 -0.39994,-4.21195 -0.39994,-4.84936 0,-6.06171 1.74977,-9.24879 1.74977,-11.4735 0,-0.7249 4.93685,-8.61137 4.93685,-9.24878 0,-0.63742 4.86186,-5.24932 7.33654,-7.39903 1.18734,-1.03737 2.78713,-1.91225 4.04946,-2.63716 9.1738,-5.41179 20.39733,-9.8737 30.68348,-11.63597 l 0,-10.18616 c -1.43731,-8.4489 -6.21169,-10.43613 -11.54849,-10.43613 -7.17406,0 -15.46047,5.08683 -20.95975,13.37324 l -0.87488,0 c 0,0 0.16248,-0.075 0.16248,-0.63742 0,-0.63741 -0.48744,-1.91225 -0.48744,-2.62465 0,-0.63742 1.03736,-9.56125 1.03736,-10.27365 0,-0.63742 2.07473,-5.09933 2.07473,-5.73675 0,-0.71241 0.32496,-0.0875 0.47494,-0.39995 0.87489,-1.67478 3.51204,-5.42429 5.57427,-6.93659 1.19984,-0.94987 2.56216,-2.14972 3.74951,-2.94961 4.38692,-3.09959 14.26063,-5.64926 20.79727,-5.64926"
         style="fill:#ffffff;fill-rule:evenodd;stroke:none" />
      <path
         id="path106"
         class="ps08"
         d="m 404.29616,491.79734 2.2247,0 c 4.93686,0 5.89923,3.51204 5.89923,6.8491 0,2.47467 0.47494,4.14945 -1.43731,7.01158 -4.29944,6.77411 -9.56125,12.82331 -13.62321,19.7599 -1.67478,2.87463 -2.54967,6.53665 -3.58703,9.72373 -1.03737,3.09959 -1.67478,6.61163 -2.14972,9.71122 0.23747,4.46192 0,4.78688 0,5.02434 0.23747,1.03737 0.79989,2.54967 0.79989,3.18709 0,1.58729 2.78714,2.47467 3.33707,2.47467 3.27457,0 14.18563,-8.92383 15.9354,-10.04868 2.94962,-1.98724 6.61164,-5.57427 9.9612,-6.28667 0.32496,0.31245 0.39995,0.56242 0.39995,1.19984 0,4.5369 -9.23629,21.02224 -10.03619,22.14709 -1.58729,2.22471 -3.0246,5.01184 -4.93685,7.16156 -3.0246,3.51204 -7.649,6.21169 -11.3985,8.04895 -0.7999,0.32495 -1.5873,0.63741 -2.38719,0.87488 -3.18708,0.96237 -7.48652,2.23721 -10.51112,2.23721 -3.98698,0 -9.56125,-1.76227 -11.56098,-7.48652 -0.14999,-0.48744 -0.71241,-1.5248 -0.71241,-2.16222 0,-1.5123 -1.03737,-2.06223 -1.03737,-4.61189 0,-0.63742 -0.47493,-3.27457 -0.39994,-9.48626 -1.91225,3.58703 -4.06197,7.48652 -6.44916,10.99856 -1.19984,1.74977 -3.42455,3.33706 -5.18682,5.09933 -3.18708,3.42455 -6.28667,4.69938 -9.39876,5.41179 -2.2997,0.56243 -6.53664,1.11236 -7.16156,1.11236 -2.94962,0 -8.04895,-1.02487 -8.92383,-1.91225 -1.5123,-1.5873 -5.02434,-3.57453 -6.8491,-6.61164 -1.03737,-1.58729 -4.31194,-8.12393 -4.31194,-9.71122 0,-0.72491 -0.39994,-1.27483 -0.54993,-2.14972 -0.7249,-3.58703 -1.5248,-7.49902 -1.5248,-10.92357 0,-2.46217 -1.11235,0.63742 -0.22497,-6.68662 l -0.41244,-0.39995 c -0.94988,0.7999 -14.41061,11.07355 -17.83516,11.07355 -1.91225,0 -4.14946,-0.79989 -4.14946,-3.18708 0,-2.78714 5.42429,-5.66176 6.06171,-6.1367 7.48652,-6.0492 15.37298,-14.66057 22.62203,-22.0596 2.38719,-2.47468 5.3368,-5.42429 8.28641,-7.73649 9.32378,-7.08657 15.84792,-10.74859 24.85924,-10.74859 1.03736,0 7.649,0.14998 7.649,2.22471 0,6.8491 -21.50968,31.87082 -23.34694,34.65795 -1.91225,2.71215 -3.18708,5.73675 -3.74951,8.59888 0.32496,4.47441 0,4.69938 0,4.94935 0.63742,1.11235 0.48744,5.97421 3.58703,5.97421 4.38693,0 18.01014,-17.21024 22.54704,-23.10947 8.21143,-10.74858 16.8103,-21.67215 25.02172,-31.38338 1.67478,-1.99973 10.91107,-12.67333 14.66058,-12.67333"
         style="fill:#008d7e;fill-rule:evenodd;stroke:none" />
    </g>
  </g>
</svg>
