<?xml version="1.0" encoding="UTF-8" standalone="no"?>
<!-- Created with Inkscape (http://www.inkscape.org/) -->

<svg
   xmlns:dc="http://purl.org/dc/elements/1.1/"
   xmlns:cc="http://creativecommons.org/ns#"
   xmlns:rdf="http://www.w3.org/1999/02/22-rdf-syntax-ns#"
   xmlns:svg="http://www.w3.org/2000/svg"
   xmlns="http://www.w3.org/2000/svg"
   xmlns:sodipodi="http://sodipodi.sourceforge.net/DTD/sodipodi-0.dtd"
   xmlns:inkscape="http://www.inkscape.org/namespaces/inkscape"
   id="svg4512"
   version="1.1"
   inkscape:version="0.48.1 "
   width="232.4512"
   height="169.86819"
   sodipodi:docname="Amaiur logo.svg">
  <metadata
     id="metadata4518">
    <rdf:RDF>
      <cc:Work
         rdf:about="">
        <dc:format>image/svg+xml</dc:format>
        <dc:type
           rdf:resource="http://purl.org/dc/dcmitype/StillImage" />
        <dc:title></dc:title>
      </cc:Work>
    </rdf:RDF>
  </metadata>
  <defs
     id="defs4516" />
  <sodipodi:namedview
     pagecolor="#ffffff"
     bordercolor="#666666"
     borderopacity="1"
     objecttolerance="10"
     gridtolerance="10"
     guidetolerance="10"
     inkscape:pageopacity="0"
     inkscape:pageshadow="2"
     inkscape:window-width="1280"
     inkscape:window-height="750"
     id="namedview4514"
     showgrid="false"
     showguides="true"
     inkscape:guide-bbox="true"
     fit-margin-top="0"
     fit-margin-left="0"
     fit-margin-right="0"
     fit-margin-bottom="0"
     inkscape:zoom="0.885"
     inkscape:cx="-64.337947"
     inkscape:cy="39.630838"
     inkscape:window-x="-8"
     inkscape:window-y="-8"
     inkscape:window-maximized="1"
     inkscape:current-layer="svg4512">
    <sodipodi:guide
       orientation="0,1"
       position="-41.857469,66.646847"
       id="guide5042" />
  </sodipodi:namedview>
  <path
     style="fill:#ffffff;stroke:none"
     d="M 0,34.54257 202.37884,0 l 30.07236,169.86819 -208.474591,0 z"
     id="rect5044"
     inkscape:connector-curvature="0"
     sodipodi:nodetypes="ccccc" />
  <path
     style="fill:#0198b3;fill-opacity:1;stroke:none"
     d="M 6.443732,38.90753 199.0662,5.990491 l 20.33256,120.837599 -0.0134,0.0134 C 150.50095,106.84872 80.465048,109.95996 23.092073,132.92384 z"
     id="rect4526"
     inkscape:connector-curvature="0"
     sodipodi:nodetypes="cccccc" />
  <g
     transform="matrix(0.98088908,0,0,1.0194833,-32.104272,-65.92327)"
     style="font-size:54.47692108px;font-style:normal;font-variant:normal;font-weight:bold;font-stretch:normal;text-align:start;line-height:125%;letter-spacing:-1.80126119px;word-spacing:0px;writing-mode:lr-tb;text-anchor:start;fill:#ffffff;fill-opacity:1;stroke:none;font-family:Century Gothic;-inkscape-font-specification:Century Gothic Bold"
     id="text4522">
    <path
       d="m 79.871526,125.62318 c -0.377759,-4.74771 7.319237,-4.73226 7.235216,0 l 0,26.97908 -7.235216,0 0,-3.059 c -1.418694,1.34774 -2.841795,2.31864 -4.26931,2.9127 -1.427556,0.59407 -2.974791,0.89111 -4.64171,0.89111 -3.741754,0 -6.978091,-1.44971 -9.709022,-4.34911 -2.730943,-2.8994 -4.096411,-6.50371 -4.096409,-10.81293 -2e-6,-4.46879 1.321133,-8.13073 3.963409,-10.98582 2.642264,-2.85505 5.852001,-4.28258 9.629221,-4.28261 1.737853,3e-5 3.369322,0.3281 4.894411,0.9842 1.525048,0.65616 2.93485,1.64036 4.22941,2.95261 z m -7.634217,3.99663 c -2.252154,3e-5 -4.123023,0.79359 -5.612613,2.38071 -1.489613,1.58715 -2.234414,3.62206 -2.234405,6.10471 -9e-6,2.50042 0.758092,4.55749 2.274305,6.17122 1.51619,1.61374 3.382626,2.42061 5.599313,2.4206 2.287585,1e-5 4.185054,-0.79356 5.692412,-2.3807 1.507312,-1.58713 2.26098,-3.66637 2.261005,-6.23772 -2.5e-5,-2.51812 -0.753693,-4.55746 -2.261005,-6.11801 -1.507358,-1.56052 -3.413694,-2.34078 -5.719012,-2.34081 z"
       id="path5105"
       inkscape:connector-curvature="0"
       sodipodi:nodetypes="cccccssssscccccsssssccc"
       style="fill:#ffffff;stroke:none" />
    <path
       d="m 92.593896,125.62318 c -0.392668,-4.60657 7.033697,-4.4074 7.288416,0 l 0,1.36323 c 1.241328,-1.36545 2.620088,-2.38511 4.136308,-3.05901 1.51619,-0.67384 3.16982,-1.01077 4.96091,-1.0108 1.80878,3e-5 3.44025,0.44336 4.89441,1.33 1.45411,0.8867 2.62451,2.18123 3.51121,3.88361 1.15264,-1.70238 2.56688,-2.99691 4.24271,-3.88361 1.67577,-0.88664 3.50674,-1.32997 5.49291,-1.33 2.05703,3e-5 3.86584,0.47883 5.42641,1.4364 1.5605,0.95763 2.68213,2.20783 3.36491,3.75061 0.68269,1.54283 1.02406,4.0521 1.0241,7.52782 l 0,16.97083 -7.31501,0 0,-14.68323 c -4e-5,-3.28065 -0.40791,-5.50176 -1.2236,-6.66331 -0.81578,-1.16152 -2.03938,-1.74228 -3.67081,-1.74231 -1.24137,3e-5 -2.35414,0.35469 -3.33831,1.06401 -0.98423,0.70935 -1.71573,1.68912 -2.1945,2.9393 -0.47884,1.25022 -0.71824,3.25853 -0.71821,6.02492 l 0,13.06062 -7.31501,0 0,-14.01823 c -3e-5,-2.58905 -0.19066,-4.46435 -0.5719,-5.62591 -0.38129,-1.16151 -0.95319,-2.02602 -1.71571,-2.59351 -0.76255,-0.56744 -1.68469,-0.85117 -2.7664,-0.8512 -1.20589,3e-5 -2.30092,0.35913 -3.28511,1.07731 -0.98422,0.71822 -1.72015,1.72459 -2.20781,3.0191 -0.48768,1.29456 -0.731509,3.33389 -0.731498,6.11802 l 0,12.87442 -7.288416,0 z"
       id="path5107"
       inkscape:connector-curvature="0"
       sodipodi:nodetypes="cccccccccccccccccsccccccccsssccc"
       style="fill:#ffffff;stroke:none" />
    <path
       d="m 163.41079,125.62318 c -0.23988,-3.8813 7.16427,-4.20328 7.23522,0 l 0,26.97908 -7.23522,0 0,-3.059 c -1.41869,1.34774 -2.84179,2.31864 -4.26931,2.9127 -1.42755,0.59407 -2.97479,0.89111 -4.64171,0.89111 -3.74175,0 -6.97809,-1.44971 -9.70902,-4.34911 -2.73094,-2.8994 -4.09641,-6.50371 -4.09641,-10.81293 0,-4.46879 1.32114,-8.13073 3.96341,-10.98582 2.64227,-2.85505 5.852,-4.28258 9.62922,-4.28261 1.73786,3e-5 3.36933,0.3281 4.89441,0.9842 1.52505,0.65616 2.93485,1.64036 4.22941,2.95261 z m -7.63421,3.99663 c -2.25216,3e-5 -4.12303,0.79359 -5.61262,2.38071 -1.48961,1.58715 -2.23441,3.62206 -2.2344,6.10471 -1e-5,2.50042 0.75809,4.55749 2.2743,6.17122 1.51619,1.61374 3.38263,2.42061 5.59932,2.4206 2.28758,1e-5 4.18505,-0.79356 5.69241,-2.3807 1.50731,-1.58713 2.26098,-3.66637 2.261,-6.23772 -2e-5,-2.51812 -0.75369,-4.55746 -2.261,-6.11801 -1.50736,-1.56052 -3.41369,-2.34078 -5.71901,-2.34081 z"
       id="path5109"
       inkscape:connector-curvature="0"
       sodipodi:nodetypes="cccccssssscccccsssssccc"
       style="fill:#ffffff;stroke:none" />
    <path
       d="m 179.03257,111.74457 c 1.2768,4e-5 2.37183,0.46111 3.28511,1.38321 0.91326,0.92217 1.36989,2.03937 1.3699,3.3516 -1e-5,1.29458 -0.45221,2.39848 -1.3566,3.31171 -0.90441,0.9133 -1.98615,1.36994 -3.24521,1.3699 -1.29454,4e-5 -2.39844,-0.46546 -3.31171,-1.3965 -0.91327,-0.93097 -1.3699,-2.06147 -1.3699,-3.39151 0,-1.27676 0.4522,-2.36736 1.3566,-3.2718 0.9044,-0.90436 1.995,-1.35657 3.27181,-1.35661 z m -3.64421,13.87861 c 0.14504,-4.42096 6.42191,-4.37909 7.28842,0 l 0,26.97908 -7.28842,0 z"
       id="path5111"
       inkscape:connector-curvature="0"
       sodipodi:nodetypes="ccccccsccccccc"
       style="fill:#ffffff;stroke:none" />
    <path
       d="m 187.44574,125.62318 c -0.21511,-4.97039 7.88038,-3.85683 7.34161,0 l 0,11.97665 c 0,2.71322 0.18619,4.59739 0.5586,5.65251 0.37239,1.05515 0.97089,1.87532 1.79551,2.46051 0.82459,0.58521 1.83982,0.87781 3.04571,0.8778 1.20585,1e-5 2.22995,-0.28816 3.0723,-0.8645 0.84232,-0.57633 1.46742,-1.4231 1.87531,-2.54031 0.30144,-0.83345 0.4522,-2.61566 0.4522,-5.34661 l 0,-12.21605 c -0.237,-3.36084 7.22414,-4.02283 7.28841,0 l 0,10.30085 c 0,5.05402 -0.39903,8.51202 -1.197,10.37402 -0.97536,2.26988 -2.41176,4.01218 -4.30921,5.22691 -1.89749,1.21474 -4.30923,1.82211 -7.23521,1.82211 -3.17429,0 -5.74119,-0.70934 -7.70072,-2.12801 -1.95955,-1.41867 -3.33831,-3.39593 -4.13631,-5.93181 -0.56747,-1.7556 -0.8512,-4.9476 -0.8512,-9.57602 z"
       id="path5113"
       inkscape:connector-curvature="0"
       sodipodi:nodetypes="ccscccscsccscssscsc"
       style="fill:#ffffff;stroke:none" />
    <path
       d="m 216.63353,125.62318 c -0.89452,-4.06435 6.06791,-4.06355 6.22442,0 l 0,1.68243 c 0.67386,-1.43638 1.56939,-2.52698 2.6866,-3.27181 1.1172,-0.74477 2.3408,-1.11717 3.67081,-1.1172 0.93986,3e-5 1.92406,0.2483 2.95261,0.7448 3.15536,4.81897 0.40581,5.50605 -2.26101,6.25101 -0.85121,-0.42557 -1.55168,-0.63837 -2.1014,-0.6384 -1.11721,3e-5 -2.06152,0.69163 -2.83291,2.07481 -0.77141,1.38322 -1.15711,4.09642 -1.1571,8.13962 l 0.0266,1.4098 0,11.70402 -7.20862,0 z"
       id="path5115"
       inkscape:connector-curvature="0"
       sodipodi:nodetypes="ccccccccsccccc"
       style="fill:#ffffff;stroke:none" />
  </g>
  <path
     style="fill:#004b68;fill-opacity:1;stroke:none"
     d="m 43.76541,163.532 c 7.735725,-24.05034 42.082947,-42.4298 83.28362,-42.4298 41.48672,0 76.02449,18.13031 83.44089,42.4298"
     id="path5039"
     inkscape:connector-curvature="0"
     sodipodi:nodetypes="csc" />
</svg>
