<svg xmlns="http://www.w3.org/2000/svg" width="451px" height="531px" viewBox="61.7315 39.6088 273.526 322.288" version="1.1"  xmlns:xlink="http://www.w3.org/1999/xlink" preserveAspectRatio="xMidYMid meet" ><rect id="svgEditorBackground" x="0" y="0" width="400" height="400" style="fill: none; stroke: none;"/>
<g id="#ffffffff">
</g>
<g id="#04428bff" >
<path fill="#04428b" opacity="1.00" d=" M 173.05 53.93 C 190.38 54.04 207.72 53.93 225.06 53.99 C 225.16 79.09 225.02 104.19 225.13 129.30 C 235.96 125.27 246.93 121.62 257.80 117.70 C 254.78 135.54 247.96 152.75 237.68 167.66 C 254.42 189.38 272.30 210.22 289.41 231.66 C 275.13 241.60 260.74 251.38 246.41 261.26 C 230.46 240.56 214.44 219.90 198.38 199.28 C 183.13 219.87 168.04 240.58 152.86 261.23 C 138.29 251.41 123.81 241.46 109.20 231.70 C 125.21 211.98 141.37 192.40 157.27 172.60 C 132.14 164.90 107.09 156.94 81.96 149.21 C 87.80 133.68 93.57 118.12 99.64 102.68 C 124.00 111.71 148.54 120.29 172.93 129.25 C 173.06 104.15 172.82 79.04 173.05 53.93 Z"/>
<path fill="#04428b" opacity="1.00" d=" M 123.76 298.60 C 131.49 298.91 139.30 297.99 146.97 299.27 C 154.42 300.74 161.10 306.30 163.17 313.72 C 164.99 320.54 164.68 328.20 161.26 334.48 C 157.61 341.01 150.26 344.86 142.90 345.16 C 136.53 345.39 130.15 345.18 123.78 345.27 C 123.70 329.71 123.73 314.16 123.76 298.60 M 135.70 308.64 C 135.67 317.50 135.67 326.35 135.71 335.21 C 139.61 335.09 143.95 335.71 147.36 333.38 C 150.78 331.20 151.75 326.83 151.86 323.04 C 151.98 319.01 151.58 314.44 148.62 311.40 C 145.15 308.15 140.09 308.58 135.70 308.64 Z"/>
<path fill="#04428b" opacity="1.00" d=" M 240.93 345.31 C 245.17 329.42 249.92 313.59 256.70 298.57 C 260.84 298.55 264.98 298.55 269.13 298.57 C 275.98 313.54 280.75 329.36 284.94 345.25 C 280.86 345.29 276.77 345.20 272.69 345.31 C 271.89 342.47 271.25 339.60 270.53 336.74 C 265.50 336.74 260.47 336.79 255.43 336.69 C 254.60 339.55 253.86 342.44 253.17 345.33 C 249.09 345.32 245.01 345.34 240.93 345.31 M 262.78 311.63 C 260.70 316.47 259.31 321.55 257.92 326.61 C 261.24 326.66 264.56 326.64 267.89 326.57 C 266.25 321.58 265.26 316.31 262.78 311.63 Z"/>
</g>
<g id="#05428bff" >
<path fill="#05428b" opacity="1.00" d=" M 296.28 104.15 C 297.67 103.68 299.08 103.21 300.48 102.74 C 306.27 118.26 312.31 133.69 317.97 149.25 C 311.77 151.09 305.58 152.95 299.43 154.94 C 300.13 137.94 298.26 121.00 296.28 104.15 Z"/>
</g>
<g id="#064289ff" >
<path fill="#064289" opacity="1.00" d=" M 286.41 107.63 C 287.92 107.12 289.42 106.62 290.93 106.11 C 292.46 123.17 293.10 140.38 291.09 157.42 C 288.51 158.20 285.93 158.98 283.36 159.78 C 286.27 142.56 286.55 125.04 286.41 107.63 Z"/>
</g>
<g id="#06418bff" >
<path fill="#06418b" opacity="1.00" d=" M 274.64 111.81 C 276.70 111.08 278.77 110.35 280.84 109.62 C 280.60 127.26 279.25 144.98 275.19 162.19 C 272.20 163.30 269.12 164.15 266.07 165.07 C 271.98 147.96 273.93 129.80 274.64 111.81 Z"/>
</g>
<g id="#064189ff" >
<path fill="#064189" opacity="1.00" d=" M 263.39 115.68 C 265.41 115.06 267.41 114.36 269.39 113.61 C 267.98 131.89 264.23 150.15 256.78 166.98 C 256.55 168.28 255.08 168.36 254.13 168.77 C 251.60 169.57 249.05 170.28 246.51 171.03 C 256.29 154.15 260.73 134.83 263.39 115.68 Z"/>
</g>
<g id="#04438bff" >
<path fill="#04438b" opacity="1.00" d=" M 210.48 303.51 C 217.76 296.61 229.16 296.46 238.06 300.00 C 237.48 303.43 236.34 306.73 235.56 310.12 C 231.06 308.68 225.92 307.04 221.43 309.39 C 217.01 311.81 216.17 317.41 216.21 321.98 C 216.20 326.33 216.95 331.59 220.95 334.14 C 225.91 336.92 231.89 335.25 236.68 332.94 C 237.32 336.41 238.30 339.81 238.82 343.30 C 231.72 346.56 223.24 347.06 215.95 344.12 C 209.11 341.26 204.83 334.21 203.98 327.03 C 202.93 318.83 204.26 309.48 210.48 303.51 Z"/>

</g>
<g id="#1c406bff" >
<path opacity="1.00" d="M281.55,298.59C293.24,298.52,304.92,298.59,316.61,298.56C316.65,301.91,316.65,305.27,316.6,308.62C312.77,308.64,308.93,308.64,305.1,308.59C305.04,320.83,305.13,333.06,305.05,345.3C301.07,345.22,297.09,345.22,293.11,345.3C293.12,333.08,293.09,320.87,293.13,308.65C289.26,308.59,285.39,308.63,281.52,308.61C281.57,305.27,281.59,301.93,281.55,298.59M300.89963459918084,312.56436780541725C282.76,301.26,281.56,305.11,316.82404445127526,302.0385393930079C286.58,307.36,309.44870757971637,301.82949444359053,296.8590729805354,307.0304775252913C312.1220222256376,361.1032015251648,297.97955050582675,327.33435378985814,294.28,322.99C303.1619661634014,328.717134848252,293.63,336.88,295.89095505058265,322.54223345530727C310.7115166692282,259.2460686694812,300.93,344.08,299.9909270194646,342.8833286614804C298.4966292918425,333.37,303.87,323.19,302.54713484825197,316.3433566925984C280.96269696503964,304.9085253774489,303.0438061867717,307.5295084591496,300.65044949417324,313.1619381322834C259.32966362658317,290.1998878755277,311.54,308.48,314.45,306.39C285.2945510039688,305.4119101011653,315.79,302.22,314.37999999999994,302.8004915408504C312.63,298.89,324.0148593462676,317.99393232680296,301.7894804280316,302.270014015559C296.98140454475595,328.1316287937005,292.53,298.81,300.89963459918084,312.56436780541725Z" style="" fill="#00438b"/>
</g>
<g id="#05428aff" >
<path fill="#05428a" opacity="1.00" d=" M 83.40 345.27 C 83.37 329.70 83.31 314.13 83.41 298.55 C 92.45 299.21 102.34 296.72 110.66 301.31 C 120.41 306.54 120.80 322.63 111.43 328.41 C 106.72 331.57 100.84 331.71 95.36 331.54 C 95.25 336.11 95.34 340.69 95.33 345.26 C 91.35 345.21 87.37 345.26 83.40 345.27 M 95.45 308.62 C 95.33 312.96 95.37 317.31 95.40 321.66 C 98.65 321.58 102.96 322.14 105.02 318.99 C 106.15 316.34 106.21 312.86 104.39 310.50 C 101.96 308.31 98.47 308.71 95.45 308.62 Z"/>
<path fill="#05428a" opacity="1.00" d=" M 169.84 318.80 C 174.46 309.32 189.10 306.81 196.29 314.70 C 200.41 319.09 200.45 325.52 199.83 331.14 C 193.18 331.15 186.53 331.08 179.88 331.23 C 180.89 333.06 181.86 335.25 184.05 335.90 C 188.20 337.26 192.65 336.10 196.64 334.70 C 197.19 337.75 197.79 340.79 198.16 343.87 C 190.57 346.32 181.28 347.40 174.50 342.31 C 167.23 337.13 166.14 326.43 169.84 318.80 M 179.51 324.30 C 182.69 324.32 185.87 324.32 189.05 324.34 C 189.10 321.95 187.89 318.91 185.04 319.05 C 181.96 318.85 180.06 321.60 179.51 324.30 Z"/>
</g>
<g id="#feffffff">
</g>
<g id="#fffffdff">
</g>
<g id="#f9ffffff">
</g>
<g id="#f8ffffff">
</g>
</svg>