<?xml version="1.0" encoding="UTF-8" standalone="no"?>
<!-- Created with Inkscape (http://www.inkscape.org/) -->

<svg
   xmlns:dc="http://purl.org/dc/elements/1.1/"
   xmlns:cc="http://creativecommons.org/ns#"
   xmlns:rdf="http://www.w3.org/1999/02/22-rdf-syntax-ns#"
   xmlns:svg="http://www.w3.org/2000/svg"
   xmlns="http://www.w3.org/2000/svg"
   xmlns:sodipodi="http://sodipodi.sourceforge.net/DTD/sodipodi-0.dtd"
   xmlns:inkscape="http://www.inkscape.org/namespaces/inkscape"
   id="svg2985"
   version="1.1"
   inkscape:version="0.91 r13725"
   width="144.0575"
   height="124.01625"
   xml:space="preserve"
   sodipodi:docname="Unión_Progreso_y_Democracia_logo.svg"><metadata
     id="metadata2991"><rdf:RDF><cc:Work
         rdf:about=""><dc:format>image/svg+xml</dc:format><dc:type
           rdf:resource="http://purl.org/dc/dcmitype/StillImage" /><dc:title></dc:title></cc:Work></rdf:RDF></metadata><defs
     id="defs2989"><clipPath
       clipPathUnits="userSpaceOnUse"
       id="clipPath3001"><path
         d="m 0,841.89 595.276,0 L 595.276,0 0,0 0,841.89 Z"
         id="path3003"
         inkscape:connector-curvature="0" /></clipPath><clipPath
       clipPathUnits="userSpaceOnUse"
       id="clipPath3009"><path
         d="m 0,0 595.276,0 0,841.89 L 0,841.89 0,0 Z"
         id="path3011"
         inkscape:connector-curvature="0" /></clipPath></defs><sodipodi:namedview
     pagecolor="#ffffff"
     bordercolor="#666666"
     borderopacity="1"
     objecttolerance="10"
     gridtolerance="10"
     guidetolerance="10"
     inkscape:pageopacity="0"
     inkscape:pageshadow="2"
     inkscape:window-width="1366"
     inkscape:window-height="705"
     id="namedview2987"
     showgrid="false"
     fit-margin-top="0"
     fit-margin-left="0"
     fit-margin-right="0"
     fit-margin-bottom="0"
     inkscape:zoom="1.4614735"
     inkscape:cx="159.26009"
     inkscape:cy="-13.376399"
     inkscape:window-x="-8"
     inkscape:window-y="-8"
     inkscape:window-maximized="1"
     inkscape:current-layer="g3007" /><g
     id="g2993"
     inkscape:groupmode="layer"
     inkscape:label="68955"
     transform="matrix(1.25,0,0,-1.25,-136.4175,565.1575)"><g
       id="g2995"><g
         id="g2997"><g
           id="g2999"
           clip-path="url(#clipPath3001)" /></g></g><g
       id="g3005"><g
         id="g3007"
         clip-path="url(#clipPath3009)"><g
           id="g3017"
           transform="translate(198.83,452.126)"><path
             d="m 0,0 -89.696,0 0,-73.658 c 0,-14.092 11.459,-25.555 25.553,-25.555 l 64.143,0 c 14.084,0 25.55,11.463 25.55,25.555 l 0,48.102 C 25.55,-11.462 14.084,0 0,0"
             style="fill:#ffffff;fill-opacity:1;fill-rule:nonzero;stroke:none"
             id="path3019"
             inkscape:connector-curvature="0" /></g><g
           id="g3021"
           transform="translate(222.8792,378.468)"><path
             d="m 0,0 c 0,-13.288 -10.767,-24.054 -24.049,-24.054 l -64.143,0 c -13.289,0 -24.053,10.766 -24.053,24.054 l 0,72.159 88.196,0 C -10.767,72.159 0,61.389 0,48.102 L 0,0 Z"
             style="fill:#ec008c;fill-opacity:1;fill-rule:nonzero;stroke:none"
             id="path3023"
             inkscape:connector-curvature="0" /></g><g
           id="g3025"
           transform="translate(146.3029,399.187)"><path
             d="m 0,0 c 0,-5.018 -2.174,-7.78 -6.124,-7.78 -2.861,0 -6.127,0.958 -6.127,8.427 0,0 -0.102,7.573 -0.102,13.308 0,2.562 -1.175,4.465 -3.398,5.512 -1.657,0.779 -3.394,0.821 -3.815,0.821 l -0.01,0 -0.731,-0.016 0,-19.889 c 0,-12.982 6.881,-15.709 12.657,-15.709 2.921,0 5.728,1.015 7.65,2.69 l 0,-1.986 8.053,0 0,34.91 L 0,20.288 0,0 Z m 1.501,18.79 5.054,0 0,-31.916 -5.054,0 0,4.853 -1.367,-1.997 c -1.485,-2.16 -4.54,-3.555 -7.784,-3.555 -7.405,0 -11.156,4.779 -11.156,14.208 l 0,18.374 c 1.615,-0.147 4.955,-0.924 4.955,-4.802 0,-5.738 0.099,-13.318 0.099,-13.318 0,-6.67 2.497,-9.916 7.628,-9.916 4.77,0 7.625,3.466 7.625,9.279 l 0,18.79 z"
             style="fill:#ffffff;fill-opacity:1;fill-rule:nonzero;stroke:none"
             id="path3027"
             inkscape:connector-curvature="0" /></g><g
           id="g3029"
           transform="translate(206.4451,432.4609)"><path
             d="m 0,0 c -5.699,0 -7.222,-5.866 -7.238,-8.974 l 0,-6.156 c -1.855,1.491 -4.595,2.846 -7.657,2.846 -3.378,0 -7.044,-1.293 -9.774,-4.396 -3.1,3.779 -7.283,4.396 -9.649,4.396 -2.816,0 -5.38,-0.961 -7.969,-3.006 l 0,2.304 -7.989,0 0,-47.182 0.782,-0.016 c 2.676,0 7.207,1.482 7.207,7.037 l 0,7.392 c 1.852,-1.488 4.591,-2.845 7.65,-2.845 3.378,0 7.047,1.295 9.774,4.402 3.103,-3.786 7.286,-4.402 9.649,-4.402 2.819,0 5.383,0.964 7.976,3.006 l 0,-2.302 7.985,0 L 0.747,0 0,0 Z m -34.637,-47.099 c -3.397,0 -6.351,1.925 -7.845,3.576 l -1.299,1.435 0,-11.059 c 0,-4.398 -3.427,-5.303 -5.001,-5.488 l 0,44.152 5.001,0 0,-4.143 1.254,1.159 c 2.724,2.514 5.336,3.684 8.209,3.684 3.688,0 6.616,-1.454 8.669,-4.165 -1.124,-1.619 -2.011,-3.637 -2.554,-6.092 -1.233,3.787 -3.682,5.711 -7.325,5.711 -4.096,0 -7.072,-3.182 -8.158,-4.55 l -0.166,-0.205 0,-14.574 0.154,-0.198 c 1.727,-2.339 5.006,-4.697 8.426,-4.697 2.688,0 5.756,1.083 7.184,5.401 0.543,-2.377 1.338,-4.27 2.299,-5.769 -2.443,-2.952 -5.776,-4.178 -8.848,-4.178 m 5.862,15.383 c -0.118,-6.188 -2.302,-9.337 -6.497,-9.337 -2.791,0 -5.582,1.983 -7.079,3.895 l 0,13.549 c 1.063,1.281 3.56,3.781 6.823,3.781 4.212,0 6.415,-3.185 6.725,-9.708 -0.004,-0.123 -0.016,-0.237 -0.016,-0.361 0,-0.63 0.016,-1.228 0.044,-1.819 m 3.972,-9.845 c -1.449,2.537 -2.295,5.905 -2.477,9.998 0,0.132 0.016,0.253 0.016,0.39 0,0.575 -0.016,1.129 -0.039,1.664 0.054,4.422 1.044,7.755 2.574,10.188 1.462,-2.56 2.311,-5.967 2.477,-10.112 0,-0.096 -0.012,-0.18 -0.012,-0.277 0,-0.553 0.016,-1.084 0.044,-1.6 -0.051,-4.451 -1.05,-7.805 -2.583,-10.251 m 24.053,-4.839 -4.988,0 0,4.144 -1.261,-1.16 c -2.727,-2.511 -5.339,-3.683 -8.215,-3.683 -3.685,0 -6.613,1.454 -8.669,4.162 1.121,1.628 2.011,3.643 2.561,6.108 1.226,-3.798 3.671,-5.724 7.321,-5.724 4.106,0 7.072,3.179 8.158,4.55 l 0.163,0.203 0,14.578 -0.147,0.198 c -1.734,2.337 -5.01,4.695 -8.426,4.695 -2.692,0 -5.76,-1.084 -7.194,-5.413 -0.53,2.383 -1.335,4.277 -2.296,5.78 2.443,2.952 5.78,4.179 8.848,4.179 3.407,0 6.357,-1.923 7.848,-3.571 l 1.309,-1.443 0,9.822 c 0,0.293 0.08,6.828 4.988,7.429 l 0,-44.854 z m -20.004,17.153 c 0.102,6.245 2.286,9.419 6.501,9.419 2.787,0 5.578,-1.981 7.075,-3.894 l 0,-13.551 c -1.957,-2.37 -4.489,-3.78 -6.823,-3.78 -4.224,0 -6.431,3.207 -6.724,9.775 0,0.098 0.006,0.194 0.006,0.294 0,0.598 -0.016,1.174 -0.035,1.737"
             style="fill:#ffffff;fill-opacity:1;fill-rule:nonzero;stroke:none"
             id="path3031"
             inkscape:connector-curvature="0" /></g></g></g></g></svg>