<?xml version="1.0" encoding="UTF-8" standalone="no"?>
<!-- Creator: CorelDRAW -->

<svg
   xmlns:dc="http://purl.org/dc/elements/1.1/"
   xmlns:cc="http://creativecommons.org/ns#"
   xmlns:rdf="http://www.w3.org/1999/02/22-rdf-syntax-ns#"
   xmlns:svg="http://www.w3.org/2000/svg"
   xmlns="http://www.w3.org/2000/svg"
   xmlns:xlink="http://www.w3.org/1999/xlink"
   xmlns:sodipodi="http://sodipodi.sourceforge.net/DTD/sodipodi-0.dtd"
   xmlns:inkscape="http://www.inkscape.org/namespaces/inkscape"
   xml:space="preserve"
   width="500"
   height="492.52563"
   style="fill-rule:evenodd"
   viewBox="0 0 315.36885 310.44747"
   id="svg2"
   sodipodi:version="0.32"
   inkscape:version="0.48.1 "
   sodipodi:docname="Logotipo UPN (simple).svg"
   inkscape:output_extension="org.inkscape.output.svg.inkscape"
   version="1.0"><metadata
   id="metadata15"><rdf:RDF><cc:Work
       rdf:about=""><dc:format>image/svg+xml</dc:format><dc:type
         rdf:resource="http://purl.org/dc/dcmitype/StillImage" /><dc:title></dc:title></cc:Work></rdf:RDF></metadata><sodipodi:namedview
   inkscape:window-height="750"
   inkscape:window-width="1280"
   inkscape:pageshadow="2"
   inkscape:pageopacity="0.0"
   guidetolerance="10.0"
   gridtolerance="10.0"
   objecttolerance="10.0"
   borderopacity="1.0"
   bordercolor="#666666"
   pagecolor="#ffffff"
   id="base"
   inkscape:zoom="1.1126324"
   inkscape:cx="250"
   inkscape:cy="246.26282"
   inkscape:window-x="-8"
   inkscape:window-y="-8"
   inkscape:current-layer="svg2"
   showguides="true"
   inkscape:guide-bbox="true"
   width="751px"
   height="501px"
   showgrid="false"
   fit-margin-top="0"
   fit-margin-left="0"
   fit-margin-right="0"
   fit-margin-bottom="0"
   inkscape:window-maximized="1" />
 <defs
   id="defs4"><linearGradient
   id="linearGradient2291"><stop
     style="stop-color:#ffffff;stop-opacity:1"
     offset="0"
     id="stop2301" /><stop
     style="stop-color:#ffc000;stop-opacity:1"
     offset="0.5"
     id="stop2305" /><stop
     style="stop-color:#ffffff;stop-opacity:1"
     offset="1"
     id="stop2295" /></linearGradient><linearGradient
   id="linearGradient2441"><stop
     style="stop-color:#000000;stop-opacity:1"
     offset="0"
     id="stop2443" /><stop
     style="stop-color:#ee1919;stop-opacity:1;"
     offset="1"
     id="stop2459" /><stop
     style="stop-color:#ffffff;stop-opacity:1"
     offset="1"
     id="stop2449" /></linearGradient><linearGradient
   id="linearGradient6111"><stop
     style="stop-color:#a1a1a1;stop-opacity:1;"
     offset="0"
     id="stop6113" /><stop
     id="stop3962"
     offset="0.4909091"
     style="stop-color:#e5e5e5;stop-opacity:1;" /><stop
     id="stop3960"
     offset="0.9818182"
     style="stop-color:#909090;stop-opacity:1;" /><stop
     style="stop-color:gray;stop-opacity:1;"
     offset="1"
     id="stop6115" /></linearGradient><linearGradient
   y2="343.1196"
   x2="416.20303"
   y1="343.1196"
   x1="133.79698"
   gradientTransform="translate(10.214072,484.98612)"
   gradientUnits="userSpaceOnUse"
   id="linearGradient8174"
   xlink:href="#linearGradient4476"
   inkscape:collect="always" /><linearGradient
   inkscape:collect="always"
   id="linearGradient2391"><stop
     style="stop-color:#000000;stop-opacity:1;"
     offset="0"
     id="stop2393" /><stop
     style="stop-color:#000000;stop-opacity:0;"
     offset="1"
     id="stop2395" /></linearGradient><linearGradient
   id="linearGradient8929"><stop
     id="stop8931"
     offset="0"
     style="stop-color:#776201;stop-opacity:1;" /><stop
     style="stop-color:#eac102;stop-opacity:1;"
     offset="0.5"
     id="stop8933" /><stop
     id="stop8935"
     offset="1"
     style="stop-color:#776201;stop-opacity:1;" /></linearGradient><linearGradient
   id="linearGradient4476"><stop
     style="stop-color:#403800;stop-opacity:1;"
     offset="0"
     id="stop4478" /><stop
     id="stop3321"
     offset="0.5"
     style="stop-color:#c8af00;stop-opacity:1;" /><stop
     style="stop-color:#403900;stop-opacity:1;"
     offset="1"
     id="stop4480" /></linearGradient><linearGradient
   id="linearGradient8135"><stop
     style="stop-color:#5d070b;stop-opacity:1;"
     offset="0"
     id="stop8137" /><stop
     id="stop8139"
     offset="0.5"
     style="stop-color:#ed1c24;stop-opacity:1;" /><stop
     style="stop-color:#5d070a;stop-opacity:1;"
     offset="1"
     id="stop8141" /></linearGradient>
  <style
   type="text/css"
   id="style6">
   
    .fil0 {fill:#ED1C24}
    .fil1 {fill:yellow}
   
  </style>
 <linearGradient
   inkscape:collect="always"
   xlink:href="#linearGradient4476"
   id="linearGradient8245"
   gradientUnits="userSpaceOnUse"
   gradientTransform="translate(10.214073,484.98613)"
   x1="133.79698"
   y1="343.1196"
   x2="416.20303"
   y2="343.1196" /><linearGradient
   inkscape:collect="always"
   xlink:href="#linearGradient2391"
   id="linearGradient2397"
   x1="43.910629"
   y1="150.47406"
   x2="41.61565"
   y2="153.76353"
   gradientUnits="userSpaceOnUse" /><linearGradient
   inkscape:collect="always"
   xlink:href="#linearGradient4476"
   id="linearGradient2866"
   gradientUnits="userSpaceOnUse"
   gradientTransform="translate(10.214072,484.98612)"
   x1="133.79698"
   y1="343.1196"
   x2="416.20303"
   y2="343.1196" /><linearGradient
   inkscape:collect="always"
   xlink:href="#linearGradient4476"
   id="linearGradient2514"
   gradientUnits="userSpaceOnUse"
   gradientTransform="translate(10.214072,484.98612)"
   x1="133.79698"
   y1="343.1196"
   x2="416.20303"
   y2="343.1196" /><linearGradient
   inkscape:collect="always"
   xlink:href="#linearGradient8135"
   id="linearGradient4580"
   gradientUnits="userSpaceOnUse"
   gradientTransform="matrix(1.1077565,0,0,1.1077565,-17.94142,-246.20294)"
   x1="178.63434"
   y1="324.68375"
   x2="294.91043"
   y2="324.68375" /></defs>
 
<g
   id="g4064"
   transform="matrix(0.98505127,0,0,0.98505127,4.403704,-0.26544649)"><g
     style="fill:none;stroke:none"
     transform="matrix(1.0151756,0,0,1,-4.7904332,0.7896078)"
     id="Capa_x0020_1">
  <metadata
   id="CorelCorpID_0Corel-Layer" />
  <polygon
   transform="matrix(0.66577896,0,0,0.9986695,0.3151183,-0.5795291)"
   style="fill:#0065a7;fill-opacity:1;stroke:none"
   id="polygon10"
   points="0,0 0,0 473.684,0 473.684,315.789 0,315.789 "
   class="fil0" />
  
 <g
   style="fill:none;stroke:none"
   id="g5412"
   transform="matrix(0.1729586,0,0,0.1729586,198.87125,93.936924)" /><g
   transform="matrix(0.1674008,0,0,0.1674008,190.18476,63.259709)"
   id="g3966"
   style="fill:none;stroke:none;display:inline"><g
     style="fill:none;stroke:none"
     id="g2748" /></g></g><g
     transform="scale(0.99084236,1.0092423)"
     style="font-size:119.28171539px;font-style:normal;font-weight:normal;line-height:125%;letter-spacing:0px;word-spacing:0px;fill:#ffffff;stroke:none;font-family:Arial Black;-inkscape-font-specification:Arial Black"
     id="text3264"><path
       d="m 78.038176,118.84401 27.211444,0 0,50.90441 c -10e-5,5.04775 -0.81283,9.81397 -2.43819,14.29866 -1.62556,4.48473 -4.174119,8.40642 -7.645698,11.76509 -3.471747,3.35869 -7.113982,5.71753 -10.926719,7.07653 -5.297869,1.9026 -11.659241,2.8539 -19.08413,2.85391 -4.294481,-1e-5 -8.980222,-0.29122 -14.057238,-0.87365 -5.077096,-0.58243 -9.321354,-1.73758 -12.732788,-3.46546 -3.411487,-1.72787 -6.53197,-4.18378 -9.361459,-7.36774 -2.829522,-3.18394 -4.766028,-6.46496 -5.809521,-9.84307 -1.685675,-5.43599 -2.528506,-10.25075 -2.528497,-14.44427 l 0,-50.90441 27.211441,0 0,52.12751 c -3.6e-5,4.65947 1.334447,8.29966 4.003453,10.92057 2.668927,2.62095 6.371364,3.93142 11.107326,3.9314 4.695724,2e-5 8.378094,-1.29103 11.047122,-3.87316 2.668905,-2.58208 4.003387,-6.24168 4.003454,-10.97881 z"
       style="fill:#ffffff;stroke:none"
       id="path4075"
       inkscape:connector-curvature="0" /><path
       d="m 119.96974,118.84401 43.857,0 c 9.55179,9e-5 16.70597,2.27156 21.46255,6.81444 4.75644,4.54303 7.13469,11.008 7.13477,19.39492 -8e-5,8.62002 -2.59189,15.35679 -7.77544,20.21033 -5.1837,4.85362 -13.09504,7.28041 -23.73404,7.28038 l -14.44427,0 0,31.68421 -26.50057,0 z m 26.50057,36.40189 6.46498,0 c 5.08651,5e-5 8.65875,-0.8833 10.71672,-2.65006 2.05786,-1.76665 3.08682,-4.02842 3.08688,-6.78531 -6e-5,-2.67912 -0.89312,-4.95059 -2.67918,-6.81443 -1.78617,-1.86371 -5.14485,-2.7956 -10.07605,-2.79567 l -7.51335,0 z"
       style="fill:#ffffff;stroke:none"
       id="path4077"
       inkscape:connector-curvature="0" /><path
       d="m 206.46064,118.84401 24.6368,0 32.15015,47.2351 0,-47.2351 24.86977,0 0,85.38428 -24.86977,0 -31.97542,-46.88564 0,46.88564 -24.81153,0 z"
       style="fill:#ffffff;stroke:none"
       id="path4079"
       inkscape:connector-curvature="0" /></g></g></svg>